<?xml version="1.0" encoding="UTF-8"?><!DOCTYPE svg PUBLIC "-//W3C//DTD SVG 1.1//EN" "http://www.w3.org/Graphics/SVG/1.1/DTD/svg11.dtd"><svg xmlns="http://www.w3.org/2000/svg" xmlns:xlink="http://www.w3.org/1999/xlink"><defs/><symbol id="ae"><path fill="#FFF" d="M14 0H1a1 1 0 0 0-1 1v24a1 1 0 0 0 1 1h18a1 1 0 0 0 1-1V6l-6-6z"/><path fill="none" d="M13 6V1H1v24h18V7h-5c-.55 0-1-.45-1-1z"/><path fill="none" d="M19 7h-5c-.55 0-1-.45-1-1V1H1v15h18V7z"/><path fill="none" d="M14 6h4.5L14 1.5z"/><path fill="#CCC" d="M0 25zM14 0H1a1 1 0 0 0-1 1v15h1V1h12v5c0 .55.45 1 1 1h5v9h1V6l-6-6zm0 6V1.5L18.5 6H14zM19 26z"/><path fill="#762DD8" d="M1 16h18v9H1z"/><path fill="#5E24AD" d="M19 25H1v-9H0v9c0 .55.45 1 1 1h18c.55 0 1-.45 1-1v-9h-1v9z"/></symbol><symbol id="ai"><path fill="#FFF" d="M14 0H1a1 1 0 0 0-1 1v24a1 1 0 0 0 1 1h18a1 1 0 0 0 1-1V6l-6-6z"/><path fill="none" d="M14 6h4.5L14 1.5z"/><path fill="#CCC" d="M0 25zM14 0H1a1 1 0 0 0-1 1v15h1V1h12v5c0 .55.45 1 1 1h5v9h1V6l-6-6zm0 6V1.5L18.5 6H14zM19 26z"/><path fill="#FF8C05" d="M1 16h18v9H1z"/><path fill="#CC7002" d="M19 25H1v-9H0v9c0 .55.45 1 1 1h18c.55 0 1-.45 1-1v-9h-1v9z"/></symbol><symbol id="ase"><path fill="#FFF" d="M14 0H1a1 1 0 0 0-1 1v24a1 1 0 0 0 1 1h18a1 1 0 0 0 1-1V6l-6-6z"/><path fill="none" d="M14 6h4.5L14 1.5z"/><path fill="#CCC" d="M0 25zM14 0H1a1 1 0 0 0-1 1v15h1V1h12v5c0 .55.45 1 1 1h5v9h1V6l-6-6zm0 6V1.5L18.5 6H14zM19 26z"/><path fill="#FF8C05" d="M1 16h18v9H1z"/><path fill="#CC7002" d="M19 25H1v-9H0v9c0 .55.45 1 1 1h18c.55 0 1-.45 1-1v-9h-1v9z"/></symbol><symbol id="cut"><path fill="#FFF" d="M24 2H12c-1.1 0-1.625-.125-2.5-1C8.828.328 8.1 0 7 0H2C.9 0 0 .9 0 2v17c0 1.1.9 2 2 2h22c1.1 0 2-.9 2-2V4c0-1.1-.9-2-2-2z"/><path fill="#CCC" d="M24 2H12c-1.1 0-1.625-.125-2.5-1C8.828.328 8.1 0 7 0H2C.9 0 0 .9 0 2v17c0 1.1.9 2 2 2h22c1.1 0 2-.9 2-2V4c0-1.1-.9-2-2-2zm1 17c0 .551-.449 1-1 1H2c-.551 0-1-.449-1-1V7h24v12zm0-13H1V2c0-.551.449-1 1-1h5c.805 0 1.383.383 2 1 .75.75 1.7 1 3 1h12c.551 0 1 .449 1 1v2z"/><path fill="#CCC" d="M13 12.5L9 10v2H7c-1.654 0-3 1.346-3 3v2h1v-2c0-1.103.897-2 2-2h2v2l4-2.5z"/></symbol><symbol id="dir"><path fill="#FFF" d="M24 2H12c-1.1 0-1.625-.125-2.5-1C8.828.328 8.1 0 7 0H2C.9 0 0 .9 0 2v17c0 1.1.9 2 2 2h22c1.1 0 2-.9 2-2V4c0-1.1-.9-2-2-2z"/><path fill="#CCC" d="M24 2H12c-1.1 0-1.625-.125-2.5-1C8.828.328 8.1 0 7 0H2C.9 0 0 .9 0 2v17c0 1.1.9 2 2 2h22c1.1 0 2-.9 2-2V4c0-1.1-.9-2-2-2zm1 17c0 .551-.449 1-1 1H2c-.551 0-1-.449-1-1V7h24v12zm0-13H1V2c0-.551.449-1 1-1h5c.805 0 1.383.383 2 1 .75.75 1.7 1 3 1h12c.551 0 1 .449 1 1v2z"/></symbol><symbol id="dir_protected"><path fill="#FFF" d="M24 2H12c-1.1 0-1.625-.125-2.5-1C8.828.328 8.1 0 7 0H2C.9 0 0 .9 0 2v17c0 1.1.9 2 2 2h22c1.1 0 2-.9 2-2V4c0-1.1-.9-2-2-2z"/><path fill="#CCC" d="M24 2H12c-1.1 0-1.625-.125-2.5-1C8.828.328 8.1 0 7 0H2C.9 0 0 .9 0 2v17c0 1.1.9 2 2 2h22c1.1 0 2-.9 2-2V4c0-1.1-.9-2-2-2zm1 17c0 .551-.449 1-1 1H2c-.551 0-1-.449-1-1V7h24v12zm0-13H1V2c0-.551.449-1 1-1h5c.805 0 1.383.383 2 1 .75.75 1.7 1 3 1h12c.551 0 1 .449 1 1v2z"/><path fill="#CCC" d="M21 12v-1a2 2 0 1 0-4 0v1c-.55 0-1 .45-1 1v3c0 .55.45 1 1 1h4c.55 0 1-.45 1-1v-3c0-.55-.45-1-1-1zm-.8 0h-2.4v-1c0-.66.54-1.2 1.2-1.2s1.2.54 1.2 1.2v1z"/></symbol><symbol id="dir_shared"><path fill="#FFF" d="M24 2H12c-1.1 0-1.625-.125-2.5-1C8.828.328 8.1 0 7 0H2C.9 0 0 .9 0 2v17c0 1.1.9 2 2 2h22c1.1 0 2-.9 2-2V4c0-1.1-.9-2-2-2z"/><path fill="#CCC" d="M24 2H12c-1.1 0-1.625-.125-2.5-1C8.828.328 8.1 0 7 0H2C.9 0 0 .9 0 2v17c0 1.1.9 2 2 2h22c1.1 0 2-.9 2-2V4c0-1.1-.9-2-2-2zm1 17c0 .551-.449 1-1 1H2c-.551 0-1-.449-1-1V7h24v12zm0-13H1V2c0-.551.449-1 1-1h5c.805 0 1.383.383 2 1 .75.75 1.7 1 3 1h12c.551 0 1 .449 1 1v2z"/><path fill="#CCC" d="M21 12h-3v-1c0-1.103-.897-2-2-2s-2 .897-2 2v1h1v-1a1.001 1.001 0 0 1 2 0v1c-.55 0-1 .45-1 1v3c0 .55.45 1 1 1h4c.55 0 1-.45 1-1v-3c0-.55-.45-1-1-1z"/></symbol><symbol id="dmg"><path fill="#FFF" d="M14 0H1a1 1 0 0 0-1 1v24a1 1 0 0 0 1 1h18a1 1 0 0 0 1-1V6l-6-6z"/><g fill="#CCC"><path d="M14 0H1a1 1 0 0 0-1 1v24a1 1 0 0 0 1 1h18a1 1 0 0 0 1-1V6l-6-6zm0 1.5L18.5 6H14V1.5zM19 25H1V1h12v5c0 .55.45 1 1 1h5v18z"/><path d="M4.2 16a5.8 5.8 0 1 0 11.6 0 5.8 5.8 0 0 0-11.6 0z"/></g><circle fill="#FFF" cx="10" cy="16" r="1.5"/></symbol><symbol id="doc"><path fill="#FFF" d="M14 0H1a1 1 0 0 0-1 1v24a1 1 0 0 0 1 1h18a1 1 0 0 0 1-1V6l-6-6z"/><path fill="none" d="M13 6V1H1v24h18V7h-5c-.55 0-1-.45-1-1z"/><path fill="none" d="M19 7h-5c-.55 0-1-.45-1-1V1H1v15h18V7z"/><path fill="none" d="M14 6h4.5L14 1.5z"/><path fill="#CCC" d="M0 25zM14 0H1a1 1 0 0 0-1 1v15h1V1h12v5c0 .55.45 1 1 1h5v9h1V6l-6-6zm0 6V1.5L18.5 6H14zM19 26z"/><path fill="#2C8FFF" d="M1 16h18v9H1z"/><path fill="#2272CC" d="M19 25H1v-9H0v9c0 .55.45 1 1 1h18c.55 0 1-.45 1-1v-9h-1v9z"/></symbol><symbol id="eps"><path fill="#FFF" d="M14 0H1a1 1 0 0 0-1 1v24a1 1 0 0 0 1 1h18a1 1 0 0 0 1-1V6l-6-6z"/><path fill="none" d="M14 6h4.5L14 1.5z"/><path fill="#CCC" d="M0 25zM14 0H1a1 1 0 0 0-1 1v15h1V1h12v5c0 .55.45 1 1 1h5v9h1V6l-6-6zm0 6V1.5L18.5 6H14zM19 26z"/><path fill="#FF8C05" d="M1 16h18v9H1z"/><path fill="#CC7002" d="M19 25H1v-9H0v9c0 .55.45 1 1 1h18c.55 0 1-.45 1-1v-9h-1v9z"/></symbol><symbol id="fla"><path fill="#FFF" d="M14 0H1a1 1 0 0 0-1 1v24a1 1 0 0 0 1 1h18a1 1 0 0 0 1-1V6l-6-6z"/><path fill="none" d="M14 6h4.5L14 1.5z"/><path fill="#CCC" d="M0 25zM14 0H1a1 1 0 0 0-1 1v15h1V1h12v5c0 .55.45 1 1 1h5v9h1V6l-6-6zm0 6V1.5L18.5 6H14zM19 26z"/><path fill="#FF0708" d="M1 16h18v9H1z"/><path fill="#CC1604" d="M19 25H1v-9H0v9c0 .55.45 1 1 1h18c.55 0 1-.45 1-1v-9h-1v9z"/></symbol><symbol id="fnt"><g fill="#CCC"><path d="M14 0H1a1 1 0 0 0-1 1v24a1 1 0 0 0 1 1h18a1 1 0 0 0 1-1V6l-6-6zm0 1.5L18.5 6H14V1.5zM19 25H1V1h12v5c0 .55.45 1 1 1h5v18z"/><path d="M9.416 10l-4.5 11h2.25L8 19h5l.667 2h2.25l-4.5-11H9.416zM8.7 17l1.719-4.5L12.3 17H8.7z"/></g></symbol><symbol id="gen"><path fill="#FFF" d="M14 0H1a1 1 0 0 0-1 1v24a1 1 0 0 0 1 1h18a1 1 0 0 0 1-1V6l-6-6z"/><path fill="none" d="M13 6V1H1v24h18V7h-5c-.55 0-1-.45-1-1z"/><path fill="#CCC" d="M14 0H1a1 1 0 0 0-1 1v24a1 1 0 0 0 1 1h18a1 1 0 0 0 1-1V6l-6-6zm0 1.5L18.5 6H14V1.5zM19 25H1V1h12v5c0 .55.45 1 1 1h5v18z"/></symbol><symbol id="html"><path fill="#FFF" d="M14 0H1a1 1 0 0 0-1 1v24a1 1 0 0 0 1 1h18a1 1 0 0 0 1-1V6l-6-6z"/><path fill="none" d="M14 6h4.5L14 1.5z"/><path fill="#CCC" d="M0 25zM14 0H1a1 1 0 0 0-1 1v15h1V1h12v5c0 .55.45 1 1 1h5v9h1V6l-6-6zm0 6V1.5L18.5 6H14zM19 26z"/><path fill="#28B091" d="M1 16h18v9H1z"/><path fill="#208D74" d="M19 25H1v-9H0v9c0 .55.45 1 1 1h18c.55 0 1-.45 1-1v-9h-1v9z"/></symbol><symbol id="img"><path fill="#FFF" d="M14 0H1a1 1 0 0 0-1 1v24a1 1 0 0 0 1 1h18a1 1 0 0 0 1-1V6l-6-6z"/><path fill="#CCC" d="M14 0H1a1 1 0 0 0-1 1v24a1 1 0 0 0 1 1h18a1 1 0 0 0 1-1V6l-6-6zm0 1.5L18.5 6H14V1.5zM19 25H1V1h12v5c0 .55.45 1 1 1h5v18z"/><path fill="#CCC" d="M11.2 15.4l-2.896 3.861-1.271-1.849c-.156-.227-.411-.227-.567 0L4 21h12l-4.2-5.6c-.165-.22-.435-.22-.6 0z"/><circle fill="#CCC" cx="7.5" cy="11.5" r="1.8"/></symbol><symbol id="indd"><path fill="#FFF" d="M14 0H1a1 1 0 0 0-1 1v24a1 1 0 0 0 1 1h18a1 1 0 0 0 1-1V6l-6-6z"/><path fill="none" d="M14 6h4.5L14 1.5z"/><path fill="#CCC" d="M0 25zM14 0H1a1 1 0 0 0-1 1v15h1V1h12v5c0 .55.45 1 1 1h5v9h1V6l-6-6zm0 6V1.5L18.5 6H14zM19 26z"/><path fill="#FF1C8C" d="M1 16h18v9H1z"/><path fill="#CC1670" d="M19 25H1v-9H0v9c0 .55.45 1 1 1h18c.55 0 1-.45 1-1v-9h-1v9z"/></symbol><symbol id="key"><path fill="#FFF" d="M14 0H1a1 1 0 0 0-1 1v24a1 1 0 0 0 1 1h18a1 1 0 0 0 1-1V6l-6-6z"/><path fill="none" d="M14 6h4.5L14 1.5z"/><path fill="#CCC" d="M0 25zM14 0H1a1 1 0 0 0-1 1v15h1V1h12v5c0 .55.45 1 1 1h5v9h1V6l-6-6zm0 6V1.5L18.5 6H14zM19 26z"/><path fill="#FDC831" d="M1 16h18v9H1z"/><path fill="#CAA028" d="M19 25H1v-9H0v9c0 .55.45 1 1 1h18c.55 0 1-.45 1-1v-9h-1v9z"/></symbol><symbol id="merlin"><path fill="#FFF" d="M14 0H1a1 1 0 0 0-1 1v24a1 1 0 0 0 1 1h18a1 1 0 0 0 1-1V6l-6-6z"/><path fill="none" d="M14 6h4.5L14 1.5z"/><path fill="#CCC" d="M0 25zM14 0H1a1 1 0 0 0-1 1v15h1V1h12v5c0 .55.45 1 1 1h5v9h1V6l-6-6zm0 6V1.5L18.5 6H14zM19 26z"/><path fill="#2C8FFF" d="M1 16h18v9H1z"/><path fill="#2272CC" d="M19 25H1v-9H0v9c0 .55.45 1 1 1h18c.55 0 1-.45 1-1v-9h-1v9z"/></symbol><symbol id="net"><path fill="#FFF" d="M0 19c0 1.1.9 2 2 2h22c1.1 0 2-.9 2-2V2c0-1.1-.9-2-2-2H2C.9 0 0 .9 0 2v17z"/><path fill="#CCC" d="M24 0H2C.9 0 0 .9 0 2v17c0 1.1.9 2 2 2h22c1.1 0 2-.9 2-2V2c0-1.1-.9-2-2-2zm1 19c0 .551-.449 1-1 1H2c-.551 0-1-.449-1-1V3h24v16z"/><path fill="#CCC" d="M5 8h7v7H5zM14 14h7v1h-7zM14 12h7v1h-7zM14 10h7v1h-7zM14 8h7v1h-7z"/></symbol><symbol id="numbers"><path fill="#FFF" d="M14 0H1a1 1 0 0 0-1 1v24a1 1 0 0 0 1 1h18a1 1 0 0 0 1-1V6l-6-6z"/><path fill="none" d="M14 6h4.5L14 1.5z"/><path fill="#CCC" d="M0 25zM14 0H1a1 1 0 0 0-1 1v15h1V1h12v5c0 .55.45 1 1 1h5v9h1V6l-6-6zm0 6V1.5L18.5 6H14zM19 26z"/><path fill="#2CD240" d="M1 16h18v9H1z"/><path fill="#21A833" d="M19 25H1v-9H0v9c0 .55.45 1 1 1h18c.55 0 1-.45 1-1v-9h-1v9z"/></symbol><symbol id="pages"><path fill="#FFF" d="M14 0H1a1 1 0 0 0-1 1v24a1 1 0 0 0 1 1h18a1 1 0 0 0 1-1V6l-6-6z"/><path fill="none" d="M14 6h4.5L14 1.5z"/><path fill="#CCC" d="M0 25zM14 0H1a1 1 0 0 0-1 1v15h1V1h12v5c0 .55.45 1 1 1h5v9h1V6l-6-6zm0 6V1.5L18.5 6H14zM19 26z"/><path fill="#2C8FFF" d="M1 16h18v9H1z"/><path fill="#2272CC" d="M19 25H1v-9H0v9c0 .55.45 1 1 1h18c.55 0 1-.45 1-1v-9h-1v9z"/></symbol><symbol id="pdf"><path fill="#FFF" d="M14 0H1a1 1 0 0 0-1 1v24a1 1 0 0 0 1 1h18a1 1 0 0 0 1-1V6l-6-6z"/><path fill="none" d="M14 6h4.5L14 1.5z"/><path fill="#CCC" d="M0 25zM14 0H1a1 1 0 0 0-1 1v15h1V1h12v5c0 .55.45 1 1 1h5v9h1V6l-6-6zm0 6V1.5L18.5 6H14zM19 26z"/><path fill="#FF0708" d="M1 16h18v9H1z"/><path fill="#CC1604" d="M19 25H1v-9H0v9c0 .55.45 1 1 1h18c.55 0 1-.45 1-1v-9h-1v9z"/></symbol><symbol id="ppt"><path fill="#FFF" d="M14 0H1a1 1 0 0 0-1 1v24a1 1 0 0 0 1 1h18a1 1 0 0 0 1-1V6l-6-6z"/><path fill="none" d="M14 6h4.5L14 1.5z"/><path fill="#CCC" d="M0 25zM14 0H1a1 1 0 0 0-1 1v15h1V1h12v5c0 .55.45 1 1 1h5v9h1V6l-6-6zm0 6V1.5L18.5 6H14zM19 26z"/><path fill="#FDC831" d="M1 16h18v9H1z"/><path fill="#CAA028" d="M19 25H1v-9H0v9c0 .55.45 1 1 1h18c.55 0 1-.45 1-1v-9h-1v9z"/></symbol><symbol id="psd"><path fill="#FFF" d="M14 0H1a1 1 0 0 0-1 1v24a1 1 0 0 0 1 1h18a1 1 0 0 0 1-1V6l-6-6z"/><path fill="none" d="M14 6h4.5L14 1.5z"/><path fill="#CCC" d="M0 25zM1 1h12v5c0 .55.45 1 1 1h5v9h1V6l-6-6H1a1 1 0 0 0-1 1v15h1M14 6V1.5L18.5 6H14zM19 26z"/><path fill="#26C8EC" d="M1 16h18v9H1z"/><path fill="#1EA0BC" d="M19 25H1v-9H0v9c0 .55.45 1 1 1h18c.55 0 1-.45 1-1v-9h-1v9z"/></symbol><symbol id="site"><path fill="#FFF" d="M0 19c0 1.1.9 2 2 2h22c1.1 0 2-.9 2-2V2c0-1.1-.9-2-2-2H2C.9 0 0 .9 0 2v17z"/><path fill="#CCC" d="M24 0H2C.9 0 0 .9 0 2v17c0 1.1.9 2 2 2h22c1.1 0 2-.9 2-2V2c0-1.1-.9-2-2-2zm1 19c0 .551-.449 1-1 1H2c-.551 0-1-.449-1-1V3h24v16z"/><path fill="#CCC" d="M5 8h7v7H5zM14 14h7v1h-7zM14 12h7v1h-7zM14 10h7v1h-7zM14 8h7v1h-7z"/></symbol><symbol id="slide"><path fill="#FFF" d="M14 0H1a1 1 0 0 0-1 1v24a1 1 0 0 0 1 1h18a1 1 0 0 0 1-1V6l-6-6z"/><path fill="#CCC" d="M14 0H1a1 1 0 0 0-1 1v24a1 1 0 0 0 1 1h18a1 1 0 0 0 1-1V6l-6-6zm0 1.5L18.5 6H14V1.5zM19 25H1V1h12v5c0 .55.45 1 1 1h5v18z"/><path fill="#CCC" d="M6 12v2H4v7h10v-2h2v-7H6zm7 8H5v-5h8v5zm2-2h-1v-4H7v-1h8v5z"/></symbol><symbol id="snd"><path fill="#FFF" d="M14 0H1a1 1 0 0 0-1 1v24a1 1 0 0 0 1 1h18a1 1 0 0 0 1-1V6l-6-6z"/><g fill="#CCC"><path d="M14 0H1a1 1 0 0 0-1 1v24a1 1 0 0 0 1 1h18a1 1 0 0 0 1-1V6l-6-6zm0 1.5L18.5 6H14V1.5zM19 25H1V1h12v5c0 .55.45 1 1 1h5v18z"/><path d="M10 17.342c-.597-.258-1.409-.253-2.195.076-1.274.533-1.995 1.709-1.611 2.626.384.917 1.728 1.228 3.001.695 0 0 1.805-.63 1.805-2.739v-5.048L14.667 14 10 10v7.342z"/></g></symbol><symbol id="sql"><path fill="#FFF" d="M14 0H1a1 1 0 0 0-1 1v24a1 1 0 0 0 1 1h18a1 1 0 0 0 1-1V6l-6-6z"/><path fill="none" d="M14 6h4.5L14 1.5z"/><path fill="#CCC" d="M0 25zM1 1h12v5c0 .55.45 1 1 1h5v9h1V6l-6-6H1a1 1 0 0 0-1 1v15h1M14 6V1.5L18.5 6H14zM19 26z"/><path fill="#26C8EC" d="M1 16h18v9H1z"/><path fill="#1EA0BC" d="M19 25H1v-9H0v9c0 .55.45 1 1 1h18c.55 0 1-.45 1-1v-9h-1v9z"/></symbol><symbol id="swf"><path fill="#FFF" d="M14 0H1a1 1 0 0 0-1 1v24a1 1 0 0 0 1 1h18a1 1 0 0 0 1-1V6l-6-6z"/><path fill="none" d="M14 6h4.5L14 1.5z"/><path fill="#CCC" d="M0 25zM14 0H1a1 1 0 0 0-1 1v15h1V1h12v5c0 .55.45 1 1 1h5v9h1V6l-6-6zm0 6V1.5L18.5 6H14zM19 26z"/><path fill="#FF0708" d="M1 16h18v9H1z"/><path fill="#CC1604" d="M19 25H1v-9H0v9c0 .55.45 1 1 1h18c.55 0 1-.45 1-1v-9h-1v9z"/></symbol><symbol id="txt"><path fill="#FFF" d="M14 0H1a1 1 0 0 0-1 1v24a1 1 0 0 0 1 1h18a1 1 0 0 0 1-1V6l-6-6z"/><g fill="#CCC"><path d="M14 0H1a1 1 0 0 0-1 1v24a1 1 0 0 0 1 1h18a1 1 0 0 0 1-1V6l-6-6zm0 1.5L18.5 6H14V1.5zM19 25H1V1h12v5c0 .55.45 1 1 1h5v18z"/><path d="M5 11h10v1H5zM5 14h10v1H5zM5 17h10v1H5zM5 20h5v1H5z"/></g></symbol><symbol id="vid"><path fill="#FFF" d="M14 0H1a1 1 0 0 0-1 1v24a1 1 0 0 0 1 1h18a1 1 0 0 0 1-1V6l-6-6z"/><g fill="#CCC"><path d="M14 0H1a1 1 0 0 0-1 1v24a1 1 0 0 0 1 1h18a1 1 0 0 0 1-1V6l-6-6zm0 1.5L18.5 6H14V1.5zM19 25H1V1h12v5c0 .55.45 1 1 1h5v18z"/><path d="M8 19l6-3.5L8 12z"/></g></symbol><symbol id="xls"><path fill="#FFF" d="M14 0H1a1 1 0 0 0-1 1v24a1 1 0 0 0 1 1h18a1 1 0 0 0 1-1V6l-6-6z"/><path fill="none" d="M13 6V1H1v24h18V7h-5c-.55 0-1-.45-1-1z"/><path fill="none" d="M19 7h-5c-.55 0-1-.45-1-1V1H1v15h18V7z"/><path fill="none" d="M14 6h4.5L14 1.5z"/><path fill="#CCC" d="M0 25zM14 0H1a1 1 0 0 0-1 1v15h1V1h12v5c0 .55.45 1 1 1h5v9h1V6l-6-6zm0 6V1.5L18.5 6H14zM19 26z"/><path fill="#2CD240" d="M1 16h18v9H1z"/><path fill="#21A833" d="M19 25H1v-9H0v9c0 .55.45 1 1 1h18c.55 0 1-.45 1-1v-9h-1v9z"/></symbol><symbol id="zip"><path fill="#FFF" d="M14 0H1a1 1 0 0 0-1 1v24a1 1 0 0 0 1 1h18a1 1 0 0 0 1-1V6l-6-6z"/><g fill="#CCC"><path d="M14 0H1a1 1 0 0 0-1 1v24a1 1 0 0 0 1 1h18a1 1 0 0 0 1-1V6l-6-6zm0 1.5L18.5 6H14V1.5zM19 25H1V1h12v5c0 .55.45 1 1 1h5v18z"/><path d="M8 16h2v1H8zM10 15h2v1h-2zM8 14h2v1H8zM10 13h2v1h-2zM8 12h2v1H8zM10 11h2v1h-2zM8 10h2v1H8zM8 8h2v1H8zM10 9h2v1h-2zM8 24h4v-6H8v6zm1-5h2v2H9v-2z"/></g></symbol></svg>