<svg xmlns="http://www.w3.org/2000/svg"><symbol id="icon--add" viewBox="0 0 10 10"><title>icon_add</title><path fill="currentColor" d="M10 4H6V0H4v4H0v2h4v4h2V6h4V4z"/></symbol><symbol id="icon--arrow-external" viewBox="0 0 8 8"><title>arrow-external</title><path fill="currentColor" d="M6.167 1.014h-3.9L2.28 0H8v5.72H6.973V1.833L1.59 7.215.785 6.41l5.382-5.395z"/></symbol><symbol id="icon--arrow-sort" viewBox="0 0 9 11"><title>arrow-sort</title><path fill="currentColor" d="M5.072 8.043l2.756-2.756.715.728L4.5 10.058.457 6.015l.728-.728 2.743 2.756V.425h1.144v7.618z"/></symbol><symbol id="icon--check" viewBox="0 0 11 11"><title>check</title><path fill="none" stroke="currentColor" stroke-width="1.5" stroke-miterlimit="10" d="M1.333 5.77L3.61 8.994 9.583.84"/></symbol><symbol id="icon--close_icon" viewBox="0 0 10 10"><title>close_icon</title><path stroke="currentColor" d="M1 1l8 8m0-8L1 9" fill="none" stroke-miterlimit="10" stroke-width="1.5"/></symbol><symbol id="icon--close_modal" viewBox="0 0 16 16"><title>close_modal</title><path stroke="currentColor" d="M1 1l14 14m0-14L1 15" fill="none" stroke-miterlimit="10" stroke-width="1.5"/></symbol><symbol id="icon--colors" viewBox="-0.2 -0.2 17 17"><title>colors</title><circle cx="8.3" cy="3.8" r="3.8" fill="currentColor"/><circle cx="3.8" cy="12.8" r="3.8" fill="currentColor"/><circle cx="12.8" cy="12.8" r="3.8" fill="currentColor"/></symbol><symbol id="icon--content-editor" viewBox="0 0 14 13"><title>content-editor</title><path fill="currentColor" d="M0 9h14v1H0zm0 3h14v1H0zM0 0h13.9v7H0z"/></symbol><symbol id="icon--crop" viewBox="0 0 16 18"><title>icon_crop</title><path fill="currentColor" d="M3 0h2v3H3zm8 15h2v3h-2zm0-4h2V4H0v2h11v5z"/><path fill="currentColor" d="M5 12V7H3v7h13v-2H5z"/></symbol><symbol id="icon--download" viewBox="0 0 12 16"><title>icon_download</title><path fill="currentColor" d="M5 0h2v11H5z"/><path fill="none" stroke="currentColor" stroke-miterlimit="10" stroke-width="1.5" d="M11 7.021l-5 5-5-5"/><path fill="currentColor" d="M0 15h12v1H0z"/></symbol><symbol id="icon--drag" viewBox="0 0 8 17"><title>icon_drag</title><path fill="currentColor" d="M6.947 5.053L4 2.105 1.053 5.053 0 4l4-4 4 4zM4 16.872l-4-4 1.053-1.052L4 14.767l2.947-2.947L8 12.872z"/><path fill="currentColor" d="M3 2h2v13H3z"/></symbol><symbol id="icon--dropdown_default" viewBox="0 0 9 5"><title>dropdown_default</title><path d="M.5.1l4 4 4-4h-8z"/></symbol><symbol id="icon--dropdown_module" viewBox="0 0 10 6"><title>dropdown_module</title><path fill="none" stroke="currentColor" d="M1 1l4 4 4-4"/></symbol><symbol id="icon--edit_large" viewBox="0 0 14 14"><title>edit_large</title><path fill="currentColor" d="M0 11.51v2.556h2.556zm14.252-9.101L4.158 12.132l-2.41-2.41L11.842 0z"/></symbol><symbol id="icon--edit" viewBox="0 0 13 13"><title>edit</title><path fill="currentColor" d="M.172 10.444V13h2.556zm1.407-1.131L10.264.628l2.409 2.41-8.685 8.684z"/></symbol><symbol id="icon--editor" viewBox="0 0 14 13"><title>icon_editor</title><path fill="currentColor" d="M0 9h14v1H0zm0 3h14v1H0zM0 0h14v7H0z"/></symbol><symbol id="icon--expand" viewBox="0 0 10 10"><title>icon_expand</title><path fill="currentColor" d="M10 0H4v2h4v4h2V0zM0 4h2v4h4v2H0V4z"/></symbol><symbol id="icon--fix-grid" viewBox="0 0 18 14"><title>fix-grid</title><path fill="currentColor" d="M10 0h8v6h-8zM0 0h8v6H0zm0 8h8v6H0zm10 0h8v6h-8z"/></symbol><symbol id="icon--flex-grid" viewBox="0 0 18 17"><title>flex-grid</title><path d="M0 0h8v5H0zm10 11h8v6h-8zM0 7h8v7H0zm10-7h8v9h-8z" fill="currentColor"/></symbol><symbol id="icon--google-sign-in" viewBox="0 0 23 24"><title>google-sign-in</title><path fill="#4285F4" d="M21.789 10.133H12V14h5.551c-.243 1.312-.983 2.61-2.095 3.355l3.393 2.635c1.985-1.828 3.131-4.52 3.131-7.718 0-.745-.067-1.451-.191-2.139z"/><path fill="#34A853" d="M15.456 17.355c-.94.63-2.143 1.002-3.556 1.002-2.735 0-5.05-1.847-5.875-4.329l-3.508 2.72a10.496 10.496 0 009.383 5.785c2.835 0 5.212-.94 6.949-2.544l-3.393-2.634z"/><path fill="#FBBC05" d="M6.025 10.038l-3.508-2.72A10.495 10.495 0 001.4 12.033c0 1.694.406 3.298 1.117 4.715l3.508-2.72a6.312 6.312 0 01-.329-1.995 6.284 6.284 0 01.329-1.995z"/><path fill="#EA4335" d="M11.9 1.533a10.495 10.495 0 00-9.383 5.785l3.508 2.72c.825-2.482 3.14-4.329 5.875-4.329 1.542 0 2.926.53 4.014 1.57l3.012-3.012C17.107 2.574 14.73 1.533 11.9 1.533z"/></symbol><symbol id="icon--image-text" viewBox="0 0 30 13"><title>image-text</title><path fill="currentColor" d="M17 0h13v1H17zm0 3h13v1H17zm0 3h13v1H17zm0 3h13v1H17zm0 3h7v1h-7zM0 0h13v13H0z"/></symbol><symbol id="icon--image" viewBox="0 0 19 15"><title>image</title><g fill="currentColor"><path d="M11.512 5.282l-4.695 6.742L5.1 9.628a.491.491 0 00-.847 0L.5 14.843H19l-6.659-9.561a.472.472 0 00-.829 0z"/><circle cx="5" cy="3" r="2.85"/></g></symbol><symbol id="icon--info" viewBox="0 0 21 21"><title>icon_info</title><path fill="currentColor" d="M9.8 14.488a22.887 22.887 0 00.135-3.1c0-.557.03-1.281.03-2.2 0-.679-.1-.588-1.356-.648V8.3c1-.029 2.189-.09 3.183-.18-.09 2.456-.12 4.007-.12 4.625a7.494 7.494 0 00.075 1.778c.076.1.467.166 1.175.241V15c-.934-.03-1.812-.06-2.2-.06-.527 0-1.25.03-2.139.06v-.241c.781-.059 1.157-.091 1.217-.271zM10.9 4.8a1.1 1.1 0 11-.016 2.2A1.154 1.154 0 019.8 5.9a1.132 1.132 0 011.1-1.1z"/></symbol><symbol id="icon--location" viewBox="0 0 12 16"><title>location</title><path d="M6 1a4.821 4.821 0 00-5 4.621C1 8.174 6 15.009 6 15s5-6.826 5-9.379A4.821 4.821 0 006 1zm0 7.02A2.02 2.02 0 118.02 6 2.02 2.02 0 016 8.02z" fill="currentColor"/></symbol><symbol id="icon--media-grid" viewBox="0 0 12 12"><title>media-grid</title><path fill="currentColor" d="M0 0h5v5H0zm7 0h5v5H7zM0 7h5v5H0zm7 0h5v5H7z"/></symbol><symbol id="icon--media-list" viewBox="0 0 16 10"><title>media-list</title><path d="M4 0h12v2H4zm0 4h12v2H4zm0 4h12v2H4zM0 0h2v2H0zm0 4h2v2H0zm0 4h2v2H0z" fill="currentColor"/></symbol><symbol id="icon--more-dots" viewBox="0 0 14 4"><title>icon_more-dots</title><circle cx="2" cy="2" r="1.4" fill="currentColor"/><circle cx="7" cy="2" r="1.4" fill="currentColor"/><circle cx="12" cy="2" r="1.4" fill="currentColor"/></symbol><symbol id="icon--pagination_left" viewBox="0 0 9 15"><title>pagination_left</title><path stroke="currentColor" fill="none" stroke-linejoin="round" stroke-width="2" d="M8 14L1.5 7.5 8 1"/></symbol><symbol id="icon--pagination_right" viewBox="0 0 9 15"><title>pagination_right</title><path stroke="currentColor" fill="none" stroke-linejoin="round" stroke-width="2" d="M1 14l6.5-6.5L1 1"/></symbol><symbol id="icon--preferences" viewBox="0 0 26 16"><title>preferences</title><path d="M20.8 7c-.44 0-.575.281-.3.625l2 2.5a.613.613 0 001 0l2-2.5c.275-.344.14-.625-.3-.625zm-6.578-2.96a.8.8 0 000-1.131l-1.13-1.13a.8.8 0 00-1.131 0l-1.796 1.793c-.311.311-.566.206-.566-.234V.8A.8.8 0 008.8 0H7.2a.8.8 0 00-.8.8v2.538c0 .44-.255.545-.566.234L4.04 1.778a.8.8 0 00-1.132 0L1.777 2.909a.8.8 0 000 1.131L3.57 5.835c.311.311.206.566-.234.566H.8a.8.8 0 00-.8.8V8.8a.8.8 0 00.8.8h2.538c.44 0 .545.255.234.566L1.778 11.96a.8.8 0 000 1.131l1.13 1.13a.8.8 0 001.131 0l1.794-1.794c.311-.311.566-.206.566.234V15.2a.8.8 0 00.8.8H8.8a.8.8 0 00.8-.8v-2.536c0-.44.255-.545.566-.234l1.794 1.794a.8.8 0 001.131 0l1.131-1.132a.8.8 0 000-1.132l-1.794-1.794c-.311-.311-.206-.566.234-.566H15.2a.8.8 0 00.8-.8V7.2a.8.8 0 00-.8-.8h-2.538c-.44 0-.545-.255-.234-.566zM8 10.4A2.4 2.4 0 1110.4 8 2.4 2.4 0 018 10.4z" fill="currentColor"/></symbol><symbol id="icon--preview-desktop" viewBox="0 0 39 30"><title>Artboard 167</title><path d="M37 1a1 1 0 011 1v26a1 1 0 01-1 1H2a1 1 0 01-1-1V2a1 1 0 011-1h35m0-1H2a2.006 2.006 0 00-2 2v26a2.006 2.006 0 002 2h35a2.006 2.006 0 002-2V2a2.006 2.006 0 00-2-2z" fill="currentColor"/></symbol><symbol id="icon--preview-mobile" viewBox="0 0 12 18"><title>preview-mobile</title><path d="M10 1a1 1 0 011 1v14a1 1 0 01-1 1H2a1 1 0 01-1-1V2a1 1 0 011-1h8m0-1H2a2.006 2.006 0 00-2 2v14a2.006 2.006 0 002 2h8a2.006 2.006 0 002-2V2a2.006 2.006 0 00-2-2z" fill="currentColor"/><path d="M6 13a1 1 0 101 1 1 1 0 00-1-1z" fill="currentColor"/></symbol><symbol id="icon--preview-tablet-h" viewBox="0 0 27 20"><title>preview-tablet-h</title><path d="M25 1a1 1 0 011 1v16a1 1 0 01-1 1H2a1 1 0 01-1-1V2a1 1 0 011-1h23m0-1H2a2.006 2.006 0 00-2 2v16a2.006 2.006 0 002 2h23a2.006 2.006 0 002-2V2a2.006 2.006 0 00-2-2z" fill="currentColor"/><path d="M23 10a1 1 0 101 1 1 1 0 00-1-1z" fill="currentColor"/></symbol><symbol id="icon--preview-tablet-v" viewBox="0 0 20 27"><title>preview-tablet-v</title><path d="M18 1a1 1 0 011 1v23a1 1 0 01-1 1H2a1 1 0 01-1-1V2a1 1 0 011-1h16m0-1H2a2.006 2.006 0 00-2 2v23a2.006 2.006 0 002 2h16a2.006 2.006 0 002-2V2a2.006 2.006 0 00-2-2z" fill="currentColor"/><path d="M10 22a1 1 0 101 1 1 1 0 00-1-1z" fill="currentColor"/></symbol><symbol id="icon--preview" viewBox="0 0 22 14"><title>icon_preview</title><path d="M10.986.193C5.259.193.6 7 .6 7s3.938 6.794 10.386 6.794C16.825 13.793 21.4 7 21.4 7S16.8.193 10.986.193zM11 11.55A4.55 4.55 0 1115.55 7 4.55 4.55 0 0111 11.55z" fill="currentColor"/><circle cx="11" cy="7" r="2.9" fill="currentColor"/></symbol><symbol id="icon--publish" viewBox="0 0 22 15"><title>icon_publish</title><path d="M10.987 1.494C5.48 1.494 1 8 1 8s3.787 6.494 9.987 6.494C16.6 14.494 21 8 21 8s-4.419-6.506-10.013-6.506z" stroke="currentColor" fill="none" stroke-miterlimit="10"/><circle cx="11" cy="8" r="3" fill="currentColor"/></symbol><symbol id="icon--quote" viewBox="0 0 16 13"><title>icon_quote</title><path d="M6 0H3.01L0 6.467V12a1 1 0 001 1h5a1 1 0 001-1V8a1 1 0 00-1-1H3zm6 7l3-7h-2.99L9 6.467V12a1 1 0 001 1h5a1 1 0 001-1V8a1 1 0 00-1-1z" fill="currentColor"/></symbol><symbol id="icon--revision-compare" viewBox="0 0 23 16"><title>revision-compare</title><path d="M22 14a1 1 0 01-1 1H2a1 1 0 01-1-1V2a1 1 0 011-1h19a1 1 0 011 1v12m1 0V2a2.006 2.006 0 00-2-2H2a2.006 2.006 0 00-2 2v12a2.006 2.006 0 002 2h19a2.006 2.006 0 002-2zm-12 0H2V2h9zm10 0h-9V2h9z" fill="currentColor"/></symbol><symbol id="icon--revision-single" viewBox="0 0 23 16"><title>revision-single</title><path d="M22 14a1 1 0 01-1 1H2a1 1 0 01-1-1V2a1 1 0 011-1h19a1 1 0 011 1v12m1 0V2a2.006 2.006 0 00-2-2H2a2.006 2.006 0 00-2 2v12a2.006 2.006 0 002 2h19a2.006 2.006 0 002-2zm-2 0H2V2h19z" fill="currentColor"/></symbol><symbol id="icon--search" viewBox="0 0 20 20"><title>search</title><path d="M8.5 2.55A5.95 5.95 0 112.55 8.5 5.957 5.957 0 018.5 2.55m0-1.4a7.35 7.35 0 107.35 7.35A7.35 7.35 0 008.5 1.15z" fill="currentColor"/><path fill="none" stroke="currentColor" stroke-width="2" d="M13.119 13.119l4.524 4.524"/></symbol><symbol id="icon--slideshow" viewBox="0 0 20 16"><title>slideshow</title><path d="M4 0v4H0v12h16v-5h4V0zm11 5v10H1V5zm4 5h-3V4H5V1h14z" fill="currentColor"/></symbol><symbol id="icon--star-feature_active" viewBox="0 0 20 19"><title>icon_star-feature</title><path fill="currentColor" d="M10 .863l2.277 6.239L19 7.309l-5.316 4.063 1.877 6.366L10 14.014l-5.562 3.724 1.877-6.366L1 7.309l6.723-.207z"/></symbol><symbol id="icon--star-feature" viewBox="0 0 20 19"><title>icon_star-feature</title><path d="M10 4.654l1.056 2.893.3.827.879.027 3.069.1-2.412 1.843-.71.543.253.858.86 2.917-2.574-1.723L10 12.45l-.723.484L6.7 14.658l.861-2.918.253-.858-.71-.543L4.693 8.5l3.07-.1.879-.027.3-.827L10 4.654m0-3.792L7.723 7.1 1 7.309l5.315 4.063-1.877 6.365L10 14.014l5.561 3.723-1.877-6.365L19 7.309 12.277 7.1 10 .862z" fill="currentColor"/></symbol><symbol id="icon--text-2col" viewBox="0 0 26 13"><title>text-2col</title><path fill="currentColor" d="M0 0h11v1H0zm0 6h11v1H0zm15-3h11v1H15z"/><path fill="currentColor" d="M0 0h11v1H0zm0 3h11v1H0zm15-3h11v1H15zm0 6h11v1H15zm0 3h11v1H15zM0 12h8v1H0zm0-3h11v1H0zm15 3h8v1h-8z"/></symbol><symbol id="icon--text" viewBox="0 0 17 13"><title>icon_text</title><path fill="currentColor" d="M0 0h17v1H0zm0 4h17v1H0zm0 4h17v1H0zm0 4h8v1H0z"/></symbol><symbol id="icon--trash" viewBox="0 0 15 17"><title>icon_trash</title><path d="M12 2h-1V0H4v2H0v2h1v11a2.006 2.006 0 002 2h9a2.006 2.006 0 002-2V4h1V2zM5 1h5v1H5zm7 14H3V4h9z" fill="currentColor"/><path fill="currentColor" d="M5 6h1v7H5zm2 0h1v7H7zm2 0h1v7H9z"/></symbol><symbol fill="none" id="icon--video" viewBox="0 0 23 23"><title>video</title><circle cx="11.5" cy="11.5" r="11" stroke="currentColor" fill="transparent" fill-opacity="0"/><path d="M9 15.8V7l7.543 4.4L9 15.8z" fill="currentColor"/></symbol><symbol id="icon--website" viewBox="0 0 26 21"><title>website</title><path fill="transparent" fill-opacity="0" d="M0 19c0 1.1.9 2 2 2h22c1.1 0 2-.9 2-2V2c0-1.1-.9-2-2-2H2C.9 0 0 .9 0 2v17z"/><path fill="currentColor" d="M24 0H2C.9 0 0 .9 0 2v17c0 1.1.9 2 2 2h22c1.1 0 2-.9 2-2V2c0-1.1-.9-2-2-2zm1 19c0 .551-.449 1-1 1H2c-.551 0-1-.449-1-1V3h24v16z"/><path fill="currentColor" d="M5 8h7v7H5zm9 6h7v1h-7zm0-2h7v1h-7zm0-2h7v1h-7zm0-2h7v1h-7z"/></symbol><symbol fill="none" id="icon--wysiwyg_anchor" viewBox="0 0 18 18"><title>wysiwyg_anchor</title><path d="M5.265 4H4v10h1.265V4zm5.758 10C14.205 14 16 12.105 16 8.98 16 5.875 14.205 4 11.166 4H7.8v10h3.223zm-1.958-1.074V5.074h2.02c2.447 0 3.691 1.485 3.691 3.906 0 2.442-1.244 3.946-3.835 3.946H9.066z" fill="currentColor"/></symbol><symbol id="icon--wysiwyg_bold" viewBox="0 0 12 13"><title>wysiwyg_bold</title><path fill="currentColor" d="M.331 12.413c.513-.019.881-.087 1.104-.205.377-.197.566-.575.566-1.131V1.874c0-.553-.176-.925-.529-1.115C1.262.642.882.569.331.538V.055h5.873c1.131 0 2.071.13 2.82.39 1.41.489 2.115 1.38 2.115 2.672 0 .785-.286 1.408-.858 1.869a4.134 4.134 0 01-1.86.877v.176c.705.136 1.317.365 1.837.687 1.014.63 1.521 1.509 1.521 2.634 0 1.052-.486 1.904-1.456 2.557-.971.652-2.264.978-3.878.978H.33v-.482zm7.07-7.172c.401-.383.602-1.063.602-2.04 0-.724-.13-1.333-.394-1.828C7.346.878 6.84.63 6.092.63c-.396 0-.671.067-.825.2-.155.133-.232.373-.232.719v4.267c1.174 0 1.963-.191 2.365-.575zm-2.218 6.634c.154.272.451.408.89.408.897 0 1.527-.244 1.888-.733.363-.488.543-1.184.543-2.088 0-1.348-.399-2.245-1.196-2.69-.483-.272-1.24-.399-2.273-.38v4.75c.006.334.055.578.148.733z"/></symbol><symbol id="icon--wysiwyg_header-2" viewBox="0 0 18 18"><title>wysiwyg_header-2</title><path fill="currentColor" d="M16.74 13.814v.44a.54.54 0 01-.605.605h-4.28a.584.584 0 01-.649-.605v-.241c0-2.906 3.4-3.422 3.4-4.555a.777.777 0 00-.848-.781 1.177 1.177 0 00-.836.385c-.275.263-.56.374-.858.131l-.429-.34c-.308-.243-.385-.518-.154-.815a2.972 2.972 0 012.454-1.177 2.454 2.454 0 012.684 2.41c0 2.453-3.18 2.926-3.279 3.938h2.795a.54.54 0 01.605.605zM9 3a1 1 0 00-1 1v4H3V4a1 1 0 00-2 0v10a1 1 0 002 0v-4h5v4a1 1 0 002 0V4a1 1 0 00-1-1z"/></symbol><symbol id="icon--wysiwyg_header-3" viewBox="0 0 18 18"><title>wysiwyg_header-3</title><path fill="currentColor" d="M16.652 12.307a2.674 2.674 0 01-2.915 2.684 3.966 3.966 0 01-2.256-.67.56.56 0 01-.132-.837l.297-.484c.21-.34.484-.363.825-.154a2.327 2.327 0 001.123.33c.715 0 1.122-.352 1.122-.781 0-.616-.616-.869-1.464-.869h-.043a.652.652 0 01-.683-.419l-.055-.109a.671.671 0 01.143-.781l.716-.87a8.553 8.553 0 01.682-.737v-.02a3.94 3.94 0 01-.748.055h-1.277a.54.54 0 01-.605-.606v-.44a.54.54 0 01.605-.605h3.752a.538.538 0 01.605.594v.177a1.037 1.037 0 01-.275.748l-1.32 1.517a2.311 2.311 0 011.903 2.278zM9 3a1 1 0 00-1 1v4H3V4a1 1 0 00-2 0v10a1 1 0 002 0v-4h5v4a1 1 0 002 0V4a1 1 0 00-1-1z"/></symbol><symbol id="icon--wysiwyg_header-4" viewBox="0 0 18 18"><title>wysiwyg_header-4</title><path fill="currentColor" d="M10 4v10a1 1 0 01-2 0v-4H3v4a1 1 0 01-2 0V4a1 1 0 012 0v4h5V4a1 1 0 012 0zm7.054 7.966v.385c0 .396-.165.605-.462.605h-.473v1.298a.54.54 0 01-.605.605h-.694a.54.54 0 01-.605-.605v-1.298h-2.882a.541.541 0 01-.605-.605v-.154a1.199 1.199 0 01.22-.748l2.563-4.06a.782.782 0 01.726-.396h1.277a.54.54 0 01.605.606v3.762h.33a.54.54 0 01.605.605zM14.28 8.72h-.022a4.19 4.19 0 01-.385.813l-1.188 1.805v.022h1.53V9.6a7.04 7.04 0 01.065-.88z"/></symbol><symbol id="icon--wysiwyg_header-5" viewBox="0 0 18 18"><title>wysiwyg_header-5</title><path fill="currentColor" d="M16.74 12.186a2.751 2.751 0 01-2.915 2.805 3.908 3.908 0 01-2.256-.681.548.548 0 01-.132-.826l.297-.484c.21-.34.484-.363.826-.154a2.238 2.238 0 001.1.33 1.018 1.018 0 001.1-.968c0-.616-.54-.98-1.255-.98a2.156 2.156 0 00-.649.1 1.152 1.152 0 01-.814.01l-.12-.043a.641.641 0 01-.452-.715l.231-3.004a.567.567 0 01.628-.583h3.212a.54.54 0 01.605.606v.44a.54.54 0 01-.605.605h-2.124l-.043.725a1.293 1.293 0 01-.044.309h.022a2.398 2.398 0 01.572-.077 2.533 2.533 0 012.816 2.585zM9 3a1 1 0 00-1 1v4H3V4a1 1 0 00-2 0v10a1 1 0 002 0v-4h5v4a1 1 0 002 0V4a1 1 0 00-1-1z"/></symbol><symbol id="icon--wysiwyg_header-6" viewBox="0 0 18 18"><title>wysiwyg_header-6</title><path fill="currentColor" d="M14.518 9.645a1.856 1.856 0 00-1.244.384h-.022a1.735 1.735 0 011.728-1.408 2.665 2.665 0 01.55.067c.352.054.572.01.704-.408l.164-.516a.534.534 0 00-.373-.76 4.837 4.837 0 00-1.177-.143c-2.432 0-3.763 2.178-3.763 4.434 0 2.476 1.606 3.696 3.19 3.696a2.706 2.706 0 002.685-2.794 2.439 2.439 0 00-2.442-2.552zm-.23 3.586c-.673 0-1.223-.814-1.223-1.452 0-.473.308-.583.726-.583.969 0 1.277.594 1.277 1.122a.822.822 0 01-.78.913zM10 4v10a1 1 0 01-2 0v-4H3v4a1 1 0 01-2 0V4a1 1 0 012 0v4h5V4a1 1 0 012 0z"/></symbol><symbol id="icon--wysiwyg_header" viewBox="0 0 18 18"><title>wysiwyg_header</title><path fill="currentColor" d="M10 4v10a1 1 0 01-2 0v-4H3v4a1 1 0 01-2 0V4a1 1 0 012 0v4h5V4a1 1 0 012 0zm6.068 9.209H14.99v-5.61a.54.54 0 00-.605-.606h-.628a1.011 1.011 0 00-.748.297l-1.364 1.276a.543.543 0 00-.022.859l.286.307a.539.539 0 00.847.034l.1-.088a1.214 1.214 0 00.241-.353h.023s-.012.309-.012.606v3.278h-1.067a.54.54 0 00-.605.605v.44a.54.54 0 00.605.605h4.027a.54.54 0 00.605-.605v-.44a.54.54 0 00-.605-.605z"/></symbol><symbol id="icon--wysiwyg_italic" viewBox="0 0 10 13"><title>wysiwyg_italic</title><path fill="currentColor" d="M.96 12.497c.476-.056.827-.17 1.055-.34.228-.169.417-.518.567-1.045l2.457-8.72c.07-.247.125-.455.16-.622.036-.168.054-.315.054-.442C5.253 1 5.16.792 4.97.707 4.781.622 4.387.554 3.79.503V0h5.956v.503c-.489.063-.842.177-1.06.342s-.402.515-.552 1.053l-2.466 8.72-.157.67a3.343 3.343 0 00-.034.194 1.26 1.26 0 00-.015.184c0 .328.092.536.274.623.182.089.576.158 1.181.208V13H.96v-.503z"/></symbol><symbol id="icon--wysiwyg_link" viewBox="0 0 21 10"><title>wysiwyg_link</title><path fill="currentColor" d="M16 0h-4v2h4c1.654 0 3 1.346 3 3s-1.346 3-3 3h-4v2h4c2.75 0 5-2.25 5-5s-2.25-5-5-5zM2 5c0-1.654 1.346-3 3-3h4V0H5C2.25 0 0 2.25 0 5s2.25 5 5 5h4V8H5C3.346 8 2 6.654 2 5z"/><path fill="currentColor" d="M6 4h9v2H6z"/></symbol><symbol id="icon--wysiwyg_underline" viewBox="0 0 12 13"><title>wysiwyg_underline</title><path fill="currentColor" d="M6.089.003v.486c-.62.02-1.034.116-1.242.287-.209.171-.313.562-.313 1.174v4.36c0 .814.096 1.443.29 1.886.348.825 1.017 1.237 2.007 1.237 1.229 0 2.06-.456 2.492-1.368.24-.501.36-1.202.36-2.104V2.067c0-.573-.106-.967-.317-1.184C9.156.667 8.742.536 8.128.49V.003h3.516v.486c-.511.099-.848.22-1.012.363-.164.144-.246.473-.246.988v4.118c0 1.359-.328 2.409-.985 3.148-.656.74-1.687 1.11-3.093 1.11-1.84 0-3.097-.55-3.774-1.65-.36-.584-.539-1.337-.539-2.26V1.95c0-.601-.08-.98-.238-1.135C1.597.66 1.24.55.683.489V.003h5.406zM0 12h12v1H0z"/></symbol></svg>