<svg width="45" height="35" viewBox="0 0 45 35" fill="none" xmlns="http://www.w3.org/2000/svg">
<path d="M23.89 1C23.2125 1 23.2864 1.03409 22.7296 1.42353L9.39506 10.5275H2.82671C0.700099 10.5275 1.01666 11.2547 1.01666 13.3954V21.5932C1.01666 23.734 0.700665 24.4757 2.82671 24.4204H9.39506L22.4752 33.3541C23.0321 33.7423 23.2128 33.9521 23.8904 33.9521C26.5055 33.9521 25.9622 31.8154 25.9622 29.1827V5.76637C25.9622 3.13379 26.5056 1.00081 23.8904 1.00081L23.89 1Z" stroke="currentColor" stroke-width="0.999982"/>
<path d="M38.479 29.5732C41.9989 26.7304 44.2548 22.3622 44.2548 17.4677C44.2548 12.5733 41.9988 8.20525 38.479 5.3623" stroke="currentColor" stroke-width="0.999982" stroke-linecap="round"/>
<path d="M34.624 23.2616C35.7973 21.8963 36.5493 19.7981 36.5493 17.4473C36.5493 15.0965 35.7973 12.9983 34.624 11.6328" stroke="currentColor" stroke-width="0.999982" stroke-linecap="round"/>
</svg>
