<svg width="28" height="28" viewBox="0 0 28 28" fill="none" xmlns="http://www.w3.org/2000/svg">
<path d="M18 9C18 11.2091 16.2091 13 14 13C11.7909 13 10 11.2091 10 9C10 6.79086 11.7909 5 14 5C16.2091 5 18 6.79086 18 9Z" fill="currentColor"/>
<path d="M13 18C13 20.2091 11.2091 22 9 22C6.79086 22 5 20.2091 5 18C5 15.7909 6.79086 14 9 14C11.2091 14 13 15.7909 13 18Z" fill="currentColor"/>
<path d="M23 18C23 20.2091 21.2091 22 19 22C16.7909 22 15 20.2091 15 18C15 15.7909 16.7909 14 19 14C21.2091 14 23 15.7909 23 18Z" fill="currentColor"/>
</svg>
