<svg width="28" height="28" viewBox="0 0 28 28" fill="none" xmlns="http://www.w3.org/2000/svg">
<path d="M16 10.2H19.5C21.3225 10.2 22.8 11.6775 22.8 13.5C22.8 15.3225 21.3225 16.8 19.5 16.8H16V18H19.5C21.9853 18 24 15.9853 24 13.5C24 11.0147 21.9853 9 19.5 9H16V10.2Z" fill="currentColor"/>
<path d="M12 10.2V9H8.5C6.01472 9 4 11.0147 4 13.5C4 15.9853 6.01472 18 8.5 18H12V16.8H8.5C6.67746 16.8 5.2 15.3225 5.2 13.5C5.2 11.6775 6.67746 10.2 8.5 10.2H12Z" fill="currentColor"/>
<path d="M10 13H18V14H10V13Z" fill="currentColor"/>
</svg>
