<svg width="28" height="28" viewBox="0 0 28 28" fill="none" xmlns="http://www.w3.org/2000/svg">
<path d="M12 7H0V8H12V7Z" fill="currentColor"/>
<path d="M12 10H0V11H12V10Z" fill="currentColor"/>
<path d="M12 13H0V14H12V13Z" fill="currentColor"/>
<path d="M12 16H0V17H12V16Z" fill="currentColor"/>
<path d="M6 19H0V20H6V19Z" fill="currentColor"/>
<path d="M12 7H0V8H12V7Z" fill="currentColor"/>
<path d="M12 10H0V11H12V10Z" fill="currentColor"/>
<path d="M12 13H0V14H12V13Z" fill="currentColor"/>
<path d="M12 16H0V17H12V16Z" fill="currentColor"/>
<path d="M6 19H0V20H6V19Z" fill="currentColor"/>
<path d="M28 7H16V8H28V7Z" fill="currentColor"/>
<path d="M28 10H16V11H28V10Z" fill="currentColor"/>
<path d="M28 13H16V14H28V13Z" fill="currentColor"/>
<path d="M28 16H16V17H28V16Z" fill="currentColor"/>
<path d="M21 19H16V20H21V19Z" fill="currentColor"/>
<path d="M28 7H16V8H28V7Z" fill="currentColor"/>
<path d="M28 10H16V11H28V10Z" fill="currentColor"/>
<path d="M28 13H16V14H28V13Z" fill="currentColor"/>
<path d="M28 16H16V17H28V16Z" fill="currentColor"/>
<path d="M21 19H16V20H21V19Z" fill="currentColor"/>
</svg>
