<svg width="28" height="28" viewBox="0 0 28 28" fill="none" xmlns="http://www.w3.org/2000/svg">
<path fill-rule="evenodd" clip-rule="evenodd" d="M14 22.8C18.8601 22.8 22.8 18.8601 22.8 14C22.8 9.13989 18.8601 5.2 14 5.2C9.13989 5.2 5.2 9.13989 5.2 14C5.2 18.8601 9.13989 22.8 14 22.8ZM14 24C19.5228 24 24 19.5228 24 14C24 8.47715 19.5228 4 14 4C8.47715 4 4 8.47715 4 14C4 19.5228 8.47715 24 14 24Z" fill="currentColor"/>
<path d="M12.0541 18.0194V9.98047L18.4375 14L12.0541 18.0194Z" fill="currentColor"/>
</svg>
