<svg width="21" height="14" viewBox="0 0 21 14" fill="none" xmlns="http://www.w3.org/2000/svg">
<path d="M13.0086 3.16501L13.0086 3.16496C13.0198 3.14874 13.0297 3.13747 13.0375 3.12982C13.0453 3.13747 13.0552 3.14874 13.0664 3.16496L13.0665 3.16501L19.0482 11.8063C19.2778 12.1379 19.0404 12.5909 18.6371 12.5909H2.85257C2.44587 12.5909 2.20931 12.1312 2.44573 11.8002L5.29441 7.81279L5.29442 7.81279C5.31284 7.787 5.32808 7.77356 5.33699 7.76709C5.34589 7.77356 5.36114 7.787 5.37956 7.81279L5.7864 7.52214L5.37956 7.81279L7.20689 10.3706L7.62018 10.9491L8.02484 10.3646L13.0086 3.16501Z" stroke="#666666"/>
<circle cx="6.47279" cy="2.29091" r="1.79091" stroke="#666666"/>
</svg>
