<svg width="24" height="19" viewBox="0 0 24 19" fill="none" xmlns="http://www.w3.org/2000/svg">
<path d="M12.889 1C12.537 1 12.5754 1.01816 12.2862 1.21851L5.36031 5.91601H1.94879C0.844241 5.91601 1.00865 6.45878 1.00865 7.56334V11.4369C1.00865 12.5415 0.844619 13.1128 1.94879 13.0843H5.36031L12.1539 17.6937C12.4431 17.894 12.537 18.0023 12.8889 18.0023C14.2472 18.0023 13.965 16.8998 13.965 15.5414V3.45917C13.965 2.10083 14.2472 1.0002 12.8889 1.0002L12.889 1Z" stroke="currentColor" stroke-width="0.999974"/>
<path d="M20.4629 15.7439C22.2911 14.2771 23.4629 12.0232 23.4629 9.49793C23.4629 6.97256 22.2911 4.71877 20.4629 3.25195" stroke="currentColor" stroke-width="0.999974" stroke-linecap="round"/>
<path d="M18.4636 12.497C19.073 11.7925 19.4636 10.71 19.4636 9.49705C19.4636 8.2841 19.073 7.20156 18.4636 6.49707" stroke="currentColor" stroke-width="0.999974" stroke-linecap="round"/>
</svg>
