<svg width="24" height="18" viewBox="0 0 24 18" fill="none" xmlns="http://www.w3.org/2000/svg">
<mask id="path-1-inside-1" fill="white">
<path fill-rule="evenodd" clip-rule="evenodd" d="M5.21041 13.0832H1C0.447715 13.0832 0 12.6355 0 12.0832V5.9165C0 5.36422 0.447715 4.9165 1 4.9165H5.21088L12.1251 0.129758C12.2471 0.0452657 12.392 0 12.5405 0C13.3465 0 14 0.653457 14 1.45954V16.5405C14 17.3465 13.3465 18 12.5405 18C12.392 18 12.2471 17.9547 12.1251 17.8702L5.21041 13.0832Z"/>
</mask>
<path d="M5.21041 13.0832L5.77962 12.261L5.52279 12.0832H5.21041V13.0832ZM5.21088 4.9165V5.9165H5.52326L5.78009 5.7387L5.21088 4.9165ZM12.1251 0.129758L12.6943 0.95195L12.6943 0.95195L12.1251 0.129758ZM12.1251 17.8702L12.6943 17.048L12.6943 17.048L12.1251 17.8702ZM5.21041 12.0832H1V14.0832H5.21041V12.0832ZM1 12.0832H1H-1C-1 13.1877 -0.104569 14.0832 1 14.0832V12.0832ZM1 12.0832V5.9165H-1V12.0832H1ZM1 5.9165V5.9165V3.9165C-0.104569 3.9165 -1 4.81193 -1 5.9165H1ZM1 5.9165H5.21088V3.9165H1V5.9165ZM5.78009 5.7387L12.6943 0.95195L11.5559 -0.692434L4.64167 4.09431L5.78009 5.7387ZM12.6943 0.95195C12.6491 0.983238 12.5954 1 12.5405 1V-1C12.1886 -1 11.8451 -0.892707 11.5559 -0.692434L12.6943 0.95195ZM12.5405 1C12.7943 1 13 1.20574 13 1.45954H15C15 0.101172 13.8988 -1 12.5405 -1V1ZM13 1.45954V16.5405H15V1.45954H13ZM13 16.5405C13 16.7943 12.7943 17 12.5405 17V19C13.8988 19 15 17.8988 15 16.5405H13ZM12.5405 17C12.5954 17 12.6491 17.0168 12.6943 17.048L11.5559 18.6924C11.8451 18.8927 12.1886 19 12.5405 19V17ZM12.6943 17.048L5.77962 12.261L4.6412 13.9054L11.5559 18.6924L12.6943 17.048Z" fill="currentColor" mask="url(#path-1-inside-1)"/>
<path d="M19.998 15.2461C21.8262 13.7793 22.998 11.5254 22.998 9C22.998 6.47461 21.8262 4.2207 19.998 2.75391" stroke="currentColor" stroke-linecap="round"/>
<path d="M17.998 12C18.6074 11.2955 18.998 10.2129 18.998 9C18.998 7.78705 18.6074 6.7045 17.998 6" stroke="currentColor" stroke-linecap="round"/>
</svg>
