<svg width="36" height="24" viewBox="0 0 36 24" fill="none" xmlns="http://www.w3.org/2000/svg">
<path d="M21.8396 5.5652L21.8397 5.56515C21.9883 5.35034 22.1395 5.2998 22.2353 5.2998C22.3311 5.2998 22.4823 5.35034 22.6309 5.56515L22.631 5.5652L34.5027 22.7152C34.7322 23.0468 34.4949 23.4998 34.0916 23.4998H1.94339C1.53669 23.4998 1.30013 23.0401 1.53655 22.7092L7.70056 14.0811L7.29372 13.7904L7.70056 14.0811C7.85095 13.8706 8.00861 13.8147 8.11765 13.8147C8.22668 13.8147 8.38434 13.8706 8.53473 14.0811L11.8848 18.7704L12.2981 19.3489L12.7028 18.7644L21.8396 5.5652Z" stroke="#666666"/>
<circle cx="10.2" cy="4.2" r="3.7" stroke="#666666"/>
</svg>
