<svg width="45" height="35" viewBox="0 0 45 35" fill="none" xmlns="http://www.w3.org/2000/svg">
<mask id="path-1-inside-1" fill="white">
<path fill-rule="evenodd" clip-rule="evenodd" d="M9.89237 24.8405H1C0.447715 24.8405 0 24.3928 0 23.8405V10.3346C0 9.78229 0.447715 9.33457 1 9.33457H9.89414L23.1206 0.177807C23.2878 0.0620272 23.4864 0 23.6898 0H24.5814C25.686 0 26.5814 0.895431 26.5814 2V32.1763C26.5814 33.2808 25.686 34.1763 24.5814 34.1763H23.6898C23.4864 34.1763 23.2878 34.1142 23.1206 33.9985L9.89237 24.8405Z"/>
</mask>
<path d="M9.89237 24.8405L10.4616 24.0183L10.2047 23.8405H9.89237V24.8405ZM9.89414 9.33457V10.3346H10.2065L10.4633 10.1568L9.89414 9.33457ZM23.1206 0.177807L23.6898 0.999999L23.6898 0.999997L23.1206 0.177807ZM23.1206 33.9985L22.5514 34.8207L22.5514 34.8207L23.1206 33.9985ZM9.89237 23.8405H1V25.8405H9.89237V23.8405ZM1 23.8405H1H-1C-1 24.945 -0.104569 25.8405 1 25.8405V23.8405ZM1 23.8405V10.3346H-1V23.8405H1ZM1 10.3346L1 10.3346V8.33457C-0.104571 8.33457 -1 9.23 -1 10.3346H1ZM1 10.3346H9.89414V8.33457H1V10.3346ZM10.4633 10.1568L23.6898 0.999999L22.5514 -0.644385L9.32493 8.51238L10.4633 10.1568ZM23.6898 0.999997L23.6898 1V-1C23.283 -1 22.8858 -0.875946 22.5514 -0.644383L23.6898 0.999997ZM23.6898 1H24.5814V-1H23.6898V1ZM24.5814 1C25.1337 1 25.5814 1.44772 25.5814 2H27.5814C27.5814 0.343146 26.2383 -1 24.5814 -1V1ZM25.5814 2V32.1763H27.5814V2H25.5814ZM25.5814 32.1763C25.5814 32.7286 25.1337 33.1763 24.5814 33.1763V35.1763C26.2383 35.1763 27.5814 33.8331 27.5814 32.1763H25.5814ZM24.5814 33.1763H23.6898V35.1763H24.5814V33.1763ZM23.6898 33.1763L23.6898 33.1763L22.5514 34.8207C22.8858 35.0522 23.283 35.1763 23.6898 35.1763V33.1763ZM23.6898 33.1763L10.4616 24.0183L9.32316 25.6627L22.5514 34.8207L23.6898 33.1763Z" fill="#666666" mask="url(#path-1-inside-1)"/>
<path d="M37.97 28.9477C41.441 26.1627 43.666 21.8833 43.666 17.0883C43.666 12.2934 41.441 8.01398 37.97 5.229" stroke="currentColor" stroke-linecap="round"/>
<path d="M34.1726 22.7842C35.3296 21.4466 36.0713 19.3911 36.0713 17.0881C36.0713 14.7851 35.3296 12.7297 34.1726 11.3921" stroke="currentColor" stroke-linecap="round"/>
</svg>
