<svg width="31" height="29" viewBox="0 0 31 29" fill="none" xmlns="http://www.w3.org/2000/svg">
<path d="M0.682156 23.7176C3.10384 22.8219 4.90328 21.5937 6.01964 20.0013C6.64798 19.105 6.9163 17.9852 7.04414 16.8038C7.14429 15.8784 7.16175 14.867 7.17935 13.8481C7.18416 13.5693 7.18899 13.29 7.19551 13.0117L7.20752 12.5H6.69565H1C0.723858 12.5 0.5 12.2761 0.5 12V1C0.5 0.723858 0.723858 0.5 1 0.5H13C13.2761 0.5 13.5 0.723858 13.5 1V10.6276C13.5 14.4785 13.2717 16.4642 12.6415 18.6217C12.0186 20.754 10.8304 22.6979 9.06013 24.4545C7.41916 26.0817 5.34017 27.3886 2.81065 28.3679L0.682156 23.7176Z" stroke="#666666"/>
<path d="M17.6822 23.7176C20.1038 22.8219 21.9033 21.5937 23.0196 20.0013C23.648 19.105 23.9163 17.9852 24.0441 16.8038C24.1443 15.8784 24.1618 14.867 24.1793 13.8481C24.1842 13.5693 24.189 13.29 24.1955 13.0117L24.2075 12.5H23.6957H18C17.7239 12.5 17.5 12.2761 17.5 12V1C17.5 0.723858 17.7239 0.5 18 0.5H30C30.2761 0.5 30.5 0.723858 30.5 1V10.6276C30.5 14.4785 30.2717 16.4642 29.6415 18.6217C29.0186 20.754 27.8304 22.6979 26.0601 24.4545C24.4192 26.0817 22.3402 27.3886 19.8107 28.3679L17.6822 23.7176Z" stroke="#666666"/>
</svg>
