<svg version="1.1" id="Layer_1" xmlns="http://www.w3.org/2000/svg" xmlns:xlink="http://www.w3.org/1999/xlink" x="0px" y="0px"
	 width="23px" height="24px" viewBox="0 0 23 24" style="enable-background:new 0 0 23 24;" xml:space="preserve">
	<path fill="#4285F4" d="M21.789,10.133H12V14h5.551c-0.243,1.312-0.983,2.61-2.095,3.355l3.393,2.635
		c1.985-1.828,3.131-4.52,3.131-7.718C21.98,11.527,21.913,10.821,21.789,10.133z"/>
	<path fill="#34A853" d="M15.456,17.355c-0.94,0.63-2.143,1.002-3.556,1.002c-2.735,0-5.05-1.847-5.875-4.329l-3.508,2.72
		c1.728,3.432,5.279,5.785,9.383,5.785c2.835,0,5.212-0.94,6.949-2.544L15.456,17.355z"/>
	<path fill="#FBBC05" d="M6.025,10.038l-3.508-2.72C1.806,8.735,1.4,10.339,1.4,12.033c0,1.694,0.406,3.298,1.117,4.715l3.508-2.72
		c-0.21-0.63-0.329-1.303-0.329-1.995C5.695,11.341,5.815,10.668,6.025,10.038z"/>
	<path fill="#EA4335" d="M11.9,1.533c-4.105,0-7.655,2.353-9.383,5.785l3.508,2.72C6.85,7.556,9.165,5.709,11.9,5.709
		c1.542,0,2.926,0.53,4.014,1.57l3.012-3.012C17.107,2.574,14.73,1.533,11.9,1.533z"/>
</svg>
