<svg id="svg" xmlns="http://www.w3.org/2000/svg" width="21" height="21" viewBox="0 0 21 21"><title>icon_info</title>
<path fill="currentColor" d="M9.8,14.488a22.887,22.887,0,0,0,.135-3.1c0-.557.03-1.281.03-2.2,0-.679-.1-.588-1.356-.648V8.3c1-.029,2.189-.09,3.183-.18-.09,2.456-.12,4.007-.12,4.625a7.494,7.494,0,0,0,.075,1.778c.076.1.467.166,1.175.241V15c-.934-.03-1.812-.06-2.2-.06-.527,0-1.25.03-2.139.06v-.241C9.364,14.7,9.74,14.668,9.8,14.488ZM10.9,4.8A1.1,1.1,0,1,1,10.884,7,1.154,1.154,0,0,1,9.8,5.9,1.132,1.132,0,0,1,10.9,4.8Z" />
</svg>
