<svg id="svg" xmlns="http://www.w3.org/2000/svg" width="21" height="21" viewBox="0 0 21 21"><title>icon_info</title><path fill="currentColor" d="M9.8,14.445a22.751,22.751,0,0,0,.135-3.09c0-.555.03-1.275.03-2.19,0-.675-.1-.585-1.35-.645V8.28q1.485-.045,2.97-.18c-.09,2.445-.12,3.99-.12,4.6a7.4,7.4,0,0,0,.075,1.77c.075.1.465.165,1.17.24v.24c-.93-.03-1.6-.06-2-.06-.525,0-1.245.03-2.13.06v-.24C9.36,14.655,9.735,14.625,9.8,14.445Zm.99-9.645a.99.99,0,1,1-.015,1.98A1.038,1.038,0,0,1,9.8,5.79,1.019,1.019,0,0,1,10.785,4.8Z"/></svg>