<svg width="18" height="16" viewBox="0 0 18 16" fill="none" xmlns="http://www.w3.org/2000/svg">
<path d="M0.679554 13.2094C1.93193 12.7126 2.89071 12.0397 3.50471 11.1639C3.88364 10.6234 4.03724 9.9607 4.10926 9.29517C4.16572 8.77344 4.17556 8.20166 4.18526 7.63808C4.18789 7.48578 4.1905 7.33409 4.19402 7.18414L4.20602 6.67241H3.69415H1C0.723858 6.67241 0.5 6.44856 0.5 6.17241V1C0.5 0.723858 0.723858 0.5 1 0.5H6.72414C7.00028 0.5 7.22414 0.723858 7.22414 1V5.8635C7.22414 7.97818 7.0987 9.04987 6.75947 10.2112C6.42759 11.3474 5.7936 12.3877 4.84076 13.3331C4.00293 14.1639 2.94825 14.8431 1.66592 15.3644L0.679554 13.2094Z" stroke="currentColor"/>
<path d="M10.0589 13.2094C11.3113 12.7126 12.2701 12.0397 12.8841 11.1639C13.263 10.6234 13.4166 9.9607 13.4887 9.29517C13.5451 8.77344 13.555 8.20166 13.5647 7.63808C13.5673 7.48578 13.5699 7.33409 13.5734 7.18414L13.5854 6.67241H13.0735H10.3794C10.1033 6.67241 9.87939 6.44856 9.87939 6.17241V1C9.87939 0.723858 10.1033 0.5 10.3794 0.5H16.1035C16.3797 0.5 16.6035 0.723858 16.6035 1V5.8635C16.6035 7.97818 16.4781 9.04987 16.1389 10.2112C15.807 11.3474 15.173 12.3877 14.2202 13.3331C13.3823 14.1639 12.3276 14.8431 11.0453 15.3644L10.0589 13.2094Z" stroke="currentColor"/>
</svg>
