<svg id="svg" xmlns="http://www.w3.org/2000/svg" width="26" height="16" viewBox="0 0 26 16"><title>preferences</title><path d="M20.8,7c-.44,0-.575.281-.3.625l2,2.5a.613.613,0,0,0,1,0l2-2.5c.275-.344.14-.625-.3-.625Z" fill="currentColor"/><path d="M14.222,4.04a.8.8,0,0,0,0-1.131l-1.13-1.13a.8.8,0,0,0-1.131,0L10.165,3.572c-.311.311-.566.206-.566-.234V.8A.8.8,0,0,0,8.8,0H7.2a.8.8,0,0,0-.8.8V3.338c0,.44-.255.545-.566.234L4.04,1.778a.8.8,0,0,0-1.132,0L1.777,2.909a.8.8,0,0,0,0,1.131L3.57,5.835c.311.311.206.566-.234.566H.8a.8.8,0,0,0-.8.8V8.8a.8.8,0,0,0,.8.8H3.338c.44,0,.545.255.234.566L1.778,11.96a.8.8,0,0,0,0,1.131l1.13,1.13a.8.8,0,0,0,1.131,0l1.794-1.794c.311-.311.566-.206.566.234V15.2a.8.8,0,0,0,.8.8H8.8a.8.8,0,0,0,.8-.8V12.664c0-.44.255-.545.566-.234l1.794,1.794a.8.8,0,0,0,1.131,0l1.131-1.132a.8.8,0,0,0,0-1.132l-1.794-1.794c-.311-.311-.206-.566.234-.566H15.2a.8.8,0,0,0,.8-.8V7.2a.8.8,0,0,0-.8-.8H12.662c-.44,0-.545-.255-.234-.566ZM8,10.4A2.4,2.4,0,1,1,10.4,8,2.4,2.4,0,0,1,8,10.4Z" fill="currentColor"/></svg>
