<svg id="82cce1dc-d9f1-41b0-9164-208c1806ee29" data-name="all icons" xmlns="http://www.w3.org/2000/svg" width="20" height="27" viewBox="0 0 20 27">
  <title>preview-tablet-v</title>
  <g style="opacity: 0.30000000000000004">
    <path d="M18,1a1,1,0,0,1,1,1V25a1,1,0,0,1-1,1H2a1,1,0,0,1-1-1V2A1,1,0,0,1,2,1H18m0-1H2A2.006,2.006,0,0,0,0,2V25a2.006,2.006,0,0,0,2,2H18a2.006,2.006,0,0,0,2-2V2a2.006,2.006,0,0,0-2-2Z" style="fill: #262626"/>
  </g>
  <g style="opacity: 0.30000000000000004">
    <path d="M10,22a1,1,0,1,0,1,1,1,1,0,0,0-1-1Z" style="fill: #333"/>
  </g>
</svg>
