<svg id="07133028-fa6c-40e2-9e56-f448538ceafe" data-name="all icons" xmlns="http://www.w3.org/2000/svg" width="12" height="18" viewBox="0 0 12 18">
  <title>preview-mobile</title>
  <g style="opacity: 0.30000000000000004">
    <path d="M10,1a1,1,0,0,1,1,1V16a1,1,0,0,1-1,1H2a1,1,0,0,1-1-1V2A1,1,0,0,1,2,1h8m0-1H2A2.006,2.006,0,0,0,0,2V16a2.006,2.006,0,0,0,2,2h8a2.006,2.006,0,0,0,2-2V2a2.006,2.006,0,0,0-2-2Z" style="fill: #262626"/>
  </g>
  <g style="opacity: 0.30000000000000004">
    <path d="M6,13a1,1,0,1,0,1,1,1,1,0,0,0-1-1Z" style="fill: #333"/>
  </g>
</svg>
