<svg width="20" height="20" viewBox="0 0 20 20" fill="none" xmlns="http://www.w3.org/2000/svg">
<path d="M13.0001 14.9998C13.553 14.9998 14 14.5525 14 14.0008L14 7.13162L11.5659 9.56571L10.4345 8.43434L15.0002 3.86865L19.5659 8.43434L18.4345 9.56571L16 7.13116L16 14.0008C16 15.6583 14.6563 16.9998 13.0001 16.9998H10.0001L10 14.9998H13.0001Z" fill="currentColor"/>
<path d="M6.99993 5.99979C6.44702 5.99979 6 6.4471 6 6.99875L6 13.868L8.43408 11.4339L9.56545 12.5652L4.99977 17.1309L0.434082 12.5652L1.56545 11.4339L4 13.8684L4 6.99875C4 5.34127 5.34371 3.99979 6.99993 3.99979H9.99993L9.99998 5.99979H6.99993Z" fill="currentColor"/>
</svg>
