<?xml version="1.0" encoding="utf-8"?>
<!-- Generator: Adobe Illustrator 22.0.0, SVG Export Plug-In . SVG Version: 6.00 Build 0)  -->
<svg version="1.1" id="all_icons" xmlns="http://www.w3.org/2000/svg" xmlns:xlink="http://www.w3.org/1999/xlink" x="0px" y="0px"
	 width="12px" height="14px" viewBox="0 0 12 14" style="enable-background:new 0 0 12 14;" xml:space="preserve">
<style type="text/css">
	.st0{fill:#A6A6A6;}
</style>
<title>wysiwyg_underline</title>
<path class="st0" d="M5.889,0.083v0.406C5.456,0.46,5.024,0.56,4.647,0.776C4.438,0.947,4.334,1.338,4.335,1.949v5.362
	C4.306,7.953,4.403,8.595,4.623,9.2c0.323,0.81,1.139,1.312,2.008,1.237c1.036,0.109,2.03-0.438,2.492-1.371
	c0.27-0.666,0.392-1.382,0.359-2.1v-4.9c0.045-0.42-0.067-0.842-0.316-1.183C8.81,0.615,8.373,0.477,7.928,0.489V0.083h3.516v0.406
	c-0.361,0.041-0.707,0.165-1.012,0.363c-0.207,0.285-0.295,0.639-0.246,0.988v5.118c0.073,1.135-0.279,2.257-0.986,3.148
	c-0.82,0.804-1.95,1.209-3.094,1.109c-1.839,0-3.096-0.55-3.773-1.65C1.949,8.876,1.765,8.094,1.8,7.306V1.95
	c0.051-0.395-0.035-0.795-0.243-1.135c-0.319-0.21-0.692-0.323-1.074-0.326V0.083H5.889z"/>
<rect y="13" class="st0" width="12" height="1"/>
</svg>
