<svg id="c0e8a428-60c8-413d-9ccd-3365b1a20e03" data-name="all icons" xmlns="http://www.w3.org/2000/svg" width="12" height="14" viewBox="0 0 12 14">
  <title>wysiwyg_underline</title>
  <path d="M6.089.083V.489A2.2,2.2,0,0,0,4.847.776q-.314.256-.313,1.174V7.311A4.875,4.875,0,0,0,4.823,9.2a1.978,1.978,0,0,0,2.008,1.237A2.49,2.49,0,0,0,9.323,9.066a4.99,4.99,0,0,0,.36-2.1V2.067A1.7,1.7,0,0,0,9.366.883,1.97,1.97,0,0,0,8.128.489V.083h3.516V.489a2.348,2.348,0,0,0-1.012.363,1.364,1.364,0,0,0-.246.988V6.958A4.584,4.584,0,0,1,9.4,10.106a3.93,3.93,0,0,1-3.093,1.109q-2.758,0-3.774-1.65A4.254,4.254,0,0,1,2,7.306V1.95A1.745,1.745,0,0,0,1.757.815,1.981,1.981,0,0,0,.683.489V.083Z" fill="currentColor" />
  <rect y="13" width="12" height="1" fill="currentColor" />
</svg>
