<svg version="1.1" xmlns="http://www.w3.org/2000/svg" xmlns:xlink="http://www.w3.org/1999/xlink" x="0px" y="0px" width="12px"
   height="13px" viewBox="0 0 12 13" enable-background="new 0 0 12 13" xml:space="preserve">
  <title>wysiwyg_bold</title>
  <path fill="currentColor" d="M0.33105,12.4126c0.51318-0.01855,0.88135-0.08643,1.104-0.2041
        c0.37695-0.19775,0.56592-0.5752,0.56592-1.13184V1.87354c0-0.55273-0.17627-0.92432-0.52881-1.11475
        C1.26172,0.64209,0.88135,0.56836,0.33105,0.5376V0.05518h5.87256c1.13184,0,2.07178,0.12988,2.82031,0.38965
        c1.41016,0.48877,2.11523,1.37939,2.11523,2.67188c0,0.78564-0.28613,1.40869-0.8584,1.86914
        C9.70898,5.44678,9.08887,5.73926,8.4209,5.86279v0.17627c0.70508,0.13623,1.31738,0.36523,1.83691,0.68652
        c1.01416,0.63086,1.52148,1.50928,1.52148,2.63477c0,1.05176-0.48584,1.90332-1.45654,2.55615
        c-0.97119,0.65234-2.26367,0.97852-3.87793,0.97852H0.33105V12.4126z M7.40039,5.24121
        c0.40186-0.3833,0.60303-1.06348,0.60303-2.04102c0-0.72363-0.13135-1.33252-0.39453-1.82764
        c-0.2627-0.49463-0.76855-0.74219-1.5166-0.74219c-0.396,0-0.67139,0.06641-0.82568,0.19922
        c-0.15479,0.1333-0.23193,0.37305-0.23193,0.71924v4.26758C6.20947,5.81641,6.99805,5.625,7.40039,5.24121z M5.18311,11.87451
        c0.1543,0.27246,0.45117,0.4082,0.89062,0.4082c0.89648,0,1.52637-0.24414,1.8877-0.73291
        c0.3623-0.48828,0.54297-1.18408,0.54297-2.0874c0-1.34814-0.39893-2.24512-1.19678-2.69043
        C6.8252,6.5,6.06738,6.37305,5.03467,6.3916v4.75C5.04053,11.47559,5.09033,11.72021,5.18311,11.87451z"/>
</svg>
