<svg id="31259bcc-72e8-447f-83a8-e66ea8072666" data-name="all icons" xmlns="http://www.w3.org/2000/svg" width="10" height="13" viewBox="0 0 10 13">
  <title>wysiwyg_italic</title>
  <path d="M.96,12.5a2.225,2.225,0,0,0,1.055-.339,1.964,1.964,0,0,0,.567-1.046L5.039,2.391c.071-.246.125-.454.161-.621a2.2,2.2,0,0,0,.053-.442C5.253,1,5.159.792,4.97.707A4.378,4.378,0,0,0,3.789.5V0H9.745V.5a2.276,2.276,0,0,0-1.06.342A1.99,1.99,0,0,0,8.133,1.9l-2.466,8.72-.157.671c-.013.063-.024.127-.034.193a1.23,1.23,0,0,0-.015.184c0,.328.092.535.274.623a4.032,4.032,0,0,0,1.182.208V13H.96Z" style="fill: #a6a6a6"/>
</svg>
