<svg version="1.1" xmlns="http://www.w3.org/2000/svg" xmlns:xlink="http://www.w3.org/1999/xlink" x="0px" y="0px" width="10px"
   height="13px" viewBox="0 0 10 13" enable-background="new 0 0 10 13" xml:space="preserve">
  <title>wysiwyg_italic</title>
  <path fill="currentColor" d="M0.96045,12.49708c0.4751-0.05646,0.82666-0.16985,1.05469-0.33923
        c0.22803-0.16938,0.4165-0.51858,0.56641-1.04617l2.45703-8.72044c0.07129-0.24672,0.125-0.45405,0.16113-0.62153
        c0.03564-0.16748,0.05371-0.31456,0.05371-0.44124c0-0.3288-0.09473-0.53613-0.2832-0.62153
        c-0.18896-0.0854-0.58301-0.15325-1.18164-0.20401V0h5.95605v0.50292c-0.48828,0.0631-0.84131,0.17697-1.05957,0.34161
        S8.2832,1.36026,8.1333,1.89781l-2.4668,8.72044l-0.15625,0.6704c-0.01318,0.0631-0.02441,0.12763-0.03418,0.19358
        c-0.00977,0.06595-0.01465,0.12715-0.01465,0.18409c0,0.32737,0.09131,0.53518,0.27344,0.62296
        c0.18213,0.08825,0.57617,0.15752,1.18164,0.20781V13H0.96045V12.49708z"/>
</svg>
