<svg version="1.1" xmlns="http://www.w3.org/2000/svg" xmlns:xlink="http://www.w3.org/1999/xlink" x="0px" y="0px" width="12px"
   height="13px" viewBox="0 0 12 13" enable-background="new 0 0 12 13" xml:space="preserve">
  <title>wysiwyg_underline</title>
      <path fill="currentColor" d="M6.08887,0.00252v0.48625c-0.62012,0.02051-1.03418,0.1167-1.24219,0.2876
        c-0.2085,0.1709-0.3125,0.56201-0.3125,1.17334v4.36133c0,0.81396,0.09619,1.44287,0.28906,1.88623
        c0.34863,0.82471,1.01807,1.23682,2.00781,1.23682c1.229,0,2.05957-0.45605,2.49219-1.36816
        c0.23924-0.50098,0.35938-1.20215,0.35938-2.104V2.06689c0-0.57275-0.10547-0.96729-0.31641-1.18359
        C9.15527,0.66748,8.74219,0.53564,8.12793,0.48877V0.00252h3.51562v0.48625c-0.51074,0.09912-0.84766,0.22021-1.01172,0.36328
        c-0.16406,0.14355-0.24609,0.47266-0.24609,0.98828v4.11719c0,1.35938-0.32812,2.40918-0.98438,3.14844
        c-0.65625,0.73975-1.6875,1.10938-3.09375,1.10938c-1.83887,0-3.09668-0.5498-3.77344-1.6499
        C2.1748,7.98193,1.99512,7.22852,1.99512,6.30566V1.94971c0-0.60107-0.07959-0.979-0.23828-1.13477
        C1.59766,0.65967,1.23975,0.55127,0.68262,0.48877V0.00252H6.08887z"/>
      <rect y="12" fill="currentColor" width="12" height="1"/>
</svg>
