<svg id="b87e8504-0d1d-413e-836e-47040768a948" data-name="all icons" xmlns="http://www.w3.org/2000/svg" width="12" height="13" viewBox="0 0 12 13">
  <title>wysiwyg_bold</title>
  <path d="M.331,12.413a2.738,2.738,0,0,0,1.1-.205A1.157,1.157,0,0,0,2,11.077v-9.2A1.148,1.148,0,0,0,1.472.759,2.905,2.905,0,0,0,.331.538V.055H6.2a8.706,8.706,0,0,1,2.82.39,2.708,2.708,0,0,1,2.115,2.672,2.274,2.274,0,0,1-.858,1.869,4.14,4.14,0,0,1-1.86.877v.176a5.4,5.4,0,0,1,1.837.687,3.008,3.008,0,0,1,.065,5.191,6.853,6.853,0,0,1-3.878.978H.331ZM7.4,5.241A2.763,2.763,0,0,0,8,3.2a3.856,3.856,0,0,0-.394-1.827A1.558,1.558,0,0,0,6.092.63a1.285,1.285,0,0,0-.825.2.914.914,0,0,0-.232.719V5.816A3.521,3.521,0,0,0,7.4,5.241ZM5.183,11.875a.933.933,0,0,0,.891.408,2.2,2.2,0,0,0,1.887-.733A3.45,3.45,0,0,0,8.5,9.462a2.807,2.807,0,0,0-1.2-2.69,4.643,4.643,0,0,0-2.273-.38v4.75A1.529,1.529,0,0,0,5.183,11.875Z" style="fill: #a6a6a6"/>
</svg>
