<svg id="all_icons" data-name="all icons" xmlns="http://www.w3.org/2000/svg" width="10" height="13" viewBox="0 0 10 13">
  <defs>
    <style>
      .cls-1 {
        fill: #a6a6a6;
      }
    </style>
  </defs>
  <title>wysiwyg_italic</title>
  <path class="cls-1" d="M.96,12.5a2.228,2.228,0,0,0,1.055-.339,1.959,1.959,0,0,0,.566-1.046l2.457-8.72q.107-.37.161-.622a2.156,2.156,0,0,0,.054-.441q0-.493-.283-.622A4.352,4.352,0,0,0,3.789.5V0H9.745V.5a2.284,2.284,0,0,0-1.06.342A1.993,1.993,0,0,0,8.133,1.9l-2.467,8.72-.156.67c-.013.063-.024.128-.034.194a1.26,1.26,0,0,0-.015.184q0,.491.273.623a4.073,4.073,0,0,0,1.182.208V13H.96Z"/>
</svg>
