<svg id="all_icons" data-name="all icons" xmlns="http://www.w3.org/2000/svg" width="12" height="13" viewBox="0 0 12 13">
  <defs>
    <style>
      .cls-1 {
        fill: #a6a6a6;
      }
    </style>
  </defs>
  <title>wysiwyg_bold</title>
  <path class="cls-1" d="M.331,12.413a2.736,2.736,0,0,0,1.1-.2A1.159,1.159,0,0,0,2,11.077v-9.2A1.149,1.149,0,0,0,1.472.759,2.925,2.925,0,0,0,.331.538V.055H6.2a8.71,8.71,0,0,1,2.82.39,2.708,2.708,0,0,1,2.115,2.672,2.273,2.273,0,0,1-.858,1.869,4.134,4.134,0,0,1-1.86.877v.176a5.415,5.415,0,0,1,1.837.687,3.007,3.007,0,0,1,.065,5.191,6.85,6.85,0,0,1-3.878.979H.331ZM7.4,5.241A2.765,2.765,0,0,0,8,3.2a3.855,3.855,0,0,0-.395-1.828A1.557,1.557,0,0,0,6.092.63a1.29,1.29,0,0,0-.826.2.916.916,0,0,0-.232.719V5.816A3.523,3.523,0,0,0,7.4,5.241ZM5.183,11.875a.932.932,0,0,0,.891.408,2.2,2.2,0,0,0,1.888-.733A3.455,3.455,0,0,0,8.5,9.462a2.806,2.806,0,0,0-1.2-2.69,4.644,4.644,0,0,0-2.273-.38v4.75A1.527,1.527,0,0,0,5.183,11.875Z"/>
</svg>
