<svg xmlns="http://www.w3.org/2000/svg" width="12" height="12" viewBox="0 0 24 24">
  <title>list-bullets</title>
  <circle fill="currentColor" cx="2.5" cy="3.998" r="2.5"/>
  <circle fill="currentColor" cx="2.5" cy="11.998" r="2.5"/>
  <circle fill="currentColor" cx="2.5" cy="19.998" r="2.5"/>
  <path fill="currentColor" d="M8.5,5H23a1,1,0,0,0,0-2H8.5a1,1,0,0,0,0,2Z"/>
  <path fill="currentColor" d="M23,11H8.5a1,1,0,0,0,0,2H23a1,1,0,0,0,0-2Z"/>
  <path fill="currentColor" d="M23,19H8.5a1,1,0,0,0,0,2H23a1,1,0,0,0,0-2Z"/>
</svg>
