<?xml version="1.0" encoding="utf-8"?>
<!-- Generator: Adobe Illustrator 18.0.0, SVG Export Plug-In . SVG Version: 6.00 Build 0)  -->
<!DOCTYPE svg PUBLIC "-//W3C//DTD SVG 1.1//EN" "http://www.w3.org/Graphics/SVG/1.1/DTD/svg11.dtd">
<svg version="1.1" id="Layer_1" xmlns="http://www.w3.org/2000/svg" xmlns:xlink="http://www.w3.org/1999/xlink" x="0px" y="0px"
	 width="26px" height="21px" viewBox="0 0 26 21" enable-background="new 0 0 26 21" xml:space="preserve">
<path fill="#FFFFFF" d="M24,2H12c-1.1,0-1.625-0.125-2.5-1C8.828,0.328,8.1,0,7,0H2C0.9,0,0,0.9,0,2v17c0,1.1,0.9,2,2,2h22
	c1.1,0,2-0.9,2-2V4C26,2.9,25.1,2,24,2z"/>
<path fill="#CCCCCC" d="M24,2H12c-1.1,0-1.625-0.125-2.5-1C8.828,0.328,8.1,0,7,0H2C0.9,0,0,0.9,0,2v17c0,1.1,0.9,2,2,2h22
	c1.1,0,2-0.9,2-2V4C26,2.9,25.1,2,24,2z M25,19c0,0.551-0.449,1-1,1H2c-0.551,0-1-0.449-1-1V7h24V19z M25,6H1V2c0-0.551,0.449-1,1-1
	h5c0.805,0,1.383,0.383,2,1c0.75,0.75,1.7,1,3,1h12c0.551,0,1,0.449,1,1V6z"/>
</svg>
