<?xml version="1.0" encoding="utf-8"?>
<!-- Generator: Adobe Illustrator 18.0.0, SVG Export Plug-In . SVG Version: 6.00 Build 0)  -->
<!DOCTYPE svg PUBLIC "-//W3C//DTD SVG 1.1//EN" "http://www.w3.org/Graphics/SVG/1.1/DTD/svg11.dtd">
<svg version="1.1" id="Layer_1" xmlns="http://www.w3.org/2000/svg" xmlns:xlink="http://www.w3.org/1999/xlink" x="0px" y="0px"
	 width="20px" height="26px" viewBox="0 0 20 26" enable-background="new 0 0 20 26" xml:space="preserve">
<path fill="#FFFFFF" d="M14,0H1C0.448,0,0,0.448,0,1v24c0,0.552,0.448,1,1,1h18c0.552,0,1-0.448,1-1V6L14,0z"/>
<g>
	<path fill="#CCCCCC" d="M14,0H1C0.448,0,0,0.448,0,1v24c0,0.552,0.448,1,1,1h18c0.552,0,1-0.448,1-1V6L14,0z M14,1.5L18.5,6H14V1.5
		z M19,25H1V1h12v5c0,0.55,0.45,1,1,1h5V25z"/>
	<path fill="#CCCCCC" d="M4.2,16c0,3.203,2.597,5.8,5.8,5.8s5.8-2.597,5.8-5.8s-2.597-5.8-5.8-5.8S4.2,12.797,4.2,16z"/>
</g>
<circle fill="#FFFFFF" cx="10" cy="16" r="1.5"/>
</svg>
