<?xml version="1.0" encoding="utf-8"?>
<!-- Generator: Adobe Illustrator 18.0.0, SVG Export Plug-In . SVG Version: 6.00 Build 0)  -->
<!DOCTYPE svg PUBLIC "-//W3C//DTD SVG 1.1//EN" "http://www.w3.org/Graphics/SVG/1.1/DTD/svg11.dtd">
<svg version="1.1" id="Layer_1" xmlns="http://www.w3.org/2000/svg" xmlns:xlink="http://www.w3.org/1999/xlink" x="0px" y="0px"
	 width="20px" height="26px" viewBox="0 0 20 26" enable-background="new 0 0 20 26" xml:space="preserve">
<path fill="#FFFFFF" d="M14,0H1C0.448,0,0,0.448,0,1v24c0,0.552,0.448,1,1,1h18c0.552,0,1-0.448,1-1V6L14,0z"/>
<g>
	<polygon fill="none" points="14,6 18.5,6 14,1.5 	"/>
	<path fill="#CCCCCC" d="M0,25c0,0.552,0.448,1,1,1C0.45,26,0,25.55,0,25z"/>
	<path fill="#CCCCCC" d="M14,0H1C0.448,0,0,0.448,0,1v15h1V1h12v5c0,0.55,0.45,1,1,1h5v9h1V6L14,0z M14,6V1.5L18.5,6H14z"/>
	<path fill="#CCCCCC" d="M19,26c0.552,0,1-0.448,1-1C20,25.55,19.55,26,19,26z"/>
</g>
<rect x="1" y="16" fill="#FF1C8C" width="18" height="9"/>
<path fill="#CC1670" d="M19,25H1v-9H0v9c0,0.55,0.45,1,1,1h18c0.55,0,1-0.45,1-1v-9h-1V25z"/>
</svg>
