<?xml version="1.0" encoding="utf-8"?>
<!-- Generator: Adobe Illustrator 18.0.0, SVG Export Plug-In . SVG Version: 6.00 Build 0)  -->
<!DOCTYPE svg PUBLIC "-//W3C//DTD SVG 1.1//EN" "http://www.w3.org/Graphics/SVG/1.1/DTD/svg11.dtd">
<svg version="1.1" id="Layer_1" xmlns="http://www.w3.org/2000/svg" xmlns:xlink="http://www.w3.org/1999/xlink" x="0px" y="0px"
	 width="26px" height="21px" viewBox="0 0 26 21" enable-background="new 0 0 26 21" xml:space="preserve">
<path fill="#FFFFFF" d="M0,19c0,1.1,0.9,2,2,2h22c1.1,0,2-0.9,2-2V2c0-1.1-0.9-2-2-2H2C0.9,0,0,0.9,0,2V19z"/>
<g>
	<path fill="#CCCCCC" d="M24,0H2C0.9,0,0,0.9,0,2v17c0,1.1,0.9,2,2,2h22c1.1,0,2-0.9,2-2V2C26,0.9,25.1,0,24,0z M25,19
		c0,0.551-0.449,1-1,1H2c-0.551,0-1-0.449-1-1V3h24V19z"/>
	<g>
		<rect x="5" y="8" fill="#CCCCCC" width="7" height="7"/>
	</g>
	<rect x="14" y="14" fill="#CCCCCC" width="7" height="1"/>
	<rect x="14" y="12" fill="#CCCCCC" width="7" height="1"/>
	<rect x="14" y="10" fill="#CCCCCC" width="7" height="1"/>
	<rect x="14" y="8" fill="#CCCCCC" width="7" height="1"/>
</g>
</svg>
