<?xml version="1.0" encoding="utf-8"?>
<!-- Generator: Adobe Illustrator 18.0.0, SVG Export Plug-In . SVG Version: 6.00 Build 0)  -->
<!DOCTYPE svg PUBLIC "-//W3C//DTD SVG 1.1//EN" "http://www.w3.org/Graphics/SVG/1.1/DTD/svg11.dtd">
<svg version="1.1" id="Layer_1" xmlns="http://www.w3.org/2000/svg" xmlns:xlink="http://www.w3.org/1999/xlink" x="0px" y="0px"
	 width="20px" height="26px" viewBox="0 0 20 26" enable-background="new 0 0 20 26" xml:space="preserve">
<path fill="#FFFFFF" d="M14,0H1C0.448,0,0,0.448,0,1v24c0,0.552,0.448,1,1,1h18c0.552,0,1-0.448,1-1V6L14,0z"/>
<g>
	<path fill="#CCCCCC" d="M14,0H1C0.448,0,0,0.448,0,1v24c0,0.552,0.448,1,1,1h18c0.552,0,1-0.448,1-1V6L14,0z M14,1.5L18.5,6H14V1.5
		z M19,25H1V1h12v5c0,0.55,0.45,1,1,1h5V25z"/>
	<path fill="#CCCCCC" d="M10,17.342c-0.597-0.258-1.409-0.253-2.195,0.076c-1.274,0.533-1.995,1.709-1.611,2.626
		c0.384,0.917,1.728,1.228,3.001,0.695c0,0,1.805-0.63,1.805-2.739c0-1.078,0-5.048,0-5.048L14.667,14L10,10V17.342z"/>
</g>
</svg>
