<?xml version="1.0" encoding="utf-8"?>
<!-- Generator: Adobe Illustrator 18.0.0, SVG Export Plug-In . SVG Version: 6.00 Build 0)  -->
<!DOCTYPE svg PUBLIC "-//W3C//DTD SVG 1.1//EN" "http://www.w3.org/Graphics/SVG/1.1/DTD/svg11.dtd">
<svg version="1.1" id="Layer_1" xmlns="http://www.w3.org/2000/svg" xmlns:xlink="http://www.w3.org/1999/xlink" x="0px" y="0px"
	 width="20px" height="26px" viewBox="0 0 20 26" enable-background="new 0 0 20 26" xml:space="preserve">
<path fill="#FFFFFF" d="M14,0H1C0.448,0,0,0.448,0,1v24c0,0.552,0.448,1,1,1h18c0.552,0,1-0.448,1-1V6L14,0z"/>
<g>
	<path fill="#CCCCCC" d="M14,0H1C0.448,0,0,0.448,0,1v24c0,0.552,0.448,1,1,1h18c0.552,0,1-0.448,1-1V6L14,0z M14,1.5L18.5,6H14V1.5
		z M19,25H1V1h12v5c0,0.55,0.45,1,1,1h5V25z"/>
	<rect x="8" y="16" fill="#CCCCCC" width="2" height="1"/>
	<rect x="10" y="15" fill="#CCCCCC" width="2" height="1"/>
	<rect x="8" y="14" fill="#CCCCCC" width="2" height="1"/>
	<rect x="10" y="13" fill="#CCCCCC" width="2" height="1"/>
	<rect x="8" y="12" fill="#CCCCCC" width="2" height="1"/>
	<rect x="10" y="11" fill="#CCCCCC" width="2" height="1"/>
	<rect x="8" y="10" fill="#CCCCCC" width="2" height="1"/>
	<rect x="8" y="8" fill="#CCCCCC" width="2" height="1"/>
	<rect x="10" y="9" fill="#CCCCCC" width="2" height="1"/>
	<path fill="#CCCCCC" d="M8,24h4v-6H8V24z M9,19h2v2H9V19z"/>
</g>
</svg>
