<svg xmlns="http://www.w3.org/2000/svg" xmlns:xlink="http://www.w3.org/1999/xlink"><symbol id="sprite-ae" viewBox="0 0 20 26"><title>ae</title><path fill="#FFF" d="M14 0H1a1 1 0 00-1 1v24a1 1 0 001 1h18a1 1 0 001-1V6l-6-6z"/><path fill="none" d="M13 6V1H1v24h18V7h-5c-.55 0-1-.45-1-1z"/><path fill="none" d="M19 7h-5c-.55 0-1-.45-1-1V1H1v15h18V7z"/><path fill="none" d="M14 6h4.5L14 1.5z"/><path fill="#CCC" d="M0 25zM14 0H1a1 1 0 00-1 1v15h1V1h12v5c0 .55.45 1 1 1h5v9h1V6l-6-6zm0 6V1.5L18.5 6H14zm5 20z"/><path fill="#762DD8" d="M1 16h18v9H1z"/><path fill="#5E24AD" d="M19 25H1v-9H0v9c0 .55.45 1 1 1h18c.55 0 1-.45 1-1v-9h-1v9z"/></symbol><symbol id="sprite-ai" viewBox="0 0 20 26"><title>ai</title><path fill="#FFF" d="M14 0H1a1 1 0 00-1 1v24a1 1 0 001 1h18a1 1 0 001-1V6l-6-6z"/><path fill="none" d="M14 6h4.5L14 1.5z"/><path fill="#CCC" d="M0 25zM14 0H1a1 1 0 00-1 1v15h1V1h12v5c0 .55.45 1 1 1h5v9h1V6l-6-6zm0 6V1.5L18.5 6H14zm5 20z"/><path fill="#FF8C05" d="M1 16h18v9H1z"/><path fill="#CC7002" d="M19 25H1v-9H0v9c0 .55.45 1 1 1h18c.55 0 1-.45 1-1v-9h-1v9z"/></symbol><symbol id="sprite-ase" viewBox="0 0 20 26"><title>ase</title><path fill="#FFF" d="M14 0H1a1 1 0 00-1 1v24a1 1 0 001 1h18a1 1 0 001-1V6l-6-6z"/><path fill="none" d="M14 6h4.5L14 1.5z"/><path fill="#CCC" d="M0 25zM14 0H1a1 1 0 00-1 1v15h1V1h12v5c0 .55.45 1 1 1h5v9h1V6l-6-6zm0 6V1.5L18.5 6H14zm5 20z"/><path fill="#FF8C05" d="M1 16h18v9H1z"/><path fill="#CC7002" d="M19 25H1v-9H0v9c0 .55.45 1 1 1h18c.55 0 1-.45 1-1v-9h-1v9z"/></symbol><symbol id="sprite-cut" viewBox="0 0 26 21"><title>cut</title><path fill="#FFF" d="M24 2H12c-1.1 0-1.625-.125-2.5-1C8.828.328 8.1 0 7 0H2C.9 0 0 .9 0 2v17c0 1.1.9 2 2 2h22c1.1 0 2-.9 2-2V4c0-1.1-.9-2-2-2z"/><path fill="#CCC" d="M24 2H12c-1.1 0-1.625-.125-2.5-1C8.828.328 8.1 0 7 0H2C.9 0 0 .9 0 2v17c0 1.1.9 2 2 2h22c1.1 0 2-.9 2-2V4c0-1.1-.9-2-2-2zm1 17c0 .551-.449 1-1 1H2c-.551 0-1-.449-1-1V7h24v12zm0-13H1V2c0-.551.449-1 1-1h5c.805 0 1.383.383 2 1 .75.75 1.7 1 3 1h12c.551 0 1 .449 1 1v2z"/><path fill="#CCC" d="M13 12.5L9 10v2H7c-1.654 0-3 1.346-3 3v2h1v-2c0-1.103.897-2 2-2h2v2l4-2.5z"/></symbol><symbol id="sprite-dir_protected" viewBox="0 0 26 21"><title>dir_protected</title><path fill="#FFF" d="M24 2H12c-1.1 0-1.625-.125-2.5-1C8.828.328 8.1 0 7 0H2C.9 0 0 .9 0 2v17c0 1.1.9 2 2 2h22c1.1 0 2-.9 2-2V4c0-1.1-.9-2-2-2z"/><path fill="#CCC" d="M24 2H12c-1.1 0-1.625-.125-2.5-1C8.828.328 8.1 0 7 0H2C.9 0 0 .9 0 2v17c0 1.1.9 2 2 2h22c1.1 0 2-.9 2-2V4c0-1.1-.9-2-2-2zm1 17c0 .551-.449 1-1 1H2c-.551 0-1-.449-1-1V7h24v12zm0-13H1V2c0-.551.449-1 1-1h5c.805 0 1.383.383 2 1 .75.75 1.7 1 3 1h12c.551 0 1 .449 1 1v2z"/><path fill="#CCC" d="M21 12v-1a2 2 0 10-4 0v1c-.55 0-1 .45-1 1v3c0 .55.45 1 1 1h4c.55 0 1-.45 1-1v-3c0-.55-.45-1-1-1zm-.8 0h-2.4v-1c0-.66.54-1.2 1.2-1.2s1.2.54 1.2 1.2v1z"/></symbol><symbol id="sprite-dir_shared" viewBox="0 0 26 21"><title>dir_shared</title><path fill="#FFF" d="M24 2H12c-1.1 0-1.625-.125-2.5-1C8.828.328 8.1 0 7 0H2C.9 0 0 .9 0 2v17c0 1.1.9 2 2 2h22c1.1 0 2-.9 2-2V4c0-1.1-.9-2-2-2z"/><path fill="#CCC" d="M24 2H12c-1.1 0-1.625-.125-2.5-1C8.828.328 8.1 0 7 0H2C.9 0 0 .9 0 2v17c0 1.1.9 2 2 2h22c1.1 0 2-.9 2-2V4c0-1.1-.9-2-2-2zm1 17c0 .551-.449 1-1 1H2c-.551 0-1-.449-1-1V7h24v12zm0-13H1V2c0-.551.449-1 1-1h5c.805 0 1.383.383 2 1 .75.75 1.7 1 3 1h12c.551 0 1 .449 1 1v2z"/><path fill="#CCC" d="M21 12h-3v-1c0-1.103-.897-2-2-2s-2 .897-2 2v1h1v-1a1.001 1.001 0 012 0v1c-.55 0-1 .45-1 1v3c0 .55.45 1 1 1h4c.55 0 1-.45 1-1v-3c0-.55-.45-1-1-1z"/></symbol><symbol id="sprite-dir" viewBox="0 0 26 21"><title>dir</title><path fill="#FFF" d="M24 2H12c-1.1 0-1.625-.125-2.5-1C8.828.328 8.1 0 7 0H2C.9 0 0 .9 0 2v17c0 1.1.9 2 2 2h22c1.1 0 2-.9 2-2V4c0-1.1-.9-2-2-2z"/><path fill="#CCC" d="M24 2H12c-1.1 0-1.625-.125-2.5-1C8.828.328 8.1 0 7 0H2C.9 0 0 .9 0 2v17c0 1.1.9 2 2 2h22c1.1 0 2-.9 2-2V4c0-1.1-.9-2-2-2zm1 17c0 .551-.449 1-1 1H2c-.551 0-1-.449-1-1V7h24v12zm0-13H1V2c0-.551.449-1 1-1h5c.805 0 1.383.383 2 1 .75.75 1.7 1 3 1h12c.551 0 1 .449 1 1v2z"/></symbol><symbol id="sprite-dmg" viewBox="0 0 20 26"><title>dmg</title><path fill="#FFF" d="M14 0H1a1 1 0 00-1 1v24a1 1 0 001 1h18a1 1 0 001-1V6l-6-6z"/><g fill="#CCC"><path d="M14 0H1a1 1 0 00-1 1v24a1 1 0 001 1h18a1 1 0 001-1V6l-6-6zm0 1.5L18.5 6H14V1.5zM19 25H1V1h12v5c0 .55.45 1 1 1h5v18z"/><path d="M4.2 16a5.8 5.8 0 1011.6 0 5.8 5.8 0 00-11.6 0z"/></g><circle fill="#FFF" cx="10" cy="16" r="1.5"/></symbol><symbol id="sprite-doc" viewBox="0 0 20 26"><title>doc</title><path fill="#FFF" d="M14 0H1a1 1 0 00-1 1v24a1 1 0 001 1h18a1 1 0 001-1V6l-6-6z"/><path fill="none" d="M13 6V1H1v24h18V7h-5c-.55 0-1-.45-1-1z"/><path fill="none" d="M19 7h-5c-.55 0-1-.45-1-1V1H1v15h18V7z"/><path fill="none" d="M14 6h4.5L14 1.5z"/><path fill="#CCC" d="M0 25zM14 0H1a1 1 0 00-1 1v15h1V1h12v5c0 .55.45 1 1 1h5v9h1V6l-6-6zm0 6V1.5L18.5 6H14zm5 20z"/><path fill="#2C8FFF" d="M1 16h18v9H1z"/><path fill="#2272CC" d="M19 25H1v-9H0v9c0 .55.45 1 1 1h18c.55 0 1-.45 1-1v-9h-1v9z"/></symbol><symbol id="sprite-eps" viewBox="0 0 20 26"><title>eps</title><path fill="#FFF" d="M14 0H1a1 1 0 00-1 1v24a1 1 0 001 1h18a1 1 0 001-1V6l-6-6z"/><path fill="none" d="M14 6h4.5L14 1.5z"/><path fill="#CCC" d="M0 25zM14 0H1a1 1 0 00-1 1v15h1V1h12v5c0 .55.45 1 1 1h5v9h1V6l-6-6zm0 6V1.5L18.5 6H14zm5 20z"/><path fill="#FF8C05" d="M1 16h18v9H1z"/><path fill="#CC7002" d="M19 25H1v-9H0v9c0 .55.45 1 1 1h18c.55 0 1-.45 1-1v-9h-1v9z"/></symbol><symbol id="sprite-fla" viewBox="0 0 20 26"><title>fla</title><path fill="#FFF" d="M14 0H1a1 1 0 00-1 1v24a1 1 0 001 1h18a1 1 0 001-1V6l-6-6z"/><path fill="none" d="M14 6h4.5L14 1.5z"/><path fill="#CCC" d="M0 25zM14 0H1a1 1 0 00-1 1v15h1V1h12v5c0 .55.45 1 1 1h5v9h1V6l-6-6zm0 6V1.5L18.5 6H14zm5 20z"/><path fill="#FF0708" d="M1 16h18v9H1z"/><path fill="#CC1604" d="M19 25H1v-9H0v9c0 .55.45 1 1 1h18c.55 0 1-.45 1-1v-9h-1v9z"/></symbol><symbol id="sprite-fnt" viewBox="0 0 20 26"><title>fnt</title><g fill="#CCC"><path d="M14 0H1a1 1 0 00-1 1v24a1 1 0 001 1h18a1 1 0 001-1V6l-6-6zm0 1.5L18.5 6H14V1.5zM19 25H1V1h12v5c0 .55.45 1 1 1h5v18z"/><path d="M9.416 10l-4.5 11h2.25L8 19h5l.667 2h2.25l-4.5-11H9.416zM8.7 17l1.719-4.5L12.3 17H8.7z"/></g></symbol><symbol id="sprite-gen" viewBox="0 0 20 26"><title>gen</title><path fill="#FFF" d="M14 0H1a1 1 0 00-1 1v24a1 1 0 001 1h18a1 1 0 001-1V6l-6-6z"/><path fill="none" d="M13 6V1H1v24h18V7h-5c-.55 0-1-.45-1-1z"/><path fill="#CCC" d="M14 0H1a1 1 0 00-1 1v24a1 1 0 001 1h18a1 1 0 001-1V6l-6-6zm0 1.5L18.5 6H14V1.5zM19 25H1V1h12v5c0 .55.45 1 1 1h5v18z"/></symbol><symbol id="sprite-html" viewBox="0 0 20 26"><title>html</title><path fill="#FFF" d="M14 0H1a1 1 0 00-1 1v24a1 1 0 001 1h18a1 1 0 001-1V6l-6-6z"/><path fill="none" d="M14 6h4.5L14 1.5z"/><path fill="#CCC" d="M0 25zM14 0H1a1 1 0 00-1 1v15h1V1h12v5c0 .55.45 1 1 1h5v9h1V6l-6-6zm0 6V1.5L18.5 6H14zm5 20z"/><path fill="#28B091" d="M1 16h18v9H1z"/><path fill="#208D74" d="M19 25H1v-9H0v9c0 .55.45 1 1 1h18c.55 0 1-.45 1-1v-9h-1v9z"/></symbol><symbol id="sprite-img" viewBox="0 0 20 26"><title>img</title><path fill="#FFF" d="M14 0H1a1 1 0 00-1 1v24a1 1 0 001 1h18a1 1 0 001-1V6l-6-6z"/><path fill="#CCC" d="M14 0H1a1 1 0 00-1 1v24a1 1 0 001 1h18a1 1 0 001-1V6l-6-6zm0 1.5L18.5 6H14V1.5zM19 25H1V1h12v5c0 .55.45 1 1 1h5v18z"/><path fill="#CCC" d="M11.2 15.4l-2.896 3.861-1.271-1.849c-.156-.227-.411-.227-.567 0L4 21h12l-4.2-5.6c-.165-.22-.435-.22-.6 0z"/><circle fill="#CCC" cx="7.5" cy="11.5" r="1.8"/></symbol><symbol id="sprite-indd" viewBox="0 0 20 26"><title>indd</title><path fill="#FFF" d="M14 0H1a1 1 0 00-1 1v24a1 1 0 001 1h18a1 1 0 001-1V6l-6-6z"/><path fill="none" d="M14 6h4.5L14 1.5z"/><path fill="#CCC" d="M0 25zM14 0H1a1 1 0 00-1 1v15h1V1h12v5c0 .55.45 1 1 1h5v9h1V6l-6-6zm0 6V1.5L18.5 6H14zm5 20z"/><path fill="#FF1C8C" d="M1 16h18v9H1z"/><path fill="#CC1670" d="M19 25H1v-9H0v9c0 .55.45 1 1 1h18c.55 0 1-.45 1-1v-9h-1v9z"/></symbol><symbol id="sprite-key" viewBox="0 0 20 26"><title>key</title><path fill="#FFF" d="M14 0H1a1 1 0 00-1 1v24a1 1 0 001 1h18a1 1 0 001-1V6l-6-6z"/><path fill="none" d="M14 6h4.5L14 1.5z"/><path fill="#CCC" d="M0 25zM14 0H1a1 1 0 00-1 1v15h1V1h12v5c0 .55.45 1 1 1h5v9h1V6l-6-6zm0 6V1.5L18.5 6H14zm5 20z"/><path fill="#FDC831" d="M1 16h18v9H1z"/><path fill="#CAA028" d="M19 25H1v-9H0v9c0 .55.45 1 1 1h18c.55 0 1-.45 1-1v-9h-1v9z"/></symbol><symbol id="sprite-merlin" viewBox="0 0 20 26"><title>merlin</title><path fill="#FFF" d="M14 0H1a1 1 0 00-1 1v24a1 1 0 001 1h18a1 1 0 001-1V6l-6-6z"/><path fill="none" d="M14 6h4.5L14 1.5z"/><path fill="#CCC" d="M0 25zM14 0H1a1 1 0 00-1 1v15h1V1h12v5c0 .55.45 1 1 1h5v9h1V6l-6-6zm0 6V1.5L18.5 6H14zm5 20z"/><path fill="#2C8FFF" d="M1 16h18v9H1z"/><path fill="#2272CC" d="M19 25H1v-9H0v9c0 .55.45 1 1 1h18c.55 0 1-.45 1-1v-9h-1v9z"/></symbol><symbol id="sprite-net" viewBox="0 0 26 21"><title>net</title><path fill="#FFF" d="M0 19c0 1.1.9 2 2 2h22c1.1 0 2-.9 2-2V2c0-1.1-.9-2-2-2H2C.9 0 0 .9 0 2v17z"/><path fill="#CCC" d="M24 0H2C.9 0 0 .9 0 2v17c0 1.1.9 2 2 2h22c1.1 0 2-.9 2-2V2c0-1.1-.9-2-2-2zm1 19c0 .551-.449 1-1 1H2c-.551 0-1-.449-1-1V3h24v16z"/><path fill="#CCC" d="M5 8h7v7H5zM14 14h7v1h-7zm0-2h7v1h-7zm0-2h7v1h-7zm0-2h7v1h-7z"/></symbol><symbol id="sprite-numbers" viewBox="0 0 20 26"><title>numbers</title><path fill="#FFF" d="M14 0H1a1 1 0 00-1 1v24a1 1 0 001 1h18a1 1 0 001-1V6l-6-6z"/><path fill="none" d="M14 6h4.5L14 1.5z"/><path fill="#CCC" d="M0 25zM14 0H1a1 1 0 00-1 1v15h1V1h12v5c0 .55.45 1 1 1h5v9h1V6l-6-6zm0 6V1.5L18.5 6H14zm5 20z"/><path fill="#2CD240" d="M1 16h18v9H1z"/><path fill="#21A833" d="M19 25H1v-9H0v9c0 .55.45 1 1 1h18c.55 0 1-.45 1-1v-9h-1v9z"/></symbol><symbol id="sprite-pages" viewBox="0 0 20 26"><title>pages</title><path fill="#FFF" d="M14 0H1a1 1 0 00-1 1v24a1 1 0 001 1h18a1 1 0 001-1V6l-6-6z"/><path fill="none" d="M14 6h4.5L14 1.5z"/><path fill="#CCC" d="M0 25zM14 0H1a1 1 0 00-1 1v15h1V1h12v5c0 .55.45 1 1 1h5v9h1V6l-6-6zm0 6V1.5L18.5 6H14zm5 20z"/><path fill="#2C8FFF" d="M1 16h18v9H1z"/><path fill="#2272CC" d="M19 25H1v-9H0v9c0 .55.45 1 1 1h18c.55 0 1-.45 1-1v-9h-1v9z"/></symbol><symbol id="sprite-pdf" viewBox="0 0 20 26"><title>pdf</title><path fill="#FFF" d="M14 0H1a1 1 0 00-1 1v24a1 1 0 001 1h18a1 1 0 001-1V6l-6-6z"/><path fill="none" d="M14 6h4.5L14 1.5z"/><path fill="#CCC" d="M0 25zM14 0H1a1 1 0 00-1 1v15h1V1h12v5c0 .55.45 1 1 1h5v9h1V6l-6-6zm0 6V1.5L18.5 6H14zm5 20z"/><path fill="#FF0708" d="M1 16h18v9H1z"/><path fill="#CC1604" d="M19 25H1v-9H0v9c0 .55.45 1 1 1h18c.55 0 1-.45 1-1v-9h-1v9z"/></symbol><symbol id="sprite-ppt" viewBox="0 0 20 26"><title>ppt</title><path fill="#FFF" d="M14 0H1a1 1 0 00-1 1v24a1 1 0 001 1h18a1 1 0 001-1V6l-6-6z"/><path fill="none" d="M14 6h4.5L14 1.5z"/><path fill="#CCC" d="M0 25zM14 0H1a1 1 0 00-1 1v15h1V1h12v5c0 .55.45 1 1 1h5v9h1V6l-6-6zm0 6V1.5L18.5 6H14zm5 20z"/><path fill="#FDC831" d="M1 16h18v9H1z"/><path fill="#CAA028" d="M19 25H1v-9H0v9c0 .55.45 1 1 1h18c.55 0 1-.45 1-1v-9h-1v9z"/></symbol><symbol id="sprite-psd" viewBox="0 0 20 26"><title>psd</title><path fill="#FFF" d="M14 0H1a1 1 0 00-1 1v24a1 1 0 001 1h18a1 1 0 001-1V6l-6-6z"/><path fill="none" d="M14 6h4.5L14 1.5z"/><path fill="#CCC" d="M0 25zM1 1h12v5c0 .55.45 1 1 1h5v9h1V6l-6-6H1a1 1 0 00-1 1v15h1M14 6V1.5L18.5 6H14zm5 20z"/><path fill="#26C8EC" d="M1 16h18v9H1z"/><path fill="#1EA0BC" d="M19 25H1v-9H0v9c0 .55.45 1 1 1h18c.55 0 1-.45 1-1v-9h-1v9z"/></symbol><symbol id="sprite-site" viewBox="0 0 26 21"><title>site</title><path fill="#FFF" d="M0 19c0 1.1.9 2 2 2h22c1.1 0 2-.9 2-2V2c0-1.1-.9-2-2-2H2C.9 0 0 .9 0 2v17z"/><path fill="#CCC" d="M24 0H2C.9 0 0 .9 0 2v17c0 1.1.9 2 2 2h22c1.1 0 2-.9 2-2V2c0-1.1-.9-2-2-2zm1 19c0 .551-.449 1-1 1H2c-.551 0-1-.449-1-1V3h24v16z"/><path fill="#CCC" d="M5 8h7v7H5zM14 14h7v1h-7zm0-2h7v1h-7zm0-2h7v1h-7zm0-2h7v1h-7z"/></symbol><symbol id="sprite-slide" viewBox="0 0 20 26"><title>slide</title><path fill="#FFF" d="M14 0H1a1 1 0 00-1 1v24a1 1 0 001 1h18a1 1 0 001-1V6l-6-6z"/><path fill="#CCC" d="M14 0H1a1 1 0 00-1 1v24a1 1 0 001 1h18a1 1 0 001-1V6l-6-6zm0 1.5L18.5 6H14V1.5zM19 25H1V1h12v5c0 .55.45 1 1 1h5v18z"/><path fill="#CCC" d="M6 12v2H4v7h10v-2h2v-7H6zm7 8H5v-5h8v5zm2-2h-1v-4H7v-1h8v5z"/></symbol><symbol id="sprite-snd" viewBox="0 0 20 26"><title>snd</title><path fill="#FFF" d="M14 0H1a1 1 0 00-1 1v24a1 1 0 001 1h18a1 1 0 001-1V6l-6-6z"/><g fill="#CCC"><path d="M14 0H1a1 1 0 00-1 1v24a1 1 0 001 1h18a1 1 0 001-1V6l-6-6zm0 1.5L18.5 6H14V1.5zM19 25H1V1h12v5c0 .55.45 1 1 1h5v18z"/><path d="M10 17.342c-.597-.258-1.409-.253-2.195.076-1.274.533-1.995 1.709-1.611 2.626.384.917 1.728 1.228 3.001.695 0 0 1.805-.63 1.805-2.739v-5.048L14.667 14 10 10v7.342z"/></g></symbol><symbol id="sprite-sql" viewBox="0 0 20 26"><title>sql</title><path fill="#FFF" d="M14 0H1a1 1 0 00-1 1v24a1 1 0 001 1h18a1 1 0 001-1V6l-6-6z"/><path fill="none" d="M14 6h4.5L14 1.5z"/><path fill="#CCC" d="M0 25zM1 1h12v5c0 .55.45 1 1 1h5v9h1V6l-6-6H1a1 1 0 00-1 1v15h1M14 6V1.5L18.5 6H14zm5 20z"/><path fill="#26C8EC" d="M1 16h18v9H1z"/><path fill="#1EA0BC" d="M19 25H1v-9H0v9c0 .55.45 1 1 1h18c.55 0 1-.45 1-1v-9h-1v9z"/></symbol><symbol id="sprite-swf" viewBox="0 0 20 26"><title>swf</title><path fill="#FFF" d="M14 0H1a1 1 0 00-1 1v24a1 1 0 001 1h18a1 1 0 001-1V6l-6-6z"/><path fill="none" d="M14 6h4.5L14 1.5z"/><path fill="#CCC" d="M0 25zM14 0H1a1 1 0 00-1 1v15h1V1h12v5c0 .55.45 1 1 1h5v9h1V6l-6-6zm0 6V1.5L18.5 6H14zm5 20z"/><path fill="#FF0708" d="M1 16h18v9H1z"/><path fill="#CC1604" d="M19 25H1v-9H0v9c0 .55.45 1 1 1h18c.55 0 1-.45 1-1v-9h-1v9z"/></symbol><symbol id="sprite-txt" viewBox="0 0 20 26"><title>txt</title><path fill="#FFF" d="M14 0H1a1 1 0 00-1 1v24a1 1 0 001 1h18a1 1 0 001-1V6l-6-6z"/><g fill="#CCC"><path d="M14 0H1a1 1 0 00-1 1v24a1 1 0 001 1h18a1 1 0 001-1V6l-6-6zm0 1.5L18.5 6H14V1.5zM19 25H1V1h12v5c0 .55.45 1 1 1h5v18z"/><path d="M5 11h10v1H5zm0 3h10v1H5zm0 3h10v1H5zm0 3h5v1H5z"/></g></symbol><symbol id="sprite-vid" viewBox="0 0 20 26"><title>vid</title><path fill="#FFF" d="M14 0H1a1 1 0 00-1 1v24a1 1 0 001 1h18a1 1 0 001-1V6l-6-6z"/><g fill="#CCC"><path d="M14 0H1a1 1 0 00-1 1v24a1 1 0 001 1h18a1 1 0 001-1V6l-6-6zm0 1.5L18.5 6H14V1.5zM19 25H1V1h12v5c0 .55.45 1 1 1h5v18z"/><path d="M8 19l6-3.5L8 12z"/></g></symbol><symbol id="sprite-xls" viewBox="0 0 20 26"><title>xls</title><path fill="#FFF" d="M14 0H1a1 1 0 00-1 1v24a1 1 0 001 1h18a1 1 0 001-1V6l-6-6z"/><path fill="none" d="M13 6V1H1v24h18V7h-5c-.55 0-1-.45-1-1z"/><path fill="none" d="M19 7h-5c-.55 0-1-.45-1-1V1H1v15h18V7z"/><path fill="none" d="M14 6h4.5L14 1.5z"/><path fill="#CCC" d="M0 25zM14 0H1a1 1 0 00-1 1v15h1V1h12v5c0 .55.45 1 1 1h5v9h1V6l-6-6zm0 6V1.5L18.5 6H14zm5 20z"/><path fill="#2CD240" d="M1 16h18v9H1z"/><path fill="#21A833" d="M19 25H1v-9H0v9c0 .55.45 1 1 1h18c.55 0 1-.45 1-1v-9h-1v9z"/></symbol><symbol id="sprite-zip" viewBox="0 0 20 26"><title>zip</title><path fill="#FFF" d="M14 0H1a1 1 0 00-1 1v24a1 1 0 001 1h18a1 1 0 001-1V6l-6-6z"/><g fill="#CCC"><path d="M14 0H1a1 1 0 00-1 1v24a1 1 0 001 1h18a1 1 0 001-1V6l-6-6zm0 1.5L18.5 6H14V1.5zM19 25H1V1h12v5c0 .55.45 1 1 1h5v18z"/><path d="M8 16h2v1H8zm2-1h2v1h-2zm-2-1h2v1H8zm2-1h2v1h-2zm-2-1h2v1H8zm2-1h2v1h-2zm-2-1h2v1H8zm0-2h2v1H8zm2 1h2v1h-2zM8 24h4v-6H8v6zm1-5h2v2H9v-2z"/></g></symbol><symbol id="sprite-wysiwyg_add_col_after" viewBox="0 0 24 24"><title>wysiwyg_add_col_after</title><path fill="currentColor" d="M5 14a5 5 0 110 10 5 5 0 010-10zm2.5 5.938a.937.937 0 100-1.875H6.25a.312.312 0 01-.313-.313V16.5a.937.937 0 10-1.875 0v1.25c0 .173-.14.313-.312.313H2.5a.937.937 0 100 1.875h1.25c.173 0 .313.14.313.312v1.25a.937.937 0 101.875 0v-1.25c0-.173.14-.313.312-.313H7.5zM16 19a3 3 0 006 0V5a3 3 0 00-6 0v14zm-2 0V5a5 5 0 0110 0v14a5 5 0 01-10 0z"/></symbol><symbol id="sprite-wysiwyg_add_col_before" viewBox="0 0 24 24"><title>wysiwyg_add_col_before</title><path fill="currentColor" d="M19 14a5 5 0 110 10 5 5 0 010-10zm2.5 5.938a.937.937 0 100-1.875h-1.25a.312.312 0 01-.313-.313V16.5a.937.937 0 10-1.875 0v1.25c0 .173-.14.313-.312.313H16.5a.937.937 0 100 1.875h1.25c.173 0 .313.14.313.312v1.25a.937.937 0 101.875 0v-1.25c0-.173.14-.313.312-.313h1.25zM2 19a3 3 0 006 0V5a3 3 0 10-6 0v14zm-2 0V5a5 5 0 1110 0v14a5 5 0 01-10 0z"/></symbol><symbol id="sprite-wysiwyg_add_row_after" viewBox="0 0 24 24"><title>wysiwyg_add_row_after</title><path fill="currentColor" d="M19 0a5 5 0 110 10 5 5 0 010-10zm2.5 5.938a.937.937 0 100-1.875h-1.25a.312.312 0 01-.313-.313V2.5a.937.937 0 10-1.875 0v1.25c0 .173-.14.313-.312.313H16.5a.937.937 0 100 1.875h1.25c.173 0 .313.14.313.312V7.5a.937.937 0 101.875 0V6.25c0-.173.14-.313.312-.313h1.25zM5 16a3 3 0 000 6h14a3 3 0 000-6H5zm0-2h14a5 5 0 010 10H5a5 5 0 010-10z"/></symbol><symbol id="sprite-wysiwyg_add_row_before" viewBox="0 0 24 24"><title>wysiwyg_add_row_before</title><path fill="currentColor" d="M19 14a5 5 0 110 10 5 5 0 010-10zm2.5 5.938a.937.937 0 100-1.875h-1.25a.312.312 0 01-.313-.313V16.5a.937.937 0 10-1.875 0v1.25c0 .173-.14.313-.312.313H16.5a.937.937 0 100 1.875h1.25c.173 0 .313.14.313.312v1.25a.937.937 0 101.875 0v-1.25c0-.173.14-.313.312-.313h1.25zM5 2a3 3 0 100 6h14a3 3 0 000-6H5zm0-2h14a5 5 0 010 10H5A5 5 0 115 0z"/></symbol><symbol id="sprite-wysiwyg_bold" viewBox="0 0 24 24"><title>text-bold</title><path fill="currentColor" d="M17.194 10.962A6.271 6.271 0 0012.844.248H4.3a1.25 1.25 0 000 2.5h1.013a.25.25 0 01.25.25V21a.25.25 0 01-.25.25H4.3a1.25 1.25 0 100 2.5h9.963a6.742 6.742 0 002.93-12.786zm-4.35-8.214a3.762 3.762 0 010 7.523H8.313a.25.25 0 01-.25-.25V3a.25.25 0 01.25-.25zm1.42 18.5H8.313a.25.25 0 01-.25-.25v-7.977a.25.25 0 01.25-.25h5.951a4.239 4.239 0 010 8.477z"/></symbol><symbol id="sprite-wysiwyg_checklist" viewBox="0 0 24 24"><title>checklist-alternate</title><path fill="currentColor" d="M21 0H3a3 3 0 00-3 3v18a3 3 0 003 3h18a3 3 0 003-3V3a3 3 0 00-3-3zm1 21a1 1 0 01-1 1H3a1 1 0 01-1-1V3a1 1 0 011-1h18a1 1 0 011 1z"/><path fill="currentColor" d="M11.249 4.5a1.251 1.251 0 00-1.75.25L7.365 7.6l-.482-.481a1.25 1.25 0 00-1.767 1.764l1.5 1.5a1.262 1.262 0 001.884-.134l3-4a1.25 1.25 0 00-.251-1.749zm0 9a1.251 1.251 0 00-1.75.25L7.365 16.6l-.482-.481a1.25 1.25 0 10-1.767 1.768l1.5 1.5a1.265 1.265 0 001.884-.138l3-4a1.25 1.25 0 00-.251-1.749zM18.5 7.749H14a1.25 1.25 0 000 2.5h4.5a1.25 1.25 0 000-2.5zm0 8H14a1.25 1.25 0 000 2.5h4.5a1.25 1.25 0 100-2.5z"/></symbol><symbol id="sprite-wysiwyg_code" viewBox="0 0 24 24"><title>angle-brackets</title><path fill="currentColor" d="M9.147 21.552a1.244 1.244 0 01-.895-.378L.84 13.561a2.257 2.257 0 010-3.125l7.412-7.613a1.25 1.25 0 011.791 1.744l-6.9 7.083a.5.5 0 000 .7l6.9 7.082a1.25 1.25 0 01-.9 2.122zm5.707 0a1.25 1.25 0 01-.9-2.122l6.9-7.083a.5.5 0 000-.7l-6.9-7.082a1.25 1.25 0 011.791-1.744l7.411 7.612a2.257 2.257 0 010 3.125l-7.412 7.614a1.244 1.244 0 01-.89.38zm6.514-9.373z"/></symbol><symbol id="sprite-wysiwyg_combine_cells" viewBox="0 0 24 24"><title>wysiwyg_combine_cells</title><path fill="currentColor" d="M2 19a3 3 0 003 3h14a3 3 0 003-3V5a3 3 0 00-3-3H5a3 3 0 00-3 3v14zm-2 0V5a5 5 0 015-5h14a5 5 0 015 5v14a5 5 0 01-5 5H5a5 5 0 01-5-5zm12-9a1 1 0 011 1v2a1 1 0 01-2 0v-2a1 1 0 011-1zm0 6a1 1 0 011 1v3a1 1 0 01-2 0v-3a1 1 0 011-1zm0-13a1 1 0 011 1v3a1 1 0 01-2 0V4a1 1 0 011-1z"/></symbol><symbol id="sprite-wysiwyg_delete_col" viewBox="0 0 24 24"><title>wysiwyg_delete_col</title><path fill="currentColor" d="M12.641 21.931a7.01 7.01 0 001.146 1.74A5 5 0 017 19V5a5 5 0 1110 0v7.29a6.972 6.972 0 00-2 .965V5a3 3 0 00-6 0v14a3 3 0 003.641 2.931zM19 14a5 5 0 110 10 5 5 0 010-10zm-2.5 5.938h5a.937.937 0 100-1.875h-5a.937.937 0 100 1.875z"/></symbol><symbol id="sprite-wysiwyg_delete_row" viewBox="0 0 24 24"><title>wysiwyg_delete_row</title><path fill="currentColor" d="M13.255 15a6.972 6.972 0 00-.965 2H5A5 5 0 015 7h14a5 5 0 014.671 6.787 7.01 7.01 0 00-1.74-1.146A3 3 0 0019 9H5a3 3 0 000 6h8.255zM19 14a5 5 0 110 10 5 5 0 010-10zm-2.5 5.938h5a.937.937 0 100-1.875h-5a.937.937 0 100 1.875z"/></symbol><symbol id="sprite-wysiwyg_delete_table" viewBox="0 0 24 24"><title>wysiwyg_delete_table</title><path fill="currentColor" d="M19 14a5 5 0 110 10 5 5 0 010-10zm-2.5 5.938h5a.937.937 0 100-1.875h-5a.937.937 0 100 1.875zM12.29 17H9v5h3.674c.356.75.841 1.426 1.427 2H5a5 5 0 01-5-5V5a5 5 0 015-5h14a5 5 0 015 5v2.823a.843.843 0 010 .354V14.1a7.018 7.018 0 00-2-1.427V9h-5v3.29a6.972 6.972 0 00-2 .965V9H9v6h4.255a6.972 6.972 0 00-.965 2zM17 7h5V5a3 3 0 00-3-3h-2v5zm-2 0V2H9v5h6zM7 2H5a3 3 0 00-3 3v2h5V2zM2 9v6h5V9H2zm0 8v2a3 3 0 003 3h2v-5H2z"/></symbol><symbol id="sprite-wysiwyg_github" viewBox="0 0 24 24"><title>wysiwyg_github</title><path fill="currentColor" d="M11.999.5C5.649.5.5 5.648.5 12c0 5.082 3.294 9.392 7.865 10.914.574.103.756-.236.756-.541 0-.274.006-1.037 0-1.997-3.198.694-3.861-1.515-3.861-1.515-.523-1.329-1.275-1.682-1.275-1.682-1.045-.714.077-.699.077-.699 1.153.08 1.762 1.184 1.762 1.184 1.026 1.758 2.691 1.25 3.346.956.106-.742.402-1.251.731-1.536-2.554-.292-5.238-1.277-5.238-5.686 0-1.255.448-2.281 1.184-3.086-.118-.289-.514-1.46.112-3.043 0 0 .967-.309 3.162 1.18a11.011 11.011 0 012.88-.388c.976.005 1.96.132 2.88.388 2.195-1.488 3.159-1.18 3.159-1.18.627 1.583.232 2.754.114 3.043.736.805 1.183 1.831 1.183 3.086 0 4.42-2.689 5.391-5.251 5.674.412.357.787 1.047.787 2.12v3.184c0 .308.186.647.77.536C20.209 21.389 23.5 17.08 23.5 12 23.5 5.648 18.352.5 11.999.5z"/></symbol><symbol id="sprite-wysiwyg_hr" viewBox="0 0 24 24"><title>wysiwyg_hr</title><path fill="currentColor" d="M5 13a1 1 0 010-2h14a1 1 0 010 2H5z"/></symbol><symbol id="sprite-wysiwyg_image" viewBox="0 0 24 24"><title>paginate-filter-picture-alternate</title><circle fill="currentColor" cx="9.75" cy="6.247" r="2.25"/><path fill="currentColor" d="M16.916 8.71A1.027 1.027 0 0016 8.158a1.007 1.007 0 00-.892.586l-1.558 3.434a.249.249 0 01-.422.053l-.82-1.024a1 1 0 00-.813-.376 1.007 1.007 0 00-.787.426L7.59 15.71a.5.5 0 00.41.79h12a.5.5 0 00.425-.237.5.5 0 00.022-.486z"/><path fill="currentColor" d="M22 0H5.5a2 2 0 00-2 2v16.5a2 2 0 002 2H22a2 2 0 002-2V2a2 2 0 00-2-2zm-.145 18.354a.5.5 0 01-.354.146H6a.5.5 0 01-.5-.5V2.5A.5.5 0 016 2h15.5a.5.5 0 01.5.5V18a.5.5 0 01-.145.351z"/><path fill="currentColor" d="M19.5 22h-17a.5.5 0 01-.5-.5v-17a1 1 0 00-2 0V22a2 2 0 002 2h17.5a1 1 0 000-2z"/></symbol><symbol id="sprite-wysiwyg_italic" viewBox="0 0 24 24"><title>text-italic</title><path fill="currentColor" d="M22.5.248h-7.637a1.25 1.25 0 000 2.5h1.086a.25.25 0 01.211.384L4.78 21.017a.5.5 0 01-.422.231H1.5a1.25 1.25 0 000 2.5h7.637a1.25 1.25 0 000-2.5H8.051a.25.25 0 01-.211-.384L19.22 2.98a.5.5 0 01.422-.232H22.5a1.25 1.25 0 000-2.5z"/></symbol><symbol id="sprite-wysiwyg_link" viewBox="0 0 24 24"><title>hyperlink-2</title><path fill="currentColor" d="M12.406 14.905a1 1 0 00-.543 1.307 1 1 0 01-.217 1.09l-2.828 2.829a2 2 0 01-2.828 0L3.868 18.01a2 2 0 010-2.829L6.7 12.353a1.013 1.013 0 011.091-.217 1 1 0 00.763-1.849 3.034 3.034 0 00-3.268.652l-2.832 2.828a4.006 4.006 0 000 5.657l2.122 2.121a4 4 0 005.656 0l2.829-2.828a3.008 3.008 0 00.651-3.27 1 1 0 00-1.306-.542z"/><path fill="currentColor" d="M7.757 16.241a1.011 1.011 0 001.414 0l7.779-7.778a1 1 0 00-1.414-1.414l-7.779 7.778a1 1 0 000 1.414z"/><path fill="currentColor" d="M21.546 4.574l-2.121-2.121a4.006 4.006 0 00-5.657 0l-2.829 2.828a3.006 3.006 0 00-.651 3.269 1 1 0 101.849-.764 1 1 0 01.217-1.086l2.828-2.828a2 2 0 012.829 0l2.121 2.121a2 2 0 010 2.829L17.3 11.645a1.015 1.015 0 01-1.091.217 1 1 0 00-.765 1.849 3.026 3.026 0 003.27-.651l2.828-2.828a4.007 4.007 0 00.004-5.658z"/></symbol><symbol id="sprite-wysiwyg_mention" viewBox="0 0 24 24"><title>read-email-at-alternate</title><path fill="currentColor" d="M12 .5A11.634 11.634 0 00.262 12 11.634 11.634 0 0012 23.5a11.836 11.836 0 006.624-2 1.25 1.25 0 10-1.393-2.076A9.34 9.34 0 0112 21a9.132 9.132 0 01-9.238-9A9.132 9.132 0 0112 3a9.132 9.132 0 019.238 9v.891a1.943 1.943 0 01-3.884 0V12A5.355 5.355 0 1012 17.261a5.376 5.376 0 003.861-1.634 4.438 4.438 0 007.877-2.736V12A11.634 11.634 0 0012 .5zm0 14.261A2.763 2.763 0 1114.854 12 2.812 2.812 0 0112 14.761z"/></symbol><symbol id="sprite-wysiwyg_ol" viewBox="0 0 24 24"><title>list-numbers</title><path fill="currentColor" d="M7.75 4.5h15a1 1 0 000-2h-15a1 1 0 000 2zm15 6.5h-15a1 1 0 100 2h15a1 1 0 000-2zm0 8.5h-15a1 1 0 000 2h15a1 1 0 000-2zM2.212 17.248a2 2 0 00-1.933 1.484.75.75 0 101.45.386.5.5 0 11.483.63.75.75 0 100 1.5.5.5 0 11-.482.635.75.75 0 10-1.445.4 2 2 0 103.589-1.648.251.251 0 010-.278 2 2 0 00-1.662-3.111zm2.038-6.5a2 2 0 00-4 0 .75.75 0 001.5 0 .5.5 0 011 0 1.031 1.031 0 01-.227.645L.414 14.029A.75.75 0 001 15.248h2.5a.75.75 0 000-1.5h-.419a.249.249 0 01-.195-.406L3.7 12.33a2.544 2.544 0 00.55-1.582zM4 5.248h-.25A.25.25 0 013.5 5V1.623A1.377 1.377 0 002.125.248H1.5a.75.75 0 000 1.5h.25A.25.25 0 012 2v3a.25.25 0 01-.25.25H1.5a.75.75 0 000 1.5H4a.75.75 0 000-1.5z"/></symbol><symbol id="sprite-wysiwyg_paragraph" viewBox="0 0 24 24"><title>paragraph</title><path fill="currentColor" d="M22.5.248H7.228a6.977 6.977 0 100 13.954h2.318a.25.25 0 01.25.25V22.5a1.25 1.25 0 002.5 0V3a.25.25 0 01.25-.25h3.682a.25.25 0 01.25.25v19.5a1.25 1.25 0 002.5 0V3a.249.249 0 01.25-.25H22.5a1.25 1.25 0 000-2.5zM9.8 11.452a.25.25 0 01-.25.25H7.228a4.477 4.477 0 110-8.954h2.318A.25.25 0 019.8 3z"/></symbol><symbol id="sprite-wysiwyg_quote" viewBox="0 0 24 24"><title>close-quote</title><path fill="currentColor" d="M18.559 3.932a4.942 4.942 0 100 9.883 4.609 4.609 0 001.115-.141.25.25 0 01.276.368 6.83 6.83 0 01-5.878 3.523 1.25 1.25 0 000 2.5 9.71 9.71 0 009.428-9.95V8.873a4.947 4.947 0 00-4.941-4.941zm-12.323 0a4.942 4.942 0 000 9.883 4.6 4.6 0 001.115-.141.25.25 0 01.277.368 6.83 6.83 0 01-5.878 3.523 1.25 1.25 0 000 2.5 9.711 9.711 0 009.428-9.95V8.873a4.947 4.947 0 00-4.942-4.941z"/></symbol><symbol id="sprite-wysiwyg_redo" viewBox="0 0 24 24"><title>redo</title><path fill="currentColor" d="M22.608.161a.5.5 0 00-.545.108L19.472 2.86a.25.25 0 01-.292.045 12.537 12.537 0 00-12.966.865A12.259 12.259 0 006.1 23.632a1.25 1.25 0 001.476-2.018 9.759 9.759 0 01.091-15.809 10 10 0 019.466-1.1.25.25 0 01.084.409l-1.85 1.85a.5.5 0 00.354.853h6.7a.5.5 0 00.5-.5V.623a.5.5 0 00-.313-.462z"/></symbol><symbol id="sprite-wysiwyg_remove" viewBox="0 0 24 24"><title>delete-2-alternate</title><path fill="currentColor" d="M20.485 3.511A12.01 12.01 0 1024 12a12.009 12.009 0 00-3.515-8.489zm-1.767 15.21A9.51 9.51 0 1121.5 12a9.508 9.508 0 01-2.782 6.721z"/><path fill="currentColor" d="M16.987 7.01a1.275 1.275 0 00-1.8 0l-3.177 3.177L8.829 7.01a1.277 1.277 0 00-1.805 1.806l3.176 3.177-3.176 3.178a1.277 1.277 0 001.805 1.806l3.176-3.177 3.177 3.178a1.277 1.277 0 001.8-1.806l-3.176-3.178 3.176-3.177a1.278 1.278 0 00.005-1.807z"/></symbol><symbol id="sprite-wysiwyg_strike" viewBox="0 0 24 24"><title>text-strike-through</title><path fill="currentColor" d="M23.75 12.952A1.25 1.25 0 0022.5 11.7h-8.936a.492.492 0 01-.282-.09c-.722-.513-1.482-.981-2.218-1.432-2.8-1.715-4.5-2.9-4.5-4.863 0-2.235 2.207-2.569 3.523-2.569a4.54 4.54 0 013.081.764 2.662 2.662 0 01.447 1.99v.3a1.25 1.25 0 102.5 0v-.268a4.887 4.887 0 00-1.165-3.777C13.949.741 12.359.248 10.091.248c-3.658 0-6.023 1.989-6.023 5.069 0 2.773 1.892 4.512 4 5.927a.25.25 0 01-.139.458H1.5a1.25 1.25 0 000 2.5h10.977a.251.251 0 01.159.058 4.339 4.339 0 011.932 3.466c0 3.268-3.426 3.522-4.477 3.522-1.814 0-3.139-.405-3.834-1.173a3.394 3.394 0 01-.65-2.7 1.25 1.25 0 00-2.488-.246A5.76 5.76 0 004.4 21.753c1.2 1.324 3.114 2 5.688 2 4.174 0 6.977-2.42 6.977-6.022a6.059 6.059 0 00-.849-3.147.25.25 0 01.216-.377H22.5a1.25 1.25 0 001.25-1.255z"/></symbol><symbol id="sprite-wysiwyg_table" viewBox="0 0 24 24"><title>wysiwyg_table</title><path fill-rule="evenodd" fill="currentColor" d="M17 17v5h2a3 3 0 003-3v-2h-5zm-2 0H9v5h6v-5zm2-2h5V9h-5v6zm-2 0V9H9v6h6zm2-8h5V5a3 3 0 00-3-3h-2v5zm-2 0V2H9v5h6zm9 9.177V19a5 5 0 01-5 5H5a5 5 0 01-5-5V5a5 5 0 015-5h14a5 5 0 015 5v2.823a.843.843 0 010 .354v7.646a.843.843 0 010 .354zM7 2H5a3 3 0 00-3 3v2h5V2zM2 9v6h5V9H2zm0 8v2a3 3 0 003 3h2v-5H2z"/></symbol><symbol id="sprite-wysiwyg_ul" viewBox="0 0 24 24"><title>list-bullets</title><circle fill="currentColor" cx="2.5" cy="3.998" r="2.5"/><circle fill="currentColor" cx="2.5" cy="11.998" r="2.5"/><circle fill="currentColor" cx="2.5" cy="19.998" r="2.5"/><path fill="currentColor" d="M8.5 5H23a1 1 0 000-2H8.5a1 1 0 000 2zM23 11H8.5a1 1 0 000 2H23a1 1 0 000-2zm0 8H8.5a1 1 0 000 2H23a1 1 0 000-2z"/></symbol><symbol id="sprite-wysiwyg_underline" viewBox="0 0 24 24"><title>text-underline</title><path fill="currentColor" d="M22.5 21.248h-21a1.25 1.25 0 000 2.5h21a1.25 1.25 0 000-2.5zM1.978 2.748h1.363a.25.25 0 01.25.25v8.523a8.409 8.409 0 0016.818 0V3a.25.25 0 01.25-.25h1.363a1.25 1.25 0 000-2.5H16.3a1.25 1.25 0 000 2.5h1.363a.25.25 0 01.25.25v8.523a5.909 5.909 0 01-11.818 0V3a.25.25 0 01.25-.25H7.7a1.25 1.25 0 100-2.5H1.978a1.25 1.25 0 000 2.5z"/></symbol><symbol id="sprite-wysiwyg_undo" viewBox="0 0 24 24"><title>undo</title><path fill="currentColor" d="M17.786 3.77a12.542 12.542 0 00-12.965-.865.249.249 0 01-.292-.045L1.937.269A.507.507 0 001.392.16a.5.5 0 00-.308.462v6.7a.5.5 0 00.5.5h6.7a.5.5 0 00.354-.854L6.783 5.115a.253.253 0 01-.068-.228.249.249 0 01.152-.181 10 10 0 019.466 1.1 9.759 9.759 0 01.094 15.809 1.25 1.25 0 001.473 2.016 12.122 12.122 0 005.013-9.961 12.125 12.125 0 00-5.127-9.9z"/></symbol><symbol id="sprite-add" viewBox="0 0 10 10"><title>icon_add</title><path fill="currentColor" d="M10 4H6V0H4v4H0v2h4v4h2V6h4V4z"/></symbol><symbol id="sprite-arrow-external" viewBox="0 0 8 8"><title>arrow-external</title><path fill="currentColor" d="M6.167 1.014h-3.9L2.28 0H8v5.72H6.973V1.833L1.59 7.215.785 6.41l5.382-5.395z"/></symbol><symbol id="sprite-arrow-sort" viewBox="0 0 9 11"><title>arrow-sort</title><path fill="currentColor" d="M5.072 8.043l2.756-2.756.715.728L4.5 10.058.457 6.015l.728-.728 2.743 2.756V.425h1.144v7.618z"/></symbol><symbol id="sprite-check" viewBox="0 0 11 11"><title>check</title><path fill="none" stroke="currentColor" stroke-width="1.5" stroke-miterlimit="10" d="M1.333 5.77L3.61 8.994 9.583.84"/></symbol><symbol id="sprite-close_icon" viewBox="0 0 10 10"><title>close_icon</title><path stroke="currentColor" d="M1 1l8 8m0-8L1 9" fill="none" stroke-miterlimit="10" stroke-width="1.5"/></symbol><symbol id="sprite-close_modal" viewBox="0 0 16 16"><title>close_modal</title><path stroke="currentColor" d="M1 1l14 14m0-14L1 15" fill="none" stroke-miterlimit="10" stroke-width="1.5"/></symbol><symbol id="sprite-colors" viewBox="-0.2 -0.2 17 17"><title>colors</title><circle cx="8.3" cy="3.8" r="3.8" fill="currentColor"/><circle cx="3.8" cy="12.8" r="3.8" fill="currentColor"/><circle cx="12.8" cy="12.8" r="3.8" fill="currentColor"/></symbol><symbol id="sprite-content-editor" viewBox="0 0 14 13"><title>content-editor</title><path fill="currentColor" d="M0 9h14v1H0zm0 3h14v1H0zM0 0h13.9v7H0z"/></symbol><symbol id="sprite-crop" viewBox="0 0 16 18"><title>icon_crop</title><path fill="currentColor" d="M3 0h2v3H3zm8 15h2v3h-2zm0-4h2V4H0v2h11v5z"/><path fill="currentColor" d="M5 12V7H3v7h13v-2H5z"/></symbol><symbol id="sprite-download" viewBox="0 0 12 16"><title>icon_download</title><path fill="currentColor" d="M5 0h2v11H5z"/><path fill="none" stroke="currentColor" stroke-miterlimit="10" stroke-width="1.5" d="M11 7.021l-5 5-5-5"/><path fill="currentColor" d="M0 15h12v1H0z"/></symbol><symbol id="sprite-drag" viewBox="0 0 8 17"><title>icon_drag</title><path fill="currentColor" d="M6.947 5.053L4 2.105 1.053 5.053 0 4l4-4 4 4zM4 16.872l-4-4 1.053-1.052L4 14.767l2.947-2.947L8 12.872z"/><path fill="currentColor" d="M3 2h2v13H3z"/></symbol><symbol id="sprite-dropdown_default" viewBox="0 0 9 5"><title>dropdown_default</title><path d="M.5.1l4 4 4-4h-8z"/></symbol><symbol id="sprite-dropdown_module" viewBox="0 0 10 6"><title>dropdown_module</title><path fill="none" stroke="currentColor" d="M1 1l4 4 4-4"/></symbol><symbol id="sprite-edit_large" viewBox="0 0 14 14"><title>edit_large</title><path fill="currentColor" d="M0 11.51v2.556h2.556zm14.252-9.101L4.158 12.132l-2.41-2.41L11.842 0z"/></symbol><symbol id="sprite-edit" viewBox="0 0 13 13"><title>edit</title><path fill="currentColor" d="M.172 10.444V13h2.556zm1.407-1.131L10.264.628l2.409 2.41-8.685 8.684z"/></symbol><symbol id="sprite-editor" viewBox="0 0 14 13"><title>icon_editor</title><path fill="currentColor" d="M0 9h14v1H0zm0 3h14v1H0zM0 0h14v7H0z"/></symbol><symbol id="sprite-expand" viewBox="0 0 10 10"><title>icon_expand</title><path fill="currentColor" d="M10 0H4v2h4v4h2V0zM0 4h2v4h4v2H0V4z"/></symbol><symbol id="sprite-fix-grid" viewBox="0 0 18 14"><title>fix-grid</title><path fill="currentColor" d="M10 0h8v6h-8zM0 0h8v6H0zm0 8h8v6H0zm10 0h8v6h-8z"/></symbol><symbol id="sprite-flex-grid" viewBox="0 0 18 17"><title>flex-grid</title><path d="M0 0h8v5H0zm10 11h8v6h-8zM0 7h8v7H0zm10-7h8v9h-8z" fill="currentColor"/></symbol><symbol id="sprite-google-sign-in" viewBox="0 0 23 24"><title>google-sign-in</title><path fill="#4285F4" d="M21.789 10.133H12V14h5.551c-.243 1.312-.983 2.61-2.095 3.355l3.393 2.635c1.985-1.828 3.131-4.52 3.131-7.718 0-.745-.067-1.451-.191-2.139z"/><path fill="#34A853" d="M15.456 17.355c-.94.63-2.143 1.002-3.556 1.002-2.735 0-5.05-1.847-5.875-4.329l-3.508 2.72a10.496 10.496 0 009.383 5.785c2.835 0 5.212-.94 6.949-2.544l-3.393-2.634z"/><path fill="#FBBC05" d="M6.025 10.038l-3.508-2.72A10.495 10.495 0 001.4 12.033c0 1.694.406 3.298 1.117 4.715l3.508-2.72a6.312 6.312 0 01-.329-1.995 6.284 6.284 0 01.329-1.995z"/><path fill="#EA4335" d="M11.9 1.533a10.495 10.495 0 00-9.383 5.785l3.508 2.72c.825-2.482 3.14-4.329 5.875-4.329 1.542 0 2.926.53 4.014 1.57l3.012-3.012C17.107 2.574 14.73 1.533 11.9 1.533z"/></symbol><symbol id="sprite-image-text" viewBox="0 0 30 13"><title>image-text</title><path fill="currentColor" d="M17 0h13v1H17zm0 3h13v1H17zm0 3h13v1H17zm0 3h13v1H17zm0 3h7v1h-7zM0 0h13v13H0z"/></symbol><symbol id="sprite-image" viewBox="0 0 19 15"><title>image</title><g fill="currentColor"><path d="M11.512 5.282l-4.695 6.742L5.1 9.628a.491.491 0 00-.847 0L.5 14.843H19l-6.659-9.561a.472.472 0 00-.829 0z"/><circle cx="5" cy="3" r="2.85"/></g></symbol><symbol id="sprite-info" viewBox="0 0 21 21"><title>icon_info</title><path fill="currentColor" d="M9.8 14.488a22.887 22.887 0 00.135-3.1c0-.557.03-1.281.03-2.2 0-.679-.1-.588-1.356-.648V8.3c1-.029 2.189-.09 3.183-.18-.09 2.456-.12 4.007-.12 4.625a7.494 7.494 0 00.075 1.778c.076.1.467.166 1.175.241V15c-.934-.03-1.812-.06-2.2-.06-.527 0-1.25.03-2.139.06v-.241c.781-.059 1.157-.091 1.217-.271zM10.9 4.8a1.1 1.1 0 11-.016 2.2A1.154 1.154 0 019.8 5.9a1.132 1.132 0 011.1-1.1z"/></symbol><symbol id="sprite-location" viewBox="0 0 12 16"><title>location</title><path d="M6 1a4.821 4.821 0 00-5 4.621C1 8.174 6 15.009 6 15s5-6.826 5-9.379A4.821 4.821 0 006 1zm0 7.02A2.02 2.02 0 118.02 6 2.02 2.02 0 016 8.02z" fill="currentColor"/></symbol><symbol id="sprite-media-grid" viewBox="0 0 12 12"><title>media-grid</title><path fill="currentColor" d="M0 0h5v5H0zm7 0h5v5H7zM0 7h5v5H0zm7 0h5v5H7z"/></symbol><symbol id="sprite-media-list" viewBox="0 0 16 10"><title>media-list</title><path d="M4 0h12v2H4zm0 4h12v2H4zm0 4h12v2H4zM0 0h2v2H0zm0 4h2v2H0zm0 4h2v2H0z" fill="currentColor"/></symbol><symbol id="sprite-more-dots" viewBox="0 0 14 4"><title>icon_more-dots</title><circle cx="2" cy="2" r="1.4" fill="currentColor"/><circle cx="7" cy="2" r="1.4" fill="currentColor"/><circle cx="12" cy="2" r="1.4" fill="currentColor"/></symbol><symbol id="sprite-pagination_left" viewBox="0 0 9 15"><title>pagination_left</title><path stroke="currentColor" fill="none" stroke-linejoin="round" stroke-width="2" d="M8 14L1.5 7.5 8 1"/></symbol><symbol id="sprite-pagination_right" viewBox="0 0 9 15"><title>pagination_right</title><path stroke="currentColor" fill="none" stroke-linejoin="round" stroke-width="2" d="M1 14l6.5-6.5L1 1"/></symbol><symbol id="sprite-preferences" viewBox="0 0 26 16"><title>preferences</title><path d="M20.8 7c-.44 0-.575.281-.3.625l2 2.5a.613.613 0 001 0l2-2.5c.275-.344.14-.625-.3-.625zm-6.578-2.96a.8.8 0 000-1.131l-1.13-1.13a.8.8 0 00-1.131 0l-1.796 1.793c-.311.311-.566.206-.566-.234V.8A.8.8 0 008.8 0H7.2a.8.8 0 00-.8.8v2.538c0 .44-.255.545-.566.234L4.04 1.778a.8.8 0 00-1.132 0L1.777 2.909a.8.8 0 000 1.131L3.57 5.835c.311.311.206.566-.234.566H.8a.8.8 0 00-.8.8V8.8a.8.8 0 00.8.8h2.538c.44 0 .545.255.234.566L1.778 11.96a.8.8 0 000 1.131l1.13 1.13a.8.8 0 001.131 0l1.794-1.794c.311-.311.566-.206.566.234V15.2a.8.8 0 00.8.8H8.8a.8.8 0 00.8-.8v-2.536c0-.44.255-.545.566-.234l1.794 1.794a.8.8 0 001.131 0l1.131-1.132a.8.8 0 000-1.132l-1.794-1.794c-.311-.311-.206-.566.234-.566H15.2a.8.8 0 00.8-.8V7.2a.8.8 0 00-.8-.8h-2.538c-.44 0-.545-.255-.234-.566zM8 10.4A2.4 2.4 0 1110.4 8 2.4 2.4 0 018 10.4z" fill="currentColor"/></symbol><symbol id="sprite-preview-desktop" viewBox="0 0 39 30"><title>Artboard 167</title><path d="M37 1a1 1 0 011 1v26a1 1 0 01-1 1H2a1 1 0 01-1-1V2a1 1 0 011-1h35m0-1H2a2.006 2.006 0 00-2 2v26a2.006 2.006 0 002 2h35a2.006 2.006 0 002-2V2a2.006 2.006 0 00-2-2z" fill="currentColor"/></symbol><symbol id="sprite-preview-mobile" viewBox="0 0 12 18"><title>preview-mobile</title><path d="M10 1a1 1 0 011 1v14a1 1 0 01-1 1H2a1 1 0 01-1-1V2a1 1 0 011-1h8m0-1H2a2.006 2.006 0 00-2 2v14a2.006 2.006 0 002 2h8a2.006 2.006 0 002-2V2a2.006 2.006 0 00-2-2z" fill="currentColor"/><path d="M6 13a1 1 0 101 1 1 1 0 00-1-1z" fill="currentColor"/></symbol><symbol id="sprite-preview-tablet-h" viewBox="0 0 27 20"><title>preview-tablet-h</title><path d="M25 1a1 1 0 011 1v16a1 1 0 01-1 1H2a1 1 0 01-1-1V2a1 1 0 011-1h23m0-1H2a2.006 2.006 0 00-2 2v16a2.006 2.006 0 002 2h23a2.006 2.006 0 002-2V2a2.006 2.006 0 00-2-2z" fill="currentColor"/><path d="M23 10a1 1 0 101 1 1 1 0 00-1-1z" fill="currentColor"/></symbol><symbol id="sprite-preview-tablet-v" viewBox="0 0 20 27"><title>preview-tablet-v</title><path d="M18 1a1 1 0 011 1v23a1 1 0 01-1 1H2a1 1 0 01-1-1V2a1 1 0 011-1h16m0-1H2a2.006 2.006 0 00-2 2v23a2.006 2.006 0 002 2h16a2.006 2.006 0 002-2V2a2.006 2.006 0 00-2-2z" fill="currentColor"/><path d="M10 22a1 1 0 101 1 1 1 0 00-1-1z" fill="currentColor"/></symbol><symbol id="sprite-preview" viewBox="0 0 22 14"><title>icon_preview</title><path d="M10.986.193C5.259.193.6 7 .6 7s3.938 6.794 10.386 6.794C16.825 13.793 21.4 7 21.4 7S16.8.193 10.986.193zM11 11.55A4.55 4.55 0 1115.55 7 4.55 4.55 0 0111 11.55z" fill="currentColor"/><circle cx="11" cy="7" r="2.9" fill="currentColor"/></symbol><symbol id="sprite-publish" viewBox="0 0 22 15"><title>icon_publish</title><path d="M10.987 1.494C5.48 1.494 1 8 1 8s3.787 6.494 9.987 6.494C16.6 14.494 21 8 21 8s-4.419-6.506-10.013-6.506z" stroke="currentColor" fill="none" stroke-miterlimit="10"/><circle cx="11" cy="8" r="3" fill="currentColor"/></symbol><symbol id="sprite-quote" viewBox="0 0 16 13"><title>icon_quote</title><path d="M6 0H3.01L0 6.467V12a1 1 0 001 1h5a1 1 0 001-1V8a1 1 0 00-1-1H3zm6 7l3-7h-2.99L9 6.467V12a1 1 0 001 1h5a1 1 0 001-1V8a1 1 0 00-1-1z" fill="currentColor"/></symbol><symbol fill="none" id="sprite-replace" viewBox="0 0 20 20"><title>replace</title><path d="M13 15a1 1 0 001-1V7.133l-2.434 2.434-1.132-1.132L15 3.87l4.566 4.565-1.131 1.132L16 7.13V14a3 3 0 01-3 3h-3v-2h3zM7 6a1 1 0 00-1 .999v6.869l2.434-2.434 1.131 1.131L5 17.131.434 12.565l1.131-1.131L4 13.868v-6.87A3 3 0 017 4h3v2H7z" fill="#757575"/></symbol><symbol id="sprite-revision-compare" viewBox="0 0 23 16"><title>revision-compare</title><path d="M22 14a1 1 0 01-1 1H2a1 1 0 01-1-1V2a1 1 0 011-1h19a1 1 0 011 1v12m1 0V2a2.006 2.006 0 00-2-2H2a2.006 2.006 0 00-2 2v12a2.006 2.006 0 002 2h19a2.006 2.006 0 002-2zm-12 0H2V2h9zm10 0h-9V2h9z" fill="currentColor"/></symbol><symbol id="sprite-revision-single" viewBox="0 0 23 16"><title>revision-single</title><path d="M22 14a1 1 0 01-1 1H2a1 1 0 01-1-1V2a1 1 0 011-1h19a1 1 0 011 1v12m1 0V2a2.006 2.006 0 00-2-2H2a2.006 2.006 0 00-2 2v12a2.006 2.006 0 002 2h19a2.006 2.006 0 002-2zm-2 0H2V2h19z" fill="currentColor"/></symbol><symbol id="sprite-search" viewBox="0 0 20 20"><title>search</title><path d="M8.5 2.55A5.95 5.95 0 112.55 8.5 5.957 5.957 0 018.5 2.55m0-1.4a7.35 7.35 0 107.35 7.35A7.35 7.35 0 008.5 1.15z" fill="currentColor"/><path fill="none" stroke="currentColor" stroke-width="2" d="M13.119 13.119l4.524 4.524"/></symbol><symbol id="sprite-slideshow" viewBox="0 0 20 16"><title>slideshow</title><path d="M4 0v4H0v12h16v-5h4V0zm11 5v10H1V5zm4 5h-3V4H5V1h14z" fill="currentColor"/></symbol><symbol id="sprite-star-feature_active" viewBox="0 0 20 19"><title>icon_star-feature</title><path fill="currentColor" d="M10 .863l2.277 6.239L19 7.309l-5.316 4.063 1.877 6.366L10 14.014l-5.562 3.724 1.877-6.366L1 7.309l6.723-.207z"/></symbol><symbol id="sprite-star-feature" viewBox="0 0 20 19"><title>icon_star-feature</title><path d="M10 4.654l1.056 2.893.3.827.879.027 3.069.1-2.412 1.843-.71.543.253.858.86 2.917-2.574-1.723L10 12.45l-.723.484L6.7 14.658l.861-2.918.253-.858-.71-.543L4.693 8.5l3.07-.1.879-.027.3-.827L10 4.654m0-3.792L7.723 7.1 1 7.309l5.315 4.063-1.877 6.365L10 14.014l5.561 3.723-1.877-6.365L19 7.309 12.277 7.1 10 .862z" fill="currentColor"/></symbol><symbol id="sprite-text-2col" viewBox="0 0 26 13"><title>text-2col</title><path fill="currentColor" d="M0 0h11v1H0zm0 6h11v1H0zm15-3h11v1H15z"/><path fill="currentColor" d="M0 0h11v1H0zm0 3h11v1H0zm15-3h11v1H15zm0 6h11v1H15zm0 3h11v1H15zM0 12h8v1H0zm0-3h11v1H0zm15 3h8v1h-8z"/></symbol><symbol id="sprite-text" viewBox="0 0 17 13"><title>icon_text</title><path fill="currentColor" d="M0 0h17v1H0zm0 4h17v1H0zm0 4h17v1H0zm0 4h8v1H0z"/></symbol><symbol id="sprite-trash" viewBox="0 0 15 17"><title>icon_trash</title><path d="M12 2h-1V0H4v2H0v2h1v11a2.006 2.006 0 002 2h9a2.006 2.006 0 002-2V4h1V2zM5 1h5v1H5zm7 14H3V4h9z" fill="currentColor"/><path fill="currentColor" d="M5 6h1v7H5zm2 0h1v7H7zm2 0h1v7H9z"/></symbol><symbol fill="none" id="sprite-video" viewBox="0 0 23 23"><title>video</title><circle cx="11.5" cy="11.5" r="11" stroke="currentColor" fill="transparent" fill-opacity="0"/><path d="M9 15.8V7l7.543 4.4L9 15.8z" fill="currentColor"/></symbol><symbol id="sprite-website" viewBox="0 0 26 21"><title>website</title><path fill="transparent" fill-opacity="0" d="M0 19c0 1.1.9 2 2 2h22c1.1 0 2-.9 2-2V2c0-1.1-.9-2-2-2H2C.9 0 0 .9 0 2v17z"/><path fill="currentColor" d="M24 0H2C.9 0 0 .9 0 2v17c0 1.1.9 2 2 2h22c1.1 0 2-.9 2-2V2c0-1.1-.9-2-2-2zm1 19c0 .551-.449 1-1 1H2c-.551 0-1-.449-1-1V3h24v16z"/><path fill="currentColor" d="M5 8h7v7H5zm9 6h7v1h-7zm0-2h7v1h-7zm0-2h7v1h-7zm0-2h7v1h-7z"/></symbol><symbol fill="none" id="sprite-wysiwyg_anchor" viewBox="0 0 18 18"><title>wysiwyg_anchor</title><path d="M5.265 4H4v10h1.265V4zm5.758 10C14.205 14 16 12.105 16 8.98 16 5.875 14.205 4 11.166 4H7.8v10h3.223zm-1.958-1.074V5.074h2.02c2.447 0 3.691 1.485 3.691 3.906 0 2.442-1.244 3.946-3.835 3.946H9.066z" fill="currentColor"/></symbol><symbol id="sprite-wysiwyg_bold" viewBox="0 0 12 13"><title>wysiwyg_bold</title><path fill="currentColor" d="M.331 12.413c.513-.019.881-.087 1.104-.205.377-.197.566-.575.566-1.131V1.874c0-.553-.176-.925-.529-1.115C1.262.642.882.569.331.538V.055h5.873c1.131 0 2.071.13 2.82.39 1.41.489 2.115 1.38 2.115 2.672 0 .785-.286 1.408-.858 1.869a4.134 4.134 0 01-1.86.877v.176c.705.136 1.317.365 1.837.687 1.014.63 1.521 1.509 1.521 2.634 0 1.052-.486 1.904-1.456 2.557-.971.652-2.264.978-3.878.978H.33v-.482zm7.07-7.172c.401-.383.602-1.063.602-2.04 0-.724-.13-1.333-.394-1.828C7.346.878 6.84.63 6.092.63c-.396 0-.671.067-.825.2-.155.133-.232.373-.232.719v4.267c1.174 0 1.963-.191 2.365-.575zm-2.218 6.634c.154.272.451.408.89.408.897 0 1.527-.244 1.888-.733.363-.488.543-1.184.543-2.088 0-1.348-.399-2.245-1.196-2.69-.483-.272-1.24-.399-2.273-.38v4.75c.006.334.055.578.148.733z"/></symbol><symbol id="sprite-wysiwyg_header-2" viewBox="0 0 18 18"><title>wysiwyg_header-2</title><path fill="currentColor" d="M16.74 13.814v.44a.54.54 0 01-.605.605h-4.28a.584.584 0 01-.649-.605v-.241c0-2.906 3.4-3.422 3.4-4.555a.777.777 0 00-.848-.781 1.177 1.177 0 00-.836.385c-.275.263-.56.374-.858.131l-.429-.34c-.308-.243-.385-.518-.154-.815a2.972 2.972 0 012.454-1.177 2.454 2.454 0 012.684 2.41c0 2.453-3.18 2.926-3.279 3.938h2.795a.54.54 0 01.605.605zM9 3a1 1 0 00-1 1v4H3V4a1 1 0 00-2 0v10a1 1 0 002 0v-4h5v4a1 1 0 002 0V4a1 1 0 00-1-1z"/></symbol><symbol id="sprite-wysiwyg_header-3" viewBox="0 0 18 18"><title>wysiwyg_header-3</title><path fill="currentColor" d="M16.652 12.307a2.674 2.674 0 01-2.915 2.684 3.966 3.966 0 01-2.256-.67.56.56 0 01-.132-.837l.297-.484c.21-.34.484-.363.825-.154a2.327 2.327 0 001.123.33c.715 0 1.122-.352 1.122-.781 0-.616-.616-.869-1.464-.869h-.043a.652.652 0 01-.683-.419l-.055-.109a.671.671 0 01.143-.781l.716-.87a8.553 8.553 0 01.682-.737v-.02a3.94 3.94 0 01-.748.055h-1.277a.54.54 0 01-.605-.606v-.44a.54.54 0 01.605-.605h3.752a.538.538 0 01.605.594v.177a1.037 1.037 0 01-.275.748l-1.32 1.517a2.311 2.311 0 011.903 2.278zM9 3a1 1 0 00-1 1v4H3V4a1 1 0 00-2 0v10a1 1 0 002 0v-4h5v4a1 1 0 002 0V4a1 1 0 00-1-1z"/></symbol><symbol id="sprite-wysiwyg_header-4" viewBox="0 0 18 18"><title>wysiwyg_header-4</title><path fill="currentColor" d="M10 4v10a1 1 0 01-2 0v-4H3v4a1 1 0 01-2 0V4a1 1 0 012 0v4h5V4a1 1 0 012 0zm7.054 7.966v.385c0 .396-.165.605-.462.605h-.473v1.298a.54.54 0 01-.605.605h-.694a.54.54 0 01-.605-.605v-1.298h-2.882a.541.541 0 01-.605-.605v-.154a1.199 1.199 0 01.22-.748l2.563-4.06a.782.782 0 01.726-.396h1.277a.54.54 0 01.605.606v3.762h.33a.54.54 0 01.605.605zM14.28 8.72h-.022a4.19 4.19 0 01-.385.813l-1.188 1.805v.022h1.53V9.6a7.04 7.04 0 01.065-.88z"/></symbol><symbol id="sprite-wysiwyg_header-5" viewBox="0 0 18 18"><title>wysiwyg_header-5</title><path fill="currentColor" d="M16.74 12.186a2.751 2.751 0 01-2.915 2.805 3.908 3.908 0 01-2.256-.681.548.548 0 01-.132-.826l.297-.484c.21-.34.484-.363.826-.154a2.238 2.238 0 001.1.33 1.018 1.018 0 001.1-.968c0-.616-.54-.98-1.255-.98a2.156 2.156 0 00-.649.1 1.152 1.152 0 01-.814.01l-.12-.043a.641.641 0 01-.452-.715l.231-3.004a.567.567 0 01.628-.583h3.212a.54.54 0 01.605.606v.44a.54.54 0 01-.605.605h-2.124l-.043.725a1.293 1.293 0 01-.044.309h.022a2.398 2.398 0 01.572-.077 2.533 2.533 0 012.816 2.585zM9 3a1 1 0 00-1 1v4H3V4a1 1 0 00-2 0v10a1 1 0 002 0v-4h5v4a1 1 0 002 0V4a1 1 0 00-1-1z"/></symbol><symbol id="sprite-wysiwyg_header-6" viewBox="0 0 18 18"><title>wysiwyg_header-6</title><path fill="currentColor" d="M14.518 9.645a1.856 1.856 0 00-1.244.384h-.022a1.735 1.735 0 011.728-1.408 2.665 2.665 0 01.55.067c.352.054.572.01.704-.408l.164-.516a.534.534 0 00-.373-.76 4.837 4.837 0 00-1.177-.143c-2.432 0-3.763 2.178-3.763 4.434 0 2.476 1.606 3.696 3.19 3.696a2.706 2.706 0 002.685-2.794 2.439 2.439 0 00-2.442-2.552zm-.23 3.586c-.673 0-1.223-.814-1.223-1.452 0-.473.308-.583.726-.583.969 0 1.277.594 1.277 1.122a.822.822 0 01-.78.913zM10 4v10a1 1 0 01-2 0v-4H3v4a1 1 0 01-2 0V4a1 1 0 012 0v4h5V4a1 1 0 012 0z"/></symbol><symbol id="sprite-wysiwyg_header" viewBox="0 0 18 18"><title>wysiwyg_header</title><path fill="currentColor" d="M10 4v10a1 1 0 01-2 0v-4H3v4a1 1 0 01-2 0V4a1 1 0 012 0v4h5V4a1 1 0 012 0zm6.068 9.209H14.99v-5.61a.54.54 0 00-.605-.606h-.628a1.011 1.011 0 00-.748.297l-1.364 1.276a.543.543 0 00-.022.859l.286.307a.539.539 0 00.847.034l.1-.088a1.214 1.214 0 00.241-.353h.023s-.012.309-.012.606v3.278h-1.067a.54.54 0 00-.605.605v.44a.54.54 0 00.605.605h4.027a.54.54 0 00.605-.605v-.44a.54.54 0 00-.605-.605z"/></symbol><symbol id="sprite-wysiwyg_italic" viewBox="0 0 10 13"><title>wysiwyg_italic</title><path fill="currentColor" d="M.96 12.497c.476-.056.827-.17 1.055-.34.228-.169.417-.518.567-1.045l2.457-8.72c.07-.247.125-.455.16-.622.036-.168.054-.315.054-.442C5.253 1 5.16.792 4.97.707 4.781.622 4.387.554 3.79.503V0h5.956v.503c-.489.063-.842.177-1.06.342s-.402.515-.552 1.053l-2.466 8.72-.157.67a3.343 3.343 0 00-.034.194 1.26 1.26 0 00-.015.184c0 .328.092.536.274.623.182.089.576.158 1.181.208V13H.96v-.503z"/></symbol><symbol id="sprite-wysiwyg_link" viewBox="0 0 21 10"><title>wysiwyg_link</title><path fill="currentColor" d="M16 0h-4v2h4c1.654 0 3 1.346 3 3s-1.346 3-3 3h-4v2h4c2.75 0 5-2.25 5-5s-2.25-5-5-5zM2 5c0-1.654 1.346-3 3-3h4V0H5C2.25 0 0 2.25 0 5s2.25 5 5 5h4V8H5C3.346 8 2 6.654 2 5z"/><path fill="currentColor" d="M6 4h9v2H6z"/></symbol><symbol id="sprite-wysiwyg_underline" viewBox="0 0 12 13"><title>wysiwyg_underline</title><path fill="currentColor" d="M6.089.003v.486c-.62.02-1.034.116-1.242.287-.209.171-.313.562-.313 1.174v4.36c0 .814.096 1.443.29 1.886.348.825 1.017 1.237 2.007 1.237 1.229 0 2.06-.456 2.492-1.368.24-.501.36-1.202.36-2.104V2.067c0-.573-.106-.967-.317-1.184C9.156.667 8.742.536 8.128.49V.003h3.516v.486c-.511.099-.848.22-1.012.363-.164.144-.246.473-.246.988v4.118c0 1.359-.328 2.409-.985 3.148-.656.74-1.687 1.11-3.093 1.11-1.84 0-3.097-.55-3.774-1.65-.36-.584-.539-1.337-.539-2.26V1.95c0-.601-.08-.98-.238-1.135C1.597.66 1.24.55.683.489V.003h5.406zM0 12h12v1H0z"/></symbol><symbol id="sprite-browserstack-logo" viewBox="0 0 490.1 105.6"><title>Browserstack-logo-white</title><circle cx="52.8" cy="52.8" r="52.8" fill="#f4b960"/><circle cx="47.5" cy="47.5" r="47.5" fill="#e66f32"/><circle cx="53.8" cy="41.1" r="41.1" fill="#e43c41"/><circle cx="57.1" cy="44.4" r="37.8" fill="#bdd041"/><circle cx="54.3" cy="47.2" r="35.1" fill="#6db54c"/><circle cx="48.8" cy="41.7" r="29.5" fill="#aedae6"/><circle cx="53.6" cy="36.8" r="24.7" fill="#56b8de"/><circle cx="56.6" cy="39.9" r="21.7" fill="#00b1d5"/><radialGradient id="SVGID_1_" cx="53.45" cy="63.02" r="18.57" gradientTransform="matrix(1 0 0 -1 0 106)" gradientUnits="userSpaceOnUse"><stop offset="0" stop-color="#797979"/><stop offset="1" stop-color="#4c4c4c"/></radialGradient><circle cx="53.5" cy="43" r="18.6" fill="url(#SVGID_1_)"/><circle cx="53.5" cy="43" r="18.6" fill="#221f1f"/><ellipse transform="rotate(-65.832 60.867 36.231)" cx="60.9" cy="36.2" rx="5.7" ry="3.7" fill="#fff"/><path d="M122.5 32.6c0-.3.3-.6.6-.6h16.7c9.5 0 13.9 4.4 13.9 11 .2 3.7-1.8 7.2-5.2 8.8v.1c3.7 1.5 6.1 5.2 6 9.3 0 8.2-5.6 12.2-15.4 12.2h-16c-.3 0-.6-.2-.7-.5v-.1l.1-40.2zm17.1 16.5c3.9 0 6.4-2.2 6.4-5.4s-2.4-5.5-6.4-5.5h-8.9c-.2 0-.4.1-.4.3v10.3c0 .2.1.3.3.4h9v-.1zm-9 17.8h9.3c4.3 0 6.8-2.3 6.8-5.8s-2.4-5.7-6.7-5.7h-9.3c-.2 0-.4.1-.4.3v10.8c0 .3.1.4.3.4zm29.3 6.4c-.3 0-.6-.2-.7-.5V44.6c0-.3.3-.6.6-.6h6.1c.3 0 .6.2.7.5v2.6h.1c1.5-2.2 4.2-3.8 8.2-3.8 2.4 0 4.8.8 6.6 2.4.3.3.4.5.1.8l-3.5 4.1c-.2.3-.6.4-.9.2h-.1c-1.4-.9-3-1.4-4.7-1.4-4.1 0-6 2.7-6 7.4v15.9c0 .3-.3.6-.6.6h-5.9zm23-7.5c-.8-2.3-1.1-4.8-1.1-7.2-.1-2.5.3-4.9 1.1-7.2 1.8-5.1 6.6-8.1 13.1-8.1s11.2 3 13 8.1c.8 2.3 1.1 4.8 1.1 7.2.1 2.5-.3 4.9-1.1 7.2-1.8 5.1-6.6 8.1-13 8.1s-11.3-2.9-13.1-8.1zm19-1.8c.5-1.7.8-3.6.7-5.4.1-1.8-.1-3.7-.7-5.4-.9-2.5-3.3-4-5.9-3.8-2.6-.2-5.1 1.4-6 3.8-.5 1.8-.8 3.6-.7 5.4-.1 1.8.1 3.7.7 5.4.9 2.5 3.4 4 6 3.8 2.6.2 5-1.3 5.9-3.8zm40 9.3c-.4 0-.7-.3-.8-.6L235 53.9h-.1l-6.2 18.7c-.1.4-.4.6-.8.6h-5.4c-.4 0-.7-.3-.8-.6l-10-28.1c-.1-.2 0-.5.2-.6.1 0 .2-.1.3 0h6.3c.4 0 .8.2.9.6l6.1 19.3h.1l6-19.3c.1-.4.5-.6.9-.6h4.7c.4 0 .7.2.9.6l6.4 19.3h.1l5.8-19.3c.1-.4.5-.7.9-.6h6.3c.2-.1.5.1.5.3v.3l-10 28.1c-.1.4-.4.6-.8.6l-5.4.1zm17.4-4c-.2-.2-.3-.6-.1-.8l.1-.1 3.7-3.6c.3-.2.7-.2.9 0 2.6 2.1 5.9 3.3 9.3 3.3 3.9 0 5.9-1.5 5.9-3.5 0-1.8-1.1-2.9-5.2-3.2l-3.4-.3c-6.4-.6-9.7-3.6-9.7-8.6 0-5.7 4.4-9.2 12.3-9.2 4.2-.1 8.4 1.2 11.9 3.6.3.2.3.5.2.8v.1l-3.2 3.6c-.2.3-.6.3-.9.1-2.5-1.5-5.4-2.4-8.3-2.4-3.1 0-4.8 1.3-4.8 3s1.1 2.7 5.2 3.1l3.4.3c6.6.6 9.8 3.8 9.8 8.6 0 5.8-4.6 9.9-13.3 9.9-5.1 0-9.9-1.6-13.8-4.7zm31.9-3.5c-.8-2.3-1.2-4.7-1.1-7.2-.1-2.5.3-4.9 1-7.2 1.8-5.1 6.6-8.1 12.9-8.1 6.5 0 11.2 3.1 13 8.1.7 2.1 1 4.1 1 8.8 0 .3-.3.6-.6.6h-19.6c-.2 0-.4.1-.4.3v.1c0 .8.2 1.5.5 2.2 1 2.9 3.5 4.4 7.1 4.4 2.7.1 5.4-.9 7.4-2.8.2-.3.7-.4 1-.1l3.9 3.2c.2.1.3.5.2.7 0 .1-.1.1-.1.1-2.7 2.9-7.2 5-13 5-6.6 0-11.4-3-13.2-8.1zm19.2-13c-.9-2.4-3.2-3.8-6.2-3.8s-5.4 1.4-6.2 3.8c-.3.8-.4 1.6-.4 2.5 0 .2.1.3.3.4h12.5c.2 0 .4-.1.4-.3v-.1c0-.8-.2-1.7-.4-2.5zm13.2 20.5c-.3 0-.6-.2-.7-.5V44.6c0-.3.3-.6.6-.6h6.1c.3 0 .6.2.7.5v2.6h.1c1.5-2.2 4.2-3.8 8.2-3.8 2.4 0 4.8.8 6.6 2.4.3.3.4.5.1.8l-3.5 4.1c-.2.3-.6.4-.9.2h-.1c-1.4-.9-3-1.4-4.7-1.4-4.1 0-6 2.7-6 7.4v15.9c0 .3-.3.6-.6.6h-5.9zm22.9-4.8c-.3-.2-.4-.6-.2-.9l4.1-4.4c.2-.3.6-.3.9-.1 3.5 2.7 7.7 4.2 12.1 4.4 5.3 0 8.4-2.5 8.4-6 0-3-2-4.9-8.1-5.7l-2.4-.3c-8.6-1.1-13.5-4.9-13.5-11.8 0-7.5 5.9-12.4 15.1-12.4 5.1-.1 10.1 1.4 14.5 4.2.3.1.4.4.2.7 0 .1-.1.1-.1.2l-3.1 4.5c-.2.3-.6.4-.9.2-3.2-2.1-6.9-3.2-10.7-3.2-4.5 0-7 2.3-7 5.5 0 2.9 2.2 4.8 8.2 5.6l2.4.3c8.6 1.1 13.3 4.9 13.3 12 0 7.3-5.7 12.8-16.8 12.8-6.6-.2-12.9-2.6-16.4-5.6zm46.8 5.3c-6.4 0-8.8-2.9-8.8-8.6V49.8c0-.2-.1-.3-.3-.4H382c-.3 0-.6-.2-.7-.5v-4.2c0-.3.3-.6.6-.6h2.2c.2 0 .4-.1.4-.3v-8.1c0-.3.3-.6.6-.6h6.1c.3 0 .6.2.7.5v8.1c0 .2.1.3.3.4h4.3c.3 0 .6.2.7.5v4.2c0 .3-.3.6-.6.6h-4.3c-.2 0-.4.1-.4.3V65c0 2.1.9 2.7 3 2.7h1.6c.3 0 .6.2.7.5v5c0 .3-.3.6-.6.6h-3.3zm27.9-.5c-.3 0-.6-.2-.7-.5v-2.2c-1.5 2-4.5 3.4-8.9 3.4-5.8 0-10.6-2.8-10.6-8.9 0-6.4 4.9-9.3 12.7-9.3h6.4c.2 0 .4-.1.4-.3V54c0-3.3-1.7-4.9-7-4.9-2.6-.1-5.1.6-7.2 2-.3.2-.7.2-.9-.1v-.1l-2.4-4c-.2-.2-.1-.6.1-.8 2.6-1.7 6-2.9 11.2-2.9 9.6 0 13.2 3 13.2 10.2v19.1c0 .3-.3.6-.6.6h-5.7v.2zm-.8-9.9v-2.2c0-.2-.1-.3-.3-.4h-5.3c-4.7 0-6.8 1.2-6.8 3.9 0 2.4 1.9 3.6 5.5 3.6 4.4.1 6.9-1.5 6.9-4.9zm12.7 2.4c-.7-2.3-1.1-4.8-1-7.2-.1-2.4.3-4.9 1-7.2 1.8-5.2 6.7-8.1 13.1-8.1 4.2-.2 8.2 1.5 11 4.6.2.2.2.6 0 .8l-.1.1-4.1 3.3c-.3.2-.7.2-.9-.1v-.1c-1.5-1.7-3.6-2.6-5.9-2.5-2.8 0-5 1.3-5.9 3.8-.5 1.8-.8 3.6-.7 5.4-.1 1.8.1 3.7.7 5.5.9 2.5 3.1 3.8 5.9 3.8 2.2.1 4.4-.9 5.9-2.6.2-.3.6-.3.9-.1l4.1 3.3c.3.2.3.5.1.8l-.1.1c-2.9 3-6.9 4.6-11 4.5-6.3 0-11.1-2.8-13-8.1zm49.7 7.5c-.4 0-.8-.2-1-.6l-8-12.3-4.3 4.6v7.7c0 .3-.3.6-.6.6h-6.1c-.3 0-.6-.2-.7-.5V32.6c0-.3.3-.6.6-.6h6.1c.3 0 .6.2.7.5v23.9l10.8-11.8c.3-.4.8-.6 1.2-.6h6.7c.2 0 .4.1.4.3 0 .1 0 .3-.1.3l-10.1 10.7L490 72.7c.1.2.1.4 0 .5-.1.1-.2.1-.3.1h-6.9z" fill="#000111"/></symbol><symbol id="sprite-embed" viewBox="0 0 18 18"><title>embed</title><path class="ql-fill" d="M14.603 8.504a2.483 2.483 0 00.111-.704 2.345 2.345 0 00-2.285-2.4 2.197 2.197 0 00-1.364.484A4.011 4.011 0 007.285 3a4.104 4.104 0 00-4 4.2 4.407 4.407 0 00.077.796A3.574 3.574 0 001 11.4 3.517 3.517 0 004.429 15h9.428A3.224 3.224 0 0017 11.7a3.266 3.266 0 00-2.397-3.196zm-7.75 2.142a.5.5 0 11-.706.707l-1-1a.5.5 0 010-.707l1-1a.5.5 0 01.707.707L6.207 10zm2.632-2.525l-1 4A.5.5 0 018 12.5a.52.52 0 01-.121-.015.5.5 0 01-.364-.606l1-4a.5.5 0 01.97.242zm2.369 2.233l-1 1a.5.5 0 01-.707-.707l.646-.647-.646-.646a.5.5 0 01.707-.707l1 1a.5.5 0 010 .707z"/></symbol><symbol id="sprite-header-2" viewBox="0 0 18 18"><title>header-2</title><path class="ql-fill" d="M16.74 13.814v.44a.54.54 0 01-.605.605h-4.28a.584.584 0 01-.649-.605v-.241c0-2.906 3.4-3.422 3.4-4.555a.777.777 0 00-.848-.781 1.177 1.177 0 00-.836.385c-.275.263-.56.374-.858.131l-.429-.34c-.308-.243-.385-.518-.154-.815a2.972 2.972 0 012.454-1.177 2.454 2.454 0 012.684 2.41c0 2.453-3.18 2.926-3.279 3.938h2.795a.54.54 0 01.605.605zM9 3a1 1 0 00-1 1v4H3V4a1 1 0 00-2 0v10a1 1 0 002 0v-4h5v4a1 1 0 002 0V4a1 1 0 00-1-1z"/></symbol><symbol id="sprite-header-3" viewBox="0 0 18 18"><title>header-3</title><path class="ql-fill" d="M16.652 12.307a2.674 2.674 0 01-2.915 2.684 3.966 3.966 0 01-2.256-.67.56.56 0 01-.132-.837l.297-.484c.21-.34.484-.363.825-.154a2.327 2.327 0 001.123.33c.715 0 1.122-.352 1.122-.781 0-.616-.616-.869-1.464-.869h-.043a.652.652 0 01-.683-.419l-.055-.109a.671.671 0 01.143-.781l.716-.87a8.553 8.553 0 01.682-.737v-.02a3.94 3.94 0 01-.748.055h-1.277a.54.54 0 01-.605-.606v-.44a.54.54 0 01.605-.605h3.752a.538.538 0 01.605.594v.177a1.037 1.037 0 01-.275.748l-1.32 1.517a2.311 2.311 0 011.903 2.278zM9 3a1 1 0 00-1 1v4H3V4a1 1 0 00-2 0v10a1 1 0 002 0v-4h5v4a1 1 0 002 0V4a1 1 0 00-1-1z"/></symbol><symbol id="sprite-header-4" viewBox="0 0 18 18"><title>header-4</title><path class="ql-fill" d="M10 4v10a1 1 0 01-2 0v-4H3v4a1 1 0 01-2 0V4a1 1 0 012 0v4h5V4a1 1 0 012 0zm7.054 7.966v.385c0 .396-.165.605-.462.605h-.473v1.298a.54.54 0 01-.605.605h-.694a.54.54 0 01-.605-.605v-1.298h-2.882a.541.541 0 01-.605-.605v-.154a1.199 1.199 0 01.22-.748l2.563-4.06a.782.782 0 01.726-.396h1.277a.54.54 0 01.605.606v3.762h.33a.54.54 0 01.605.605zM14.28 8.72h-.022a4.19 4.19 0 01-.385.813l-1.188 1.805v.022h1.53V9.6a7.04 7.04 0 01.065-.88z"/></symbol><symbol id="sprite-header-5" viewBox="0 0 18 18"><title>header-5</title><path class="ql-fill" d="M16.74 12.186a2.751 2.751 0 01-2.915 2.805 3.908 3.908 0 01-2.256-.681.548.548 0 01-.132-.826l.297-.484c.21-.34.484-.363.826-.154a2.238 2.238 0 001.1.33 1.018 1.018 0 001.1-.968c0-.616-.54-.98-1.255-.98a2.156 2.156 0 00-.649.1 1.152 1.152 0 01-.814.01l-.12-.043a.641.641 0 01-.452-.715l.231-3.004a.567.567 0 01.628-.583h3.212a.54.54 0 01.605.606v.44a.54.54 0 01-.605.605h-2.124l-.043.725a1.293 1.293 0 01-.044.309h.022a2.398 2.398 0 01.572-.077 2.533 2.533 0 012.816 2.585zM9 3a1 1 0 00-1 1v4H3V4a1 1 0 00-2 0v10a1 1 0 002 0v-4h5v4a1 1 0 002 0V4a1 1 0 00-1-1z"/></symbol><symbol id="sprite-header-6" viewBox="0 0 18 18"><title>header-6</title><path class="ql-fill" d="M14.518 9.645a1.856 1.856 0 00-1.244.384h-.022a1.735 1.735 0 011.728-1.408 2.665 2.665 0 01.55.067c.352.054.572.01.704-.408l.164-.516a.534.534 0 00-.373-.76 4.837 4.837 0 00-1.177-.143c-2.432 0-3.763 2.178-3.763 4.434 0 2.476 1.606 3.696 3.19 3.696a2.706 2.706 0 002.685-2.794 2.439 2.439 0 00-2.442-2.552zm-.23 3.586c-.673 0-1.223-.814-1.223-1.452 0-.473.308-.583.726-.583.969 0 1.277.594 1.277 1.122a.822.822 0 01-.78.913zM10 4v10a1 1 0 01-2 0v-4H3v4a1 1 0 01-2 0V4a1 1 0 012 0v4h5V4a1 1 0 012 0z"/></symbol><symbol id="sprite-header" viewBox="0 0 18 18"><title>header</title><path class="ql-fill" d="M10 4v10a1 1 0 01-2 0v-4H3v4a1 1 0 01-2 0V4a1 1 0 012 0v4h5V4a1 1 0 012 0zm6.068 9.209H14.99v-5.61a.54.54 0 00-.605-.606h-.628a1.011 1.011 0 00-.748.297l-1.364 1.276a.543.543 0 00-.022.859l.286.307a.539.539 0 00.847.034l.1-.088a1.214 1.214 0 00.241-.353h.023s-.012.309-.012.606v3.278h-1.067a.54.54 0 00-.605.605v.44a.54.54 0 00.605.605h4.027a.54.54 0 00.605-.605v-.44a.54.54 0 00-.605-.605z"/></symbol><symbol id="sprite-horizontal-rule" viewBox="0 0 18 18"><title>horizontal-rule</title><path class="ql-fill" d="M15 12v2a1 1 0 01-1 1H4a1 1 0 01-1-1v-2a1 1 0 012 0v1h8v-1a1 1 0 012 0zm-1-9H4a1 1 0 00-1 1v2a1 1 0 002 0V5h8v1a1 1 0 002 0V4a1 1 0 00-1-1zm1 7H3a1 1 0 010-2h12a1 1 0 010 2z"/></symbol><symbol id="sprite-more" viewBox="0 0 18 18"><title>more</title><path class="ql-fill" d="M6 9.5A1.5 1.5 0 114.5 8 1.5 1.5 0 016 9.5zM9.5 8A1.5 1.5 0 1011 9.5 1.5 1.5 0 009.5 8zm5 0A1.5 1.5 0 1016 9.5 1.5 1.5 0 0014.5 8z"/></symbol><symbol id="sprite-graph" viewBox="0 0 372.047 262.205"><title>graph</title><defs><marker id="b" refY="0" orient="auto" overflow="visible"><path d="M-5.231-2.42L1.324-.01-5.23 2.401c1.047-1.423 1.041-3.37 0-4.821z" fill-rule="evenodd" stroke="#000" stroke-width=".375" stroke-linejoin="round"/></marker></defs><g transform="translate(0 -790.157)"><ellipse ry="26.868" rx="58.269" cy="923.48" cx="239.946" fill-opacity="0" stroke="#000" stroke-width="1.398"/><use xmlns:xlink="http://www.w3.org/1999/xlink" xlink:href="#a" transform="translate(-46.342 80.005)" width="100%" height="100%"/><ellipse ry="26.868" rx="58.269" cy="1000.426" cx="91.301" fill-opacity="0" stroke="#000" stroke-width="1.398"/><use xlink:href="#a" transform="translate(152.579 1.312)" width="100%" height="100%"/><ellipse id="a" cx="138.081" cy="841.289" rx="58.269" ry="26.868" opacity="1" fill-opacity="0" stroke="#000" stroke-width="1.398" stroke-miterlimit="4" stroke-opacity="1"/><text style="line-height:125%" x="86.934" y="844.202" font-size="15.733" font-family="sans-serif"><tspan x="86.934" y="844.202" font-size="10.488">put on your shorts</tspan></text><text style="line-height:125%" x="244.906" y="845.174" font-size="15.733" font-family="sans-serif"><tspan x="244.906" y="845.174" font-size="10.488">put on your shirt</tspan></text><text style="line-height:125%" x="42.909" y="924.807" font-size="15.733" font-family="sans-serif"><tspan x="42.909" y="924.807" font-size="10.488">put on your shoes</tspan></text><text style="line-height:125%" x="192.154" y="926.75" font-size="15.733" font-family="sans-serif"><tspan x="192.154" y="926.75" font-size="10.488">put on your jacket</tspan></text><text style="line-height:125%" x="54.562" y="1002.499" font-size="15.733" font-family="sans-serif"><tspan x="54.562" y="1002.499" font-size="10.488">tie your shoes</tspan></text><path d="M118.658 866.215L92.113 892.76m59.564-24.603l72.512 28.487m66.037-27.192l-37.55 25.897m-161.21 53.737v23.307" fill="none" stroke="#000" stroke-width="1.398" marker-end="url(#b)"/></g></symbol></svg>