<?xml version="1.0" ?><svg width="120px" height="120px" viewBox="0 0 120 120" id="Layer_1" style="enable-background:new 0 0 120 120;" version="1.1" xml:space="preserve" xmlns="http://www.w3.org/2000/svg" xmlns:xlink="http://www.w3.org/1999/xlink"><style type="text/css">
	.st0{fill:#FFC54D;}
	.st1{fill:#548DFF;}
	.st2{fill:#FFE8A2;}
</style><g><path class="st0" d="M86.2,79l-5.6-5.6c-0.5-0.5-0.8-1.2-0.8-1.9v-7.9c0-1.4-1.2-2.6-2.6-2.6h-7.9c-0.7,0-1.4-0.3-1.9-0.8l-4.7-4.7   c1.9-1,3.2-3,3.2-5.3c0-3.3-2.7-5.9-5.9-5.9s-5.9,2.7-5.9,5.9c0,2.3,1.3,4.3,3.2,5.3l-4.7,4.7c-0.5,0.5-1.2,0.8-1.9,0.8h-7.9   c-1.4,0-2.6,1.2-2.6,2.6v7.9c0,0.7-0.3,1.4-0.8,1.9L33.8,79c-1,1-1,2.7,0,3.7l5.6,5.6c0.5,0.5,0.8,1.2,0.8,1.9v7.9   c0,1.4,1.2,2.6,2.6,2.6h7.9c0.7,0,1.4,0.3,1.9,0.8l5.6,5.6c1,1,2.7,1,3.7,0l5.6-5.6c0.5-0.5,1.2-0.8,1.9-0.8h7.9   c1.4,0,2.6-1.2,2.6-2.6v-7.9c0-0.7,0.3-1.4,0.8-1.9l5.6-5.6C87.2,81.7,87.2,80.1,86.2,79z M60,46.8c2,0,3.5,1.6,3.5,3.5   c0,2-1.6,3.5-3.5,3.5s-3.5-1.6-3.5-3.5C56.5,48.4,58,46.8,60,46.8z"/><path class="st1" d="M76.2,50.3H44c-2.5,0-4.5-2-4.5-4.5v-5.3h41.1v5.3C80.6,48.3,78.6,50.3,76.2,50.3z"/><rect class="st1" height="27.5" width="41.1" x="39.5" y="12.1"/><rect class="st2" height="29.8" width="17.2" x="51.5" y="12.1"/><path class="st0" d="M82.9,41.9H37.1c-0.7,0-1.2-0.5-1.2-1.2v-0.3c0-0.7,0.5-1.2,1.2-1.2H83c0.7,0,1.2,0.5,1.2,1.2v0.3   C84.1,41.3,83.6,41.9,82.9,41.9z"/></g></svg>